<svg width="52" height="46" viewBox="0 0 52 46" fill="none" xmlns="http://www.w3.org/2000/svg">
<path d="M0.980469 15.0781H15.8242V10.8438H0.980469V15.0781ZM6.10547 20.7031H10.6992V5.23438H6.10547V20.7031ZM17.9961 23.5H34.1836V19.4844H25.0742L29.8555 14.1094C30.9805 12.8906 31.9023 11.7083 32.6211 10.5625C33.3398 9.41667 33.6992 8.09896 33.6992 6.60938C33.6888 4.74479 33.0273 3.23438 31.7148 2.07812C30.4128 0.921875 28.4857 0.34375 25.9336 0.34375C23.5273 0.34375 21.5951 1 20.1367 2.3125C18.6784 3.625 17.9492 5.31771 17.9492 7.39062V8.28125H23.0898V7.75C23.0898 6.41667 23.3451 5.46875 23.8555 4.90625C24.3763 4.34375 25.0638 4.0625 25.918 4.0625C26.7513 4.0625 27.3971 4.30208 27.8555 4.78125C28.3138 5.26042 28.543 5.94271 28.543 6.82812C28.543 7.66146 28.3034 8.46875 27.8242 9.25C27.3451 10.0208 26.7201 10.8438 25.9492 11.7188L17.9961 20.3906V23.5ZM35.8867 15.625C35.8867 18.2083 36.569 20.2344 37.9336 21.7031C39.3086 23.1615 41.2617 23.8958 43.793 23.9062C46.2513 23.9062 48.1888 23.1771 49.6055 21.7188C51.0221 20.25 51.7305 18.2188 51.7305 15.625V8.625C51.7305 6.05208 51.0378 4.03125 49.6523 2.5625C48.2669 1.08333 46.3138 0.34375 43.793 0.34375C41.2721 0.34375 39.3242 1.08854 37.9492 2.57812C36.5742 4.06771 35.8867 6.08333 35.8867 8.625V15.625ZM41.0586 16.3438V7.95312C41.0586 6.75521 41.2773 5.80729 41.7148 5.10938C42.1523 4.41146 42.8503 4.0625 43.8086 4.0625C44.7669 4.0625 45.4648 4.41146 45.9023 5.10938C46.3503 5.80729 46.5742 6.75521 46.5742 7.95312V16.3438C46.5742 17.5312 46.3503 18.474 45.9023 19.1719C45.4648 19.8698 44.7669 20.2188 43.8086 20.2188C42.8503 20.2188 42.1523 19.8698 41.7148 19.1719C41.2773 18.474 41.0586 17.5312 41.0586 16.3438Z" fill="#2BCDC0"/>
<path d="M15.0244 45.5H16.7471V39.1426C16.7471 38.9922 16.7425 38.8258 16.7334 38.6436C16.7288 38.4567 16.7197 38.2881 16.7061 38.1377H16.7607C16.7835 38.2881 16.8177 38.4567 16.8633 38.6436C16.9089 38.8258 16.959 38.9922 17.0137 39.1426L19.3447 45.5H21.0537L23.3984 39.1426C23.4531 38.9922 23.5033 38.8258 23.5488 38.6436C23.5944 38.4567 23.6286 38.2881 23.6514 38.1377H23.7061C23.6878 38.2881 23.6742 38.4567 23.665 38.6436C23.6605 38.8258 23.6582 38.9922 23.6582 39.1426V45.5H25.7363V35.5469H23.0156L20.623 41.9932C20.5684 42.1436 20.5205 42.2871 20.4795 42.4238C20.4385 42.5605 20.4043 42.7132 20.377 42.8818H20.3291C20.3018 42.7132 20.2676 42.5628 20.2266 42.4307C20.1901 42.2939 20.1423 42.1481 20.083 41.9932L17.7041 35.5469H15.0244V45.5ZM27.3018 42C27.3018 43.1348 27.6458 44.0371 28.334 44.707C29.0221 45.3724 29.9154 45.7051 31.0137 45.7051C32.1165 45.7051 33.0098 45.3724 33.6934 44.707C34.3815 44.0371 34.7256 43.1348 34.7256 42V41.7812C34.7256 40.6465 34.3815 39.7464 33.6934 39.0811C33.0098 38.4111 32.1165 38.0762 31.0137 38.0762C29.9154 38.0762 29.0221 38.4111 28.334 39.0811C27.6458 39.7464 27.3018 40.6465 27.3018 41.7812V42ZM29.3799 41.665C29.3799 40.9951 29.5234 40.487 29.8105 40.1406C30.1022 39.7943 30.5033 39.6211 31.0137 39.6211C31.5241 39.6211 31.9229 39.7943 32.21 40.1406C32.5016 40.487 32.6475 40.9951 32.6475 41.665V42.1094C32.6475 42.7839 32.5062 43.2943 32.2236 43.6406C31.9411 43.987 31.5378 44.1602 31.0137 44.1602C30.4941 44.1602 30.0908 43.987 29.8037 43.6406C29.5212 43.2943 29.3799 42.7839 29.3799 42.1094V41.665ZM36.1133 45.5H38.1504V40.8584C38.2643 40.5758 38.4443 40.3434 38.6904 40.1611C38.9365 39.9743 39.2145 39.8809 39.5244 39.8809C39.6338 39.8809 39.7318 39.8854 39.8184 39.8945C39.9095 39.9036 39.9961 39.9196 40.0781 39.9424V38.1855C40.0371 38.1673 39.9665 38.1468 39.8662 38.124C39.7705 38.1012 39.6771 38.0898 39.5859 38.0898C39.2669 38.0898 38.9798 38.1878 38.7246 38.3838C38.4694 38.5752 38.2712 38.8053 38.1299 39.0742H38.0957L38.0479 38.2881H36.1133V45.5ZM40.6729 42C40.6729 43.1165 41.0055 44.0143 41.6709 44.6934C42.3363 45.3678 43.2523 45.7051 44.4189 45.7051C45.1572 45.7051 45.7975 45.5638 46.3398 45.2812C46.8822 44.9941 47.2673 44.6318 47.4951 44.1943L46.0732 43.2578C45.8955 43.5039 45.6654 43.7227 45.3828 43.9141C45.1003 44.1055 44.7676 44.2012 44.3848 44.2012C43.8288 44.2012 43.4072 44.012 43.1201 43.6338C42.8376 43.2555 42.6963 42.7451 42.6963 42.1025V41.6719C42.6963 41.0111 42.8285 40.4915 43.0928 40.1133C43.3571 39.735 43.7422 39.5459 44.248 39.5459C44.6855 39.5459 45.0228 39.6826 45.2598 39.9561C45.5013 40.2295 45.6198 40.5667 45.6152 40.9678V41.125H42.0605V42.3896H47.625V41.6582C47.625 40.5417 47.3242 39.6667 46.7227 39.0332C46.1257 38.3952 45.3031 38.0762 44.2549 38.0762C43.2113 38.0762 42.3522 38.4157 41.6777 39.0947C41.0078 39.7692 40.6729 40.6647 40.6729 41.7812V42Z" fill="black"/>
</svg>
