<svg width="432" height="193" viewBox="0 0 432 193" fill="none" xmlns="http://www.w3.org/2000/svg">
<g filter="url(#filter0_d_337_2)">
<rect x="50" y="46" width="332" height="95" rx="10" fill="white" shape-rendering="crispEdges"/>
<rect x="66" y="62" width="32" height="32" rx="5" fill="#2BCDC0"/>
<path d="M88.6953 79.0833H89.5V80.0833H89.3281C89.224 80.3802 89.0781 80.651 88.8906 80.8958C88.7031 81.1406 88.4818 81.3515 88.2266 81.5286C87.9714 81.7057 87.7005 81.8411 87.4141 81.9349C87.1276 82.0286 86.8229 82.0781 86.5 82.0833C86.1875 82.0833 85.8828 82.0364 85.5859 81.9427C85.2891 81.8489 85.0156 81.7135 84.7656 81.5364C84.5156 81.3594 84.2969 81.1484 84.1094 80.9036C83.9219 80.6588 83.776 80.3854 83.6719 80.0833H83.5V79.0833H84.3047L85.7656 74.7083L82.5 73.6224V83.0989C83.3802 83.1562 84.2057 83.3515 84.9766 83.6849C85.7474 84.0182 86.4557 84.4844 87.1016 85.0833H88.5V86.0833H75.5V85.0833H76.8984C77.5391 84.4896 78.2474 84.026 79.0234 83.6927C79.7995 83.3594 80.625 83.1614 81.5 83.0989V73.2864L78.4219 72.263L79.6953 76.0833H80.5V77.0833H80.3281C80.224 77.3802 80.0781 77.651 79.8906 77.8958C79.7031 78.1406 79.4818 78.3515 79.2266 78.5286C78.9714 78.7057 78.7005 78.8411 78.4141 78.9349C78.1276 79.0286 77.8229 79.0781 77.5 79.0833C77.1875 79.0833 76.8828 79.0364 76.5859 78.9427C76.2891 78.8489 76.0156 78.7135 75.7656 78.5364C75.5156 78.3594 75.2969 78.1484 75.1094 77.9036C74.9219 77.6588 74.776 77.3854 74.6719 77.0833H74.5V76.0833H75.3047L76.7656 71.7083L74.7188 71.0286L75.0391 70.0833L81.5 72.2318V70.0833H82.5V72.5677L89.2734 74.8177L88.9531 75.7708L87.4141 75.2552L88.6953 79.0833ZM79.2344 77.0833H75.7656C75.9479 77.3958 76.1927 77.6406 76.5 77.8177C76.8073 77.9948 77.1406 78.0833 77.5 78.0833C77.8594 78.0833 78.1927 77.9948 78.5 77.8177C78.8073 77.6406 79.0521 77.3958 79.2344 77.0833ZM78.6406 76.0833L77.5 72.6614L76.3594 76.0833H78.6406ZM82 84.0833C81.3854 84.0833 80.7839 84.1666 80.1953 84.3333C79.6068 84.5 79.0521 84.75 78.5312 85.0833H85.4688C84.9531 84.7552 84.3984 84.5078 83.8047 84.3411C83.2109 84.1745 82.6094 84.0885 82 84.0833ZM86.5 75.6614L85.3594 79.0833H87.6406L86.5 75.6614ZM88.2344 80.0833H84.7656C84.9479 80.3958 85.1927 80.6406 85.5 80.8177C85.8073 80.9948 86.1406 81.0833 86.5 81.0833C86.8594 81.0833 87.1927 80.9948 87.5 80.8177C87.8073 80.6406 88.0521 80.3958 88.2344 80.0833Z" fill="white"/>
<path d="M106.844 72.6719C106.844 74.4427 107.294 75.8125 108.195 76.7812C109.102 77.7448 110.255 78.2266 111.656 78.2266C113.031 78.2266 114.089 77.8568 114.828 77.1172C115.573 76.3724 115.987 75.4609 116.07 74.3828L116.078 74.2422H114.281V74.375C114.219 75.0729 113.974 75.6484 113.547 76.1016C113.125 76.5495 112.497 76.7734 111.664 76.7734C110.768 76.7734 110.044 76.4245 109.492 75.7266C108.94 75.0286 108.664 74.0417 108.664 72.7656V71.8594C108.664 70.4844 108.943 69.474 109.5 68.8281C110.057 68.1771 110.776 67.8516 111.656 67.8516C112.536 67.8516 113.193 68.0729 113.625 68.5156C114.062 68.9531 114.281 69.5286 114.281 70.2422V70.3828H116.078V70.2578C116.078 69.1641 115.685 68.2474 114.898 67.5078C114.112 66.7682 113.031 66.3984 111.656 66.3984C110.26 66.3984 109.109 66.8802 108.203 67.8438C107.297 68.8073 106.844 70.1771 106.844 71.9531V72.6719ZM117.281 74.0312C117.281 75.2865 117.643 76.3021 118.367 77.0781C119.091 77.849 120.052 78.2344 121.25 78.2344C122.448 78.2344 123.409 77.849 124.133 77.0781C124.862 76.3021 125.227 75.2865 125.227 74.0312V73.7812C125.227 72.5312 124.862 71.5208 124.133 70.75C123.409 69.974 122.448 69.5859 121.25 69.5859C120.052 69.5859 119.091 69.974 118.367 70.75C117.643 71.5208 117.281 72.5312 117.281 73.7812V74.0312ZM119.047 73.7422C119.047 72.9245 119.234 72.2578 119.609 71.7422C119.984 71.2214 120.531 70.9609 121.25 70.9609C121.974 70.9609 122.523 71.2214 122.898 71.7422C123.273 72.2578 123.461 72.9245 123.461 73.7422V74.0781C123.461 74.8958 123.273 75.5651 122.898 76.0859C122.523 76.6068 121.974 76.8672 121.25 76.8672C120.526 76.8672 119.977 76.6068 119.602 76.0859C119.232 75.5651 119.047 74.8958 119.047 74.0781V73.7422ZM126.953 78H128.688V72.3203C128.87 71.9401 129.115 71.6354 129.422 71.4062C129.729 71.1771 130.089 71.0625 130.5 71.0625C130.979 71.0625 131.346 71.1953 131.602 71.4609C131.857 71.7266 131.984 72.1615 131.984 72.7656V78H133.719V72.3203C133.901 71.9401 134.146 71.6354 134.453 71.4062C134.766 71.1771 135.128 71.0625 135.539 71.0625C136.013 71.0625 136.378 71.1953 136.633 71.4609C136.888 71.7266 137.016 72.1589 137.016 72.7578V78H138.75V72.8125C138.75 71.6771 138.505 70.8698 138.016 70.3906C137.531 69.9062 136.872 69.6641 136.039 69.6641C135.497 69.6641 135.008 69.7786 134.57 70.0078C134.133 70.2318 133.755 70.5833 133.438 71.0625H133.398C133.195 70.5833 132.891 70.2318 132.484 70.0078C132.078 69.7786 131.596 69.6641 131.039 69.6641C130.549 69.6641 130.099 69.7682 129.688 69.9766C129.276 70.1849 128.932 70.474 128.656 70.8438H128.609L128.555 69.8203H126.953V78ZM140.859 81.2578H142.594V77.0781C142.818 77.4062 143.133 77.6693 143.539 77.8672C143.945 78.0599 144.424 78.1562 144.977 78.1562C146.008 78.1562 146.836 77.7734 147.461 77.0078C148.086 76.237 148.398 75.2448 148.398 74.0312V73.7812C148.398 72.5677 148.083 71.5781 147.453 70.8125C146.828 70.0469 145.995 69.6641 144.953 69.6641C144.401 69.6641 143.911 69.7786 143.484 70.0078C143.057 70.237 142.747 70.5156 142.555 70.8438H142.508L142.453 69.8203H140.859V81.2578ZM142.594 75.4766V72.3281C142.745 71.9896 142.987 71.6901 143.32 71.4297C143.659 71.1641 144.07 71.0312 144.555 71.0312C145.268 71.0312 145.792 71.2865 146.125 71.7969C146.464 72.3021 146.633 72.9505 146.633 73.7422V74.0781C146.633 74.8698 146.464 75.5208 146.125 76.0312C145.792 76.5365 145.271 76.7891 144.562 76.7891C144.078 76.7891 143.664 76.6562 143.32 76.3906C142.982 76.125 142.74 75.8203 142.594 75.4766ZM149.688 75.5938C149.688 76.4323 149.958 77.0703 150.5 77.5078C151.042 77.9401 151.706 78.1562 152.492 78.1562C153.164 78.1562 153.719 78.0286 154.156 77.7734C154.594 77.5182 154.901 77.2266 155.078 76.8984C155.099 77.0964 155.135 77.2995 155.188 77.5078C155.245 77.7109 155.307 77.875 155.375 78H157.062V77.875C156.969 77.651 156.893 77.3906 156.836 77.0938C156.784 76.7917 156.758 76.474 156.758 76.1406V72.3984C156.758 71.4557 156.474 70.7526 155.906 70.2891C155.339 69.8255 154.544 69.5938 153.523 69.5938C152.503 69.5938 151.685 69.8333 151.07 70.3125C150.461 70.7917 150.156 71.3698 150.156 72.0469V72.125H151.867V72.0547C151.867 71.737 151.99 71.4609 152.234 71.2266C152.479 70.9922 152.888 70.875 153.461 70.875C154.039 70.875 154.443 71.0156 154.672 71.2969C154.906 71.5781 155.023 71.9427 155.023 72.3906V72.9297H153.258C152.221 72.9297 151.367 73.1615 150.695 73.625C150.023 74.0833 149.688 74.7396 149.688 75.5938ZM151.422 75.4766C151.422 75.0391 151.594 74.6979 151.938 74.4531C152.281 74.2031 152.794 74.0781 153.477 74.0781H155.023V75.1172C155.023 75.5547 154.815 75.9557 154.398 76.3203C153.987 76.6849 153.508 76.8672 152.961 76.8672C152.435 76.8672 152.047 76.7448 151.797 76.5C151.547 76.25 151.422 75.9089 151.422 75.4766ZM158.938 78H160.672V72.4141C160.823 72.0599 161.055 71.7656 161.367 71.5312C161.68 71.2969 162.049 71.1797 162.477 71.1797C162.612 71.1797 162.734 71.1875 162.844 71.2031C162.958 71.2135 163.065 71.2292 163.164 71.25V69.7031C163.112 69.6823 163.026 69.6589 162.906 69.6328C162.786 69.6068 162.669 69.5938 162.555 69.5938C162.122 69.5938 161.745 69.7161 161.422 69.9609C161.099 70.2057 160.839 70.4948 160.641 70.8281H160.602L160.547 69.8203H158.938V78ZM163.859 74.0312C163.859 75.276 164.208 76.2891 164.906 77.0703C165.609 77.8464 166.604 78.2344 167.891 78.2344C168.693 78.2344 169.375 78.0677 169.938 77.7344C170.505 77.401 170.919 77.0208 171.18 76.5938L170.008 75.7578C169.789 76.0599 169.503 76.3229 169.148 76.5469C168.794 76.7708 168.37 76.8828 167.875 76.8828C167.109 76.8828 166.539 76.6172 166.164 76.0859C165.789 75.5547 165.602 74.8828 165.602 74.0703V73.7422C165.602 72.9297 165.776 72.2578 166.125 71.7266C166.479 71.1953 167.008 70.9297 167.711 70.9297C168.305 70.9297 168.758 71.1224 169.07 71.5078C169.388 71.888 169.544 72.349 169.539 72.8906V73.0703H164.961V74.3125H171.266V73.6484C171.266 72.3932 170.953 71.4036 170.328 70.6797C169.703 69.9505 168.82 69.5859 167.68 69.5859C166.539 69.5859 165.617 69.9766 164.914 70.7578C164.211 71.5339 163.859 72.5417 163.859 73.7812V74.0312ZM176.203 81.25C176.349 81.3021 176.505 81.3411 176.672 81.3672C176.839 81.3932 177.031 81.4062 177.25 81.4062C177.906 81.4062 178.461 81.2031 178.914 80.7969C179.367 80.3906 179.732 79.8073 180.008 79.0469L183.344 69.8203H181.742L179.992 75.0078C179.93 75.2109 179.872 75.401 179.82 75.5781C179.768 75.75 179.719 75.9167 179.672 76.0781H179.625C179.589 75.9167 179.544 75.75 179.492 75.5781C179.445 75.401 179.385 75.2109 179.312 75.0078L177.461 69.8203H175.75L178.844 77.9609L178.875 77.9688C178.609 78.8073 178.341 79.3568 178.07 79.6172C177.805 79.8776 177.492 80.0078 177.133 80.0078C176.982 80.0078 176.823 79.9948 176.656 79.9688C176.495 79.9427 176.346 79.9089 176.211 79.8672L176.203 81.25ZM183.828 74.0312C183.828 75.2865 184.19 76.3021 184.914 77.0781C185.638 77.849 186.599 78.2344 187.797 78.2344C188.995 78.2344 189.956 77.849 190.68 77.0781C191.409 76.3021 191.773 75.2865 191.773 74.0312V73.7812C191.773 72.5312 191.409 71.5208 190.68 70.75C189.956 69.974 188.995 69.5859 187.797 69.5859C186.599 69.5859 185.638 69.974 184.914 70.75C184.19 71.5208 183.828 72.5312 183.828 73.7812V74.0312ZM185.594 73.7422C185.594 72.9245 185.781 72.2578 186.156 71.7422C186.531 71.2214 187.078 70.9609 187.797 70.9609C188.521 70.9609 189.07 71.2214 189.445 71.7422C189.82 72.2578 190.008 72.9245 190.008 73.7422V74.0781C190.008 74.8958 189.82 75.5651 189.445 76.0859C189.07 76.6068 188.521 76.8672 187.797 76.8672C187.073 76.8672 186.523 76.6068 186.148 76.0859C185.779 75.5651 185.594 74.8958 185.594 74.0781V73.7422ZM193.422 75.0156C193.422 76.1458 193.672 76.9531 194.172 77.4375C194.672 77.9167 195.333 78.1562 196.156 78.1562C196.677 78.1562 197.148 78.0521 197.57 77.8438C197.997 77.6354 198.349 77.349 198.625 76.9844H198.672L198.727 78H200.328V69.8203H198.594V75.5078C198.417 75.8724 198.164 76.1745 197.836 76.4141C197.508 76.6484 197.13 76.7656 196.703 76.7656C196.214 76.7656 195.833 76.6354 195.562 76.375C195.292 76.1146 195.156 75.6719 195.156 75.0469V69.8203H193.422V75.0156ZM202.516 78H204.25V72.4141C204.401 72.0599 204.633 71.7656 204.945 71.5312C205.258 71.2969 205.628 71.1797 206.055 71.1797C206.19 71.1797 206.312 71.1875 206.422 71.2031C206.536 71.2135 206.643 71.2292 206.742 71.25V69.7031C206.69 69.6823 206.604 69.6589 206.484 69.6328C206.365 69.6068 206.247 69.5938 206.133 69.5938C205.701 69.5938 205.323 69.7161 205 69.9609C204.677 70.2057 204.417 70.4948 204.219 70.8281H204.18L204.125 69.8203H202.516V78ZM211.938 78H213.672V72.4141C213.823 72.0599 214.055 71.7656 214.367 71.5312C214.68 71.2969 215.049 71.1797 215.477 71.1797C215.612 71.1797 215.734 71.1875 215.844 71.2031C215.958 71.2135 216.065 71.2292 216.164 71.25V69.7031C216.112 69.6823 216.026 69.6589 215.906 69.6328C215.786 69.6068 215.669 69.5938 215.555 69.5938C215.122 69.5938 214.745 69.7161 214.422 69.9609C214.099 70.2057 213.839 70.4948 213.641 70.8281H213.602L213.547 69.8203H211.938V78ZM216.859 74.0312C216.859 75.276 217.208 76.2891 217.906 77.0703C218.609 77.8464 219.604 78.2344 220.891 78.2344C221.693 78.2344 222.375 78.0677 222.938 77.7344C223.505 77.401 223.919 77.0208 224.18 76.5938L223.008 75.7578C222.789 76.0599 222.503 76.3229 222.148 76.5469C221.794 76.7708 221.37 76.8828 220.875 76.8828C220.109 76.8828 219.539 76.6172 219.164 76.0859C218.789 75.5547 218.602 74.8828 218.602 74.0703V73.7422C218.602 72.9297 218.776 72.2578 219.125 71.7266C219.479 71.1953 220.008 70.9297 220.711 70.9297C221.305 70.9297 221.758 71.1224 222.07 71.5078C222.388 71.888 222.544 72.349 222.539 72.8906V73.0703H217.961V74.3125H224.266V73.6484C224.266 72.3932 223.953 71.4036 223.328 70.6797C222.703 69.9505 221.82 69.5859 220.68 69.5859C219.539 69.5859 218.617 69.9766 217.914 70.7578C217.211 71.5339 216.859 72.5417 216.859 73.7812V74.0312ZM225.414 75.5312V75.5859C225.414 76.4036 225.711 77.0495 226.305 77.5234C226.898 77.9974 227.755 78.2344 228.875 78.2344C229.995 78.2344 230.839 78 231.406 77.5312C231.979 77.0625 232.266 76.4479 232.266 75.6875C232.266 74.9688 232.031 74.4141 231.562 74.0234C231.094 73.6328 230.406 73.3359 229.5 73.1328C228.615 72.9297 228.031 72.7448 227.75 72.5781C227.469 72.4115 227.328 72.1823 227.328 71.8906C227.328 71.6042 227.445 71.3672 227.68 71.1797C227.919 70.9922 228.299 70.8984 228.82 70.8984C229.346 70.8984 229.734 71.0026 229.984 71.2109C230.234 71.4193 230.359 71.7083 230.359 72.0781V72.1641H232.062V72.1094C232.062 71.3333 231.766 70.7188 231.172 70.2656C230.583 69.8125 229.802 69.5859 228.828 69.5859C227.849 69.5859 227.07 69.8099 226.492 70.2578C225.914 70.7057 225.625 71.2839 225.625 71.9922C225.625 72.6589 225.87 73.1875 226.359 73.5781C226.849 73.9635 227.549 74.2578 228.461 74.4609C229.341 74.6641 229.909 74.8542 230.164 75.0312C230.424 75.2031 230.555 75.4583 230.555 75.7969C230.555 76.1354 230.406 76.4089 230.109 76.6172C229.812 76.8203 229.401 76.9219 228.875 76.9219C228.344 76.9219 227.919 76.8151 227.602 76.6016C227.284 76.3828 227.125 76.0495 227.125 75.6016V75.5312H225.414ZM233.891 75.0156C233.891 76.1458 234.141 76.9531 234.641 77.4375C235.141 77.9167 235.802 78.1562 236.625 78.1562C237.146 78.1562 237.617 78.0521 238.039 77.8438C238.466 77.6354 238.818 77.349 239.094 76.9844H239.141L239.195 78H240.797V69.8203H239.062V75.5078C238.885 75.8724 238.633 76.1745 238.305 76.4141C237.977 76.6484 237.599 76.7656 237.172 76.7656C236.682 76.7656 236.302 76.6354 236.031 76.375C235.76 76.1146 235.625 75.6719 235.625 75.0469V69.8203H233.891V75.0156ZM242.984 78H244.719V72.3203C244.901 71.9401 245.146 71.6354 245.453 71.4062C245.76 71.1771 246.12 71.0625 246.531 71.0625C247.01 71.0625 247.378 71.1953 247.633 71.4609C247.888 71.7266 248.016 72.1615 248.016 72.7656V78H249.75V72.3203C249.932 71.9401 250.177 71.6354 250.484 71.4062C250.797 71.1771 251.159 71.0625 251.57 71.0625C252.044 71.0625 252.409 71.1953 252.664 71.4609C252.919 71.7266 253.047 72.1589 253.047 72.7578V78H254.781V72.8125C254.781 71.6771 254.536 70.8698 254.047 70.3906C253.562 69.9062 252.904 69.6641 252.07 69.6641C251.529 69.6641 251.039 69.7786 250.602 70.0078C250.164 70.2318 249.786 70.5833 249.469 71.0625H249.43C249.227 70.5833 248.922 70.2318 248.516 70.0078C248.109 69.7786 247.628 69.6641 247.07 69.6641C246.581 69.6641 246.13 69.7682 245.719 69.9766C245.307 70.1849 244.964 70.474 244.688 70.8438H244.641L244.586 69.8203H242.984V78ZM256.422 74.0312C256.422 75.276 256.771 76.2891 257.469 77.0703C258.172 77.8464 259.167 78.2344 260.453 78.2344C261.255 78.2344 261.938 78.0677 262.5 77.7344C263.068 77.401 263.482 77.0208 263.742 76.5938L262.57 75.7578C262.352 76.0599 262.065 76.3229 261.711 76.5469C261.357 76.7708 260.932 76.8828 260.438 76.8828C259.672 76.8828 259.102 76.6172 258.727 76.0859C258.352 75.5547 258.164 74.8828 258.164 74.0703V73.7422C258.164 72.9297 258.339 72.2578 258.688 71.7266C259.042 71.1953 259.57 70.9297 260.273 70.9297C260.867 70.9297 261.32 71.1224 261.633 71.5078C261.951 71.888 262.107 72.349 262.102 72.8906V73.0703H257.523V74.3125H263.828V73.6484C263.828 72.3932 263.516 71.4036 262.891 70.6797C262.266 69.9505 261.383 69.5859 260.242 69.5859C259.102 69.5859 258.18 69.9766 257.477 70.7578C256.773 71.5339 256.422 72.5417 256.422 73.7812V74.0312ZM268.438 69.8203L270.93 78H272.43L274.07 72.9297C274.133 72.7318 274.19 72.5312 274.242 72.3281C274.299 72.1198 274.352 71.9167 274.398 71.7188H274.445C274.487 71.9167 274.534 72.1198 274.586 72.3281C274.643 72.5312 274.703 72.7318 274.766 72.9297L276.438 78H277.93L280.43 69.8203H278.875L277.5 74.9375C277.448 75.1458 277.406 75.3229 277.375 75.4688C277.344 75.6146 277.31 75.7865 277.273 75.9844H277.227C277.19 75.7865 277.154 75.6146 277.117 75.4688C277.081 75.3229 277.029 75.1458 276.961 74.9375L275.273 69.8203H273.719L272.086 74.9375C272.018 75.1458 271.969 75.3229 271.938 75.4688C271.906 75.6094 271.872 75.7812 271.836 75.9844H271.789C271.747 75.7812 271.708 75.6094 271.672 75.4688C271.641 75.3229 271.599 75.1458 271.547 74.9375L270.133 69.8203H268.438ZM281.742 78H283.477V69.8203H281.742V78ZM281.562 67.3906C281.562 67.6719 281.651 67.9089 281.828 68.1016C282.01 68.2891 282.271 68.3828 282.609 68.3828C282.948 68.3828 283.208 68.2891 283.391 68.1016C283.573 67.9089 283.664 67.6719 283.664 67.3906C283.664 67.1146 283.573 66.8828 283.391 66.6953C283.208 66.5026 282.948 66.4062 282.609 66.4062C282.271 66.4062 282.01 66.5026 281.828 66.6953C281.651 66.8828 281.562 67.1146 281.562 67.3906ZM284.625 71.1172H289.422V69.8203H284.625V71.1172ZM286.008 75.8359C286.008 76.6641 286.203 77.2708 286.594 77.6562C286.99 78.0365 287.513 78.2266 288.164 78.2266C288.424 78.2266 288.664 78.2031 288.883 78.1562C289.102 78.1094 289.276 78.0573 289.406 78V76.6641C289.276 76.7109 289.143 76.75 289.008 76.7812C288.878 76.8125 288.742 76.8281 288.602 76.8281C288.31 76.8281 288.091 76.7526 287.945 76.6016C287.805 76.4505 287.734 76.1849 287.734 75.8047V67.7891H286.008V70.3203V70.5469V75.8359ZM290.875 78H292.609V72.3359C292.781 71.9505 293.026 71.6432 293.344 71.4141C293.667 71.1797 294.042 71.0625 294.469 71.0625C294.964 71.0625 295.349 71.1953 295.625 71.4609C295.901 71.7214 296.039 72.1589 296.039 72.7734V78H297.766V72.7344C297.766 71.6354 297.518 70.849 297.023 70.375C296.534 69.901 295.906 69.6641 295.141 69.6641C294.589 69.6641 294.096 69.7734 293.664 69.9922C293.232 70.2109 292.88 70.5 292.609 70.8594V66.0391H290.875V78ZM302.672 71.1172H307.469V69.8203H302.672V71.1172ZM304.055 75.8359C304.055 76.6641 304.25 77.2708 304.641 77.6562C305.036 78.0365 305.56 78.2266 306.211 78.2266C306.471 78.2266 306.711 78.2031 306.93 78.1562C307.148 78.1094 307.323 78.0573 307.453 78V76.6641C307.323 76.7109 307.19 76.75 307.055 76.7812C306.924 76.8125 306.789 76.8281 306.648 76.8281C306.357 76.8281 306.138 76.7526 305.992 76.6016C305.852 76.4505 305.781 76.1849 305.781 75.8047V67.7891H304.055V70.3203V70.5469V75.8359ZM308.922 78H310.656V72.3359C310.828 71.9505 311.073 71.6432 311.391 71.4141C311.714 71.1797 312.089 71.0625 312.516 71.0625C313.01 71.0625 313.396 71.1953 313.672 71.4609C313.948 71.7214 314.086 72.1589 314.086 72.7734V78H315.812V72.7344C315.812 71.6354 315.565 70.849 315.07 70.375C314.581 69.901 313.953 69.6641 313.188 69.6641C312.635 69.6641 312.143 69.7734 311.711 69.9922C311.279 70.2109 310.927 70.5 310.656 70.8594V66.0391H308.922V78ZM317.469 74.0312C317.469 75.276 317.818 76.2891 318.516 77.0703C319.219 77.8464 320.214 78.2344 321.5 78.2344C322.302 78.2344 322.984 78.0677 323.547 77.7344C324.115 77.401 324.529 77.0208 324.789 76.5938L323.617 75.7578C323.398 76.0599 323.112 76.3229 322.758 76.5469C322.404 76.7708 321.979 76.8828 321.484 76.8828C320.719 76.8828 320.148 76.6172 319.773 76.0859C319.398 75.5547 319.211 74.8828 319.211 74.0703V73.7422C319.211 72.9297 319.385 72.2578 319.734 71.7266C320.089 71.1953 320.617 70.9297 321.32 70.9297C321.914 70.9297 322.367 71.1224 322.68 71.5078C322.997 71.888 323.154 72.349 323.148 72.8906V73.0703H318.57V74.3125H324.875V73.6484C324.875 72.3932 324.562 71.4036 323.938 70.6797C323.312 69.9505 322.43 69.5859 321.289 69.5859C320.148 69.5859 319.227 69.9766 318.523 70.7578C317.82 71.5339 317.469 72.5417 317.469 73.7812V74.0312ZM107.094 102.258H108.828V98.0781C109.052 98.4062 109.367 98.6693 109.773 98.8672C110.18 99.0599 110.659 99.1562 111.211 99.1562C112.242 99.1562 113.07 98.7734 113.695 98.0078C114.32 97.237 114.633 96.2448 114.633 95.0312V94.7812C114.633 93.5677 114.318 92.5781 113.688 91.8125C113.062 91.0469 112.229 90.6641 111.188 90.6641C110.635 90.6641 110.146 90.7786 109.719 91.0078C109.292 91.237 108.982 91.5156 108.789 91.8438H108.742L108.688 90.8203H107.094V102.258ZM108.828 96.4766V93.3281C108.979 92.9896 109.221 92.6901 109.555 92.4297C109.893 92.1641 110.305 92.0312 110.789 92.0312C111.503 92.0312 112.026 92.2865 112.359 92.7969C112.698 93.3021 112.867 93.9505 112.867 94.7422V95.0781C112.867 95.8698 112.698 96.5208 112.359 97.0312C112.026 97.5365 111.505 97.7891 110.797 97.7891C110.312 97.7891 109.898 97.6562 109.555 97.3906C109.216 97.125 108.974 96.8203 108.828 96.4766ZM115.891 95.0312C115.891 96.276 116.24 97.2891 116.938 98.0703C117.641 98.8464 118.635 99.2344 119.922 99.2344C120.724 99.2344 121.406 99.0677 121.969 98.7344C122.536 98.401 122.951 98.0208 123.211 97.5938L122.039 96.7578C121.82 97.0599 121.534 97.3229 121.18 97.5469C120.826 97.7708 120.401 97.8828 119.906 97.8828C119.141 97.8828 118.57 97.6172 118.195 97.0859C117.82 96.5547 117.633 95.8828 117.633 95.0703V94.7422C117.633 93.9297 117.807 93.2578 118.156 92.7266C118.51 92.1953 119.039 91.9297 119.742 91.9297C120.336 91.9297 120.789 92.1224 121.102 92.5078C121.419 92.888 121.576 93.349 121.57 93.8906V94.0703H116.992V95.3125H123.297V94.6484C123.297 93.3932 122.984 92.4036 122.359 91.6797C121.734 90.9505 120.852 90.5859 119.711 90.5859C118.57 90.5859 117.648 90.9766 116.945 91.7578C116.242 92.5339 115.891 93.5417 115.891 94.7812V95.0312ZM124.484 95.0312C124.484 96.276 124.833 97.2891 125.531 98.0703C126.234 98.8464 127.229 99.2344 128.516 99.2344C129.318 99.2344 130 99.0677 130.562 98.7344C131.13 98.401 131.544 98.0208 131.805 97.5938L130.633 96.7578C130.414 97.0599 130.128 97.3229 129.773 97.5469C129.419 97.7708 128.995 97.8828 128.5 97.8828C127.734 97.8828 127.164 97.6172 126.789 97.0859C126.414 96.5547 126.227 95.8828 126.227 95.0703V94.7422C126.227 93.9297 126.401 93.2578 126.75 92.7266C127.104 92.1953 127.633 91.9297 128.336 91.9297C128.93 91.9297 129.383 92.1224 129.695 92.5078C130.013 92.888 130.169 93.349 130.164 93.8906V94.0703H125.586V95.3125H131.891V94.6484C131.891 93.3932 131.578 92.4036 130.953 91.6797C130.328 90.9505 129.445 90.5859 128.305 90.5859C127.164 90.5859 126.242 90.9766 125.539 91.7578C124.836 92.5339 124.484 93.5417 124.484 94.7812V95.0312ZM133.547 99H135.281V93.4141C135.432 93.0599 135.664 92.7656 135.977 92.5312C136.289 92.2969 136.659 92.1797 137.086 92.1797C137.221 92.1797 137.344 92.1875 137.453 92.2031C137.568 92.2135 137.674 92.2292 137.773 92.25V90.7031C137.721 90.6823 137.635 90.6589 137.516 90.6328C137.396 90.6068 137.279 90.5938 137.164 90.5938C136.732 90.5938 136.354 90.7161 136.031 90.9609C135.708 91.2057 135.448 91.4948 135.25 91.8281H135.211L135.156 90.8203H133.547V99ZM138.586 96.5312V96.5859C138.586 97.4036 138.883 98.0495 139.477 98.5234C140.07 98.9974 140.927 99.2344 142.047 99.2344C143.167 99.2344 144.01 99 144.578 98.5312C145.151 98.0625 145.438 97.4479 145.438 96.6875C145.438 95.9688 145.203 95.4141 144.734 95.0234C144.266 94.6328 143.578 94.3359 142.672 94.1328C141.786 93.9297 141.203 93.7448 140.922 93.5781C140.641 93.4115 140.5 93.1823 140.5 92.8906C140.5 92.6042 140.617 92.3672 140.852 92.1797C141.091 91.9922 141.471 91.8984 141.992 91.8984C142.518 91.8984 142.906 92.0026 143.156 92.2109C143.406 92.4193 143.531 92.7083 143.531 93.0781V93.1641H145.234V93.1094C145.234 92.3333 144.938 91.7188 144.344 91.2656C143.755 90.8125 142.974 90.5859 142 90.5859C141.021 90.5859 140.242 90.8099 139.664 91.2578C139.086 91.7057 138.797 92.2839 138.797 92.9922C138.797 93.6589 139.042 94.1875 139.531 94.5781C140.021 94.9635 140.721 95.2578 141.633 95.4609C142.513 95.6641 143.081 95.8542 143.336 96.0312C143.596 96.2031 143.727 96.4583 143.727 96.7969C143.727 97.1354 143.578 97.4089 143.281 97.6172C142.984 97.8203 142.573 97.9219 142.047 97.9219C141.516 97.9219 141.091 97.8151 140.773 97.6016C140.456 97.3828 140.297 97.0495 140.297 96.6016V96.5312H138.586ZM150.547 95.0312C150.547 96.2865 150.909 97.3021 151.633 98.0781C152.357 98.849 153.318 99.2344 154.516 99.2344C155.714 99.2344 156.674 98.849 157.398 98.0781C158.128 97.3021 158.492 96.2865 158.492 95.0312V94.7812C158.492 93.5312 158.128 92.5208 157.398 91.75C156.674 90.974 155.714 90.5859 154.516 90.5859C153.318 90.5859 152.357 90.974 151.633 91.75C150.909 92.5208 150.547 93.5312 150.547 94.7812V95.0312ZM152.312 94.7422C152.312 93.9245 152.5 93.2578 152.875 92.7422C153.25 92.2214 153.797 91.9609 154.516 91.9609C155.24 91.9609 155.789 92.2214 156.164 92.7422C156.539 93.2578 156.727 93.9245 156.727 94.7422V95.0781C156.727 95.8958 156.539 96.5651 156.164 97.0859C155.789 97.6068 155.24 97.8672 154.516 97.8672C153.792 97.8672 153.242 97.6068 152.867 97.0859C152.497 96.5651 152.312 95.8958 152.312 95.0781V94.7422ZM160.562 99H162.289V91.5234V91.3594V89.8281C162.289 89.3073 162.409 88.9167 162.648 88.6562C162.888 88.3958 163.227 88.2656 163.664 88.2656C163.794 88.2656 163.922 88.276 164.047 88.2969C164.172 88.3125 164.289 88.3307 164.398 88.3516L164.477 87.0078C164.32 86.9661 164.154 86.9349 163.977 86.9141C163.805 86.8932 163.63 86.8828 163.453 86.8828C162.578 86.8828 161.878 87.1302 161.352 87.625C160.826 88.1198 160.562 88.8464 160.562 89.8047V99ZM159.305 92.1172H163.961V90.8203H161.539H161.211H159.305V92.1172ZM168.391 95.0312C168.391 96.2865 168.753 97.3021 169.477 98.0781C170.201 98.849 171.161 99.2344 172.359 99.2344C173.557 99.2344 174.518 98.849 175.242 98.0781C175.971 97.3021 176.336 96.2865 176.336 95.0312V94.7812C176.336 93.5312 175.971 92.5208 175.242 91.75C174.518 90.974 173.557 90.5859 172.359 90.5859C171.161 90.5859 170.201 90.974 169.477 91.75C168.753 92.5208 168.391 93.5312 168.391 94.7812V95.0312ZM170.156 94.7422C170.156 93.9245 170.344 93.2578 170.719 92.7422C171.094 92.2214 171.641 91.9609 172.359 91.9609C173.083 91.9609 173.633 92.2214 174.008 92.7422C174.383 93.2578 174.57 93.9245 174.57 94.7422V95.0781C174.57 95.8958 174.383 96.5651 174.008 97.0859C173.633 97.6068 173.083 97.8672 172.359 97.8672C171.635 97.8672 171.086 97.6068 170.711 97.0859C170.341 96.5651 170.156 95.8958 170.156 95.0781V94.7422ZM177.984 96.0156C177.984 97.1458 178.234 97.9531 178.734 98.4375C179.234 98.9167 179.896 99.1562 180.719 99.1562C181.24 99.1562 181.711 99.0521 182.133 98.8438C182.56 98.6354 182.911 98.349 183.188 97.9844H183.234L183.289 99H184.891V90.8203H183.156V96.5078C182.979 96.8724 182.727 97.1745 182.398 97.4141C182.07 97.6484 181.693 97.7656 181.266 97.7656C180.776 97.7656 180.396 97.6354 180.125 97.375C179.854 97.1146 179.719 96.6719 179.719 96.0469V90.8203H177.984V96.0156ZM187.078 99H188.812V93.4141C188.964 93.0599 189.195 92.7656 189.508 92.5312C189.82 92.2969 190.19 92.1797 190.617 92.1797C190.753 92.1797 190.875 92.1875 190.984 92.2031C191.099 92.2135 191.206 92.2292 191.305 92.25V90.7031C191.253 90.6823 191.167 90.6589 191.047 90.6328C190.927 90.6068 190.81 90.5938 190.695 90.5938C190.263 90.5938 189.885 90.7161 189.562 90.9609C189.24 91.2057 188.979 91.4948 188.781 91.8281H188.742L188.688 90.8203H187.078V99ZM196.547 99H198.281V87.0391H196.547V99ZM200.078 96.5938C200.078 97.4323 200.349 98.0703 200.891 98.5078C201.432 98.9401 202.096 99.1562 202.883 99.1562C203.555 99.1562 204.109 99.0286 204.547 98.7734C204.984 98.5182 205.292 98.2266 205.469 97.8984C205.49 98.0964 205.526 98.2995 205.578 98.5078C205.635 98.7109 205.698 98.875 205.766 99H207.453V98.875C207.359 98.651 207.284 98.3906 207.227 98.0938C207.174 97.7917 207.148 97.474 207.148 97.1406V93.3984C207.148 92.4557 206.865 91.7526 206.297 91.2891C205.729 90.8255 204.935 90.5938 203.914 90.5938C202.893 90.5938 202.076 90.8333 201.461 91.3125C200.852 91.7917 200.547 92.3698 200.547 93.0469V93.125H202.258V93.0547C202.258 92.737 202.38 92.4609 202.625 92.2266C202.87 91.9922 203.279 91.875 203.852 91.875C204.43 91.875 204.833 92.0156 205.062 92.2969C205.297 92.5781 205.414 92.9427 205.414 93.3906V93.9297H203.648C202.612 93.9297 201.758 94.1615 201.086 94.625C200.414 95.0833 200.078 95.7396 200.078 96.5938ZM201.812 96.4766C201.812 96.0391 201.984 95.6979 202.328 95.4531C202.672 95.2031 203.185 95.0781 203.867 95.0781H205.414V96.1172C205.414 96.5547 205.206 96.9557 204.789 97.3203C204.378 97.6849 203.898 97.8672 203.352 97.8672C202.826 97.8672 202.438 97.7448 202.188 97.5C201.938 97.25 201.812 96.9089 201.812 96.4766ZM209.328 99H211.062V93.4141C211.214 93.0599 211.445 92.7656 211.758 92.5312C212.07 92.2969 212.44 92.1797 212.867 92.1797C213.003 92.1797 213.125 92.1875 213.234 92.2031C213.349 92.2135 213.456 92.2292 213.555 92.25V90.7031C213.503 90.6823 213.417 90.6589 213.297 90.6328C213.177 90.6068 213.06 90.5938 212.945 90.5938C212.513 90.5938 212.135 90.7161 211.812 90.9609C211.49 91.2057 211.229 91.4948 211.031 91.8281H210.992L210.938 90.8203H209.328V99ZM214.617 101.25C215.008 101.583 215.492 101.859 216.07 102.078C216.654 102.297 217.289 102.406 217.977 102.406C219.096 102.406 220.01 102.089 220.719 101.453C221.427 100.818 221.781 99.9036 221.781 98.7109V90.8203H220.18L220.125 91.8438H220.086C219.888 91.5156 219.576 91.237 219.148 91.0078C218.727 90.7786 218.242 90.6641 217.695 90.6641C216.648 90.6641 215.812 91.0495 215.188 91.8203C214.562 92.5859 214.25 93.5755 214.25 94.7891V95.0391C214.25 96.2474 214.562 97.2344 215.188 98C215.818 98.7656 216.651 99.1484 217.688 99.1484C218.245 99.1484 218.721 99.0521 219.117 98.8594C219.518 98.6615 219.831 98.3984 220.055 98.0703V98.7422C220.055 99.4766 219.859 100.036 219.469 100.422C219.083 100.807 218.562 101 217.906 101C217.385 101 216.914 100.901 216.492 100.703C216.07 100.505 215.753 100.289 215.539 100.055L214.617 101.25ZM216.016 95.0703V94.75C216.016 93.9688 216.185 93.3203 216.523 92.8047C216.862 92.2891 217.388 92.0312 218.102 92.0312C218.581 92.0312 218.987 92.1641 219.32 92.4297C219.659 92.6901 219.904 93 220.055 93.3594V96.4766C219.909 96.8203 219.667 97.125 219.328 97.3906C218.995 97.6562 218.589 97.7891 218.109 97.7891C217.391 97.7891 216.862 97.5312 216.523 97.0156C216.185 96.5 216.016 95.8516 216.016 95.0703ZM223.516 95.0312C223.516 96.276 223.865 97.2891 224.562 98.0703C225.266 98.8464 226.26 99.2344 227.547 99.2344C228.349 99.2344 229.031 99.0677 229.594 98.7344C230.161 98.401 230.576 98.0208 230.836 97.5938L229.664 96.7578C229.445 97.0599 229.159 97.3229 228.805 97.5469C228.451 97.7708 228.026 97.8828 227.531 97.8828C226.766 97.8828 226.195 97.6172 225.82 97.0859C225.445 96.5547 225.258 95.8828 225.258 95.0703V94.7422C225.258 93.9297 225.432 93.2578 225.781 92.7266C226.135 92.1953 226.664 91.9297 227.367 91.9297C227.961 91.9297 228.414 92.1224 228.727 92.5078C229.044 92.888 229.201 93.349 229.195 93.8906V94.0703H224.617V95.3125H230.922V94.6484C230.922 93.3932 230.609 92.4036 229.984 91.6797C229.359 90.9505 228.477 90.5859 227.336 90.5859C226.195 90.5859 225.273 90.9766 224.57 91.7578C223.867 92.5339 223.516 93.5417 223.516 94.7812V95.0312ZM232.07 96.5312V96.5859C232.07 97.4036 232.367 98.0495 232.961 98.5234C233.555 98.9974 234.411 99.2344 235.531 99.2344C236.651 99.2344 237.495 99 238.062 98.5312C238.635 98.0625 238.922 97.4479 238.922 96.6875C238.922 95.9688 238.688 95.4141 238.219 95.0234C237.75 94.6328 237.062 94.3359 236.156 94.1328C235.271 93.9297 234.688 93.7448 234.406 93.5781C234.125 93.4115 233.984 93.1823 233.984 92.8906C233.984 92.6042 234.102 92.3672 234.336 92.1797C234.576 91.9922 234.956 91.8984 235.477 91.8984C236.003 91.8984 236.391 92.0026 236.641 92.2109C236.891 92.4193 237.016 92.7083 237.016 93.0781V93.1641H238.719V93.1094C238.719 92.3333 238.422 91.7188 237.828 91.2656C237.24 90.8125 236.458 90.5859 235.484 90.5859C234.505 90.5859 233.727 90.8099 233.148 91.2578C232.57 91.7057 232.281 92.2839 232.281 92.9922C232.281 93.6589 232.526 94.1875 233.016 94.5781C233.505 94.9635 234.206 95.2578 235.117 95.4609C235.997 95.6641 236.565 95.8542 236.82 96.0312C237.081 96.2031 237.211 96.4583 237.211 96.7969C237.211 97.1354 237.062 97.4089 236.766 97.6172C236.469 97.8203 236.057 97.9219 235.531 97.9219C235 97.9219 234.576 97.8151 234.258 97.6016C233.94 97.3828 233.781 97.0495 233.781 96.6016V96.5312H232.07ZM239.531 92.1172H244.328V90.8203H239.531V92.1172ZM240.914 96.8359C240.914 97.6641 241.109 98.2708 241.5 98.6562C241.896 99.0365 242.419 99.2266 243.07 99.2266C243.331 99.2266 243.57 99.2031 243.789 99.1562C244.008 99.1094 244.182 99.0573 244.312 99V97.6641C244.182 97.7109 244.049 97.75 243.914 97.7812C243.784 97.8125 243.648 97.8281 243.508 97.8281C243.216 97.8281 242.997 97.7526 242.852 97.6016C242.711 97.4505 242.641 97.1849 242.641 96.8047V88.7891H240.914V91.3203V91.5469V96.8359ZM249.188 95.0312C249.188 96.276 249.536 97.2891 250.234 98.0703C250.938 98.8464 251.932 99.2344 253.219 99.2344C254.021 99.2344 254.703 99.0677 255.266 98.7344C255.833 98.401 256.247 98.0208 256.508 97.5938L255.336 96.7578C255.117 97.0599 254.831 97.3229 254.477 97.5469C254.122 97.7708 253.698 97.8828 253.203 97.8828C252.438 97.8828 251.867 97.6172 251.492 97.0859C251.117 96.5547 250.93 95.8828 250.93 95.0703V94.7422C250.93 93.9297 251.104 93.2578 251.453 92.7266C251.807 92.1953 252.336 91.9297 253.039 91.9297C253.633 91.9297 254.086 92.1224 254.398 92.5078C254.716 92.888 254.872 93.349 254.867 93.8906V94.0703H250.289V95.3125H256.594V94.6484C256.594 93.3932 256.281 92.4036 255.656 91.6797C255.031 90.9505 254.148 90.5859 253.008 90.5859C251.867 90.5859 250.945 90.9766 250.242 91.7578C249.539 92.5339 249.188 93.5417 249.188 94.7812V95.0312ZM257.266 99H259.078L261.516 95.2812H261.695L264.648 90.8203H262.836L260.57 94.4141L260.391 94.4219L257.266 99ZM257.445 90.8203L260.422 95.2734L260.484 95.2812L262.898 99H264.867L261.75 94.4219L261.695 94.4141L259.414 90.8203H257.445ZM265.484 95.0312C265.484 96.276 265.833 97.2891 266.531 98.0703C267.234 98.8464 268.229 99.2344 269.516 99.2344C270.318 99.2344 271 99.0677 271.562 98.7344C272.13 98.401 272.544 98.0208 272.805 97.5938L271.633 96.7578C271.414 97.0599 271.128 97.3229 270.773 97.5469C270.419 97.7708 269.995 97.8828 269.5 97.8828C268.734 97.8828 268.164 97.6172 267.789 97.0859C267.414 96.5547 267.227 95.8828 267.227 95.0703V94.7422C267.227 93.9297 267.401 93.2578 267.75 92.7266C268.104 92.1953 268.633 91.9297 269.336 91.9297C269.93 91.9297 270.383 92.1224 270.695 92.5078C271.013 92.888 271.169 93.349 271.164 93.8906V94.0703H266.586V95.3125H272.891V94.6484C272.891 93.3932 272.578 92.4036 271.953 91.6797C271.328 90.9505 270.445 90.5859 269.305 90.5859C268.164 90.5859 267.242 90.9766 266.539 91.7578C265.836 92.5339 265.484 93.5417 265.484 94.7812V95.0312ZM274.078 95.0312C274.078 96.2865 274.427 97.3021 275.125 98.0781C275.828 98.849 276.779 99.2344 277.977 99.2344C279.102 99.2344 279.958 98.9375 280.547 98.3438C281.141 97.75 281.438 97.0729 281.438 96.3125V96.25H279.758V96.3047C279.758 96.7214 279.617 97.0885 279.336 97.4062C279.06 97.7188 278.604 97.875 277.969 97.875C277.245 97.875 276.708 97.612 276.359 97.0859C276.016 96.5547 275.844 95.8854 275.844 95.0781V94.7422C275.844 93.9349 276.018 93.2682 276.367 92.7422C276.716 92.2109 277.25 91.9453 277.969 91.9453C278.589 91.9453 279.042 92.099 279.328 92.4062C279.615 92.7135 279.758 93.0807 279.758 93.5078V93.5703H281.438V93.4922C281.422 92.7318 281.12 92.0573 280.531 91.4688C279.948 90.8802 279.096 90.5859 277.977 90.5859C276.773 90.5859 275.823 90.974 275.125 91.75C274.427 92.5208 274.078 93.5312 274.078 94.7812V95.0312ZM282.938 96.0156C282.938 97.1458 283.188 97.9531 283.688 98.4375C284.188 98.9167 284.849 99.1562 285.672 99.1562C286.193 99.1562 286.664 99.0521 287.086 98.8438C287.513 98.6354 287.865 98.349 288.141 97.9844H288.188L288.242 99H289.844V90.8203H288.109V96.5078C287.932 96.8724 287.68 97.1745 287.352 97.4141C287.023 97.6484 286.646 97.7656 286.219 97.7656C285.729 97.7656 285.349 97.6354 285.078 97.375C284.807 97.1146 284.672 96.6719 284.672 96.0469V90.8203H282.938V96.0156ZM290.938 92.1172H295.734V90.8203H290.938V92.1172ZM292.32 96.8359C292.32 97.6641 292.516 98.2708 292.906 98.6562C293.302 99.0365 293.826 99.2266 294.477 99.2266C294.737 99.2266 294.977 99.2031 295.195 99.1562C295.414 99.1094 295.589 99.0573 295.719 99V97.6641C295.589 97.7109 295.456 97.75 295.32 97.7812C295.19 97.8125 295.055 97.8281 294.914 97.8281C294.622 97.8281 294.404 97.7526 294.258 97.6016C294.117 97.4505 294.047 97.1849 294.047 96.8047V88.7891H292.32V91.3203V91.5469V96.8359ZM297.242 99H298.977V90.8203H297.242V99ZM297.062 88.3906C297.062 88.6719 297.151 88.9089 297.328 89.1016C297.51 89.2891 297.771 89.3828 298.109 89.3828C298.448 89.3828 298.708 89.2891 298.891 89.1016C299.073 88.9089 299.164 88.6719 299.164 88.3906C299.164 88.1146 299.073 87.8828 298.891 87.6953C298.708 87.5026 298.448 87.4062 298.109 87.4062C297.771 87.4062 297.51 87.5026 297.328 87.6953C297.151 87.8828 297.062 88.1146 297.062 88.3906ZM300.086 90.8203L303.195 99H304.633L307.742 90.8203H306.141L304.266 96.0703C304.198 96.2734 304.141 96.4635 304.094 96.6406C304.052 96.8125 304.021 96.9583 304 97.0781H303.945C303.924 96.9583 303.891 96.8125 303.844 96.6406C303.802 96.4635 303.747 96.2734 303.68 96.0703L301.797 90.8203H300.086ZM308.219 95.0312C308.219 96.276 308.568 97.2891 309.266 98.0703C309.969 98.8464 310.964 99.2344 312.25 99.2344C313.052 99.2344 313.734 99.0677 314.297 98.7344C314.865 98.401 315.279 98.0208 315.539 97.5938L314.367 96.7578C314.148 97.0599 313.862 97.3229 313.508 97.5469C313.154 97.7708 312.729 97.8828 312.234 97.8828C311.469 97.8828 310.898 97.6172 310.523 97.0859C310.148 96.5547 309.961 95.8828 309.961 95.0703V94.7422C309.961 93.9297 310.135 93.2578 310.484 92.7266C310.839 92.1953 311.367 91.9297 312.07 91.9297C312.664 91.9297 313.117 92.1224 313.43 92.5078C313.747 92.888 313.904 93.349 313.898 93.8906V94.0703H309.32V95.3125H315.625V94.6484C315.625 93.3932 315.312 92.4036 314.688 91.6797C314.062 90.9505 313.18 90.5859 312.039 90.5859C310.898 90.5859 309.977 90.9766 309.273 91.7578C308.57 92.5339 308.219 93.5417 308.219 94.7812V95.0312ZM107.094 120H108.828V114.312C109.005 113.938 109.26 113.635 109.594 113.406C109.927 113.177 110.302 113.062 110.719 113.062C111.214 113.062 111.594 113.193 111.859 113.453C112.13 113.708 112.266 114.138 112.266 114.742V120H114V114.766C114 113.641 113.747 112.844 113.242 112.375C112.742 111.901 112.078 111.664 111.25 111.664C110.734 111.664 110.263 111.771 109.836 111.984C109.409 112.193 109.062 112.477 108.797 112.836H108.75L108.695 111.82H107.094V120ZM115.641 116.031C115.641 117.276 115.99 118.289 116.688 119.07C117.391 119.846 118.385 120.234 119.672 120.234C120.474 120.234 121.156 120.068 121.719 119.734C122.286 119.401 122.701 119.021 122.961 118.594L121.789 117.758C121.57 118.06 121.284 118.323 120.93 118.547C120.576 118.771 120.151 118.883 119.656 118.883C118.891 118.883 118.32 118.617 117.945 118.086C117.57 117.555 117.383 116.883 117.383 116.07V115.742C117.383 114.93 117.557 114.258 117.906 113.727C118.26 113.195 118.789 112.93 119.492 112.93C120.086 112.93 120.539 113.122 120.852 113.508C121.169 113.888 121.326 114.349 121.32 114.891V115.07H116.742V116.312H123.047V115.648C123.047 114.393 122.734 113.404 122.109 112.68C121.484 111.951 120.602 111.586 119.461 111.586C118.32 111.586 117.398 111.977 116.695 112.758C115.992 113.534 115.641 114.542 115.641 115.781V116.031ZM123.609 113.117H128.406V111.82H123.609V113.117ZM124.992 117.836C124.992 118.664 125.188 119.271 125.578 119.656C125.974 120.036 126.497 120.227 127.148 120.227C127.409 120.227 127.648 120.203 127.867 120.156C128.086 120.109 128.26 120.057 128.391 120V118.664C128.26 118.711 128.128 118.75 127.992 118.781C127.862 118.812 127.727 118.828 127.586 118.828C127.294 118.828 127.076 118.753 126.93 118.602C126.789 118.451 126.719 118.185 126.719 117.805V109.789H124.992V112.32V112.547V117.836ZM128.938 111.82L131.43 120H132.93L134.57 114.93C134.633 114.732 134.69 114.531 134.742 114.328C134.799 114.12 134.852 113.917 134.898 113.719H134.945C134.987 113.917 135.034 114.12 135.086 114.328C135.143 114.531 135.203 114.732 135.266 114.93L136.938 120H138.43L140.93 111.82H139.375L138 116.938C137.948 117.146 137.906 117.323 137.875 117.469C137.844 117.615 137.81 117.786 137.773 117.984H137.727C137.69 117.786 137.654 117.615 137.617 117.469C137.581 117.323 137.529 117.146 137.461 116.938L135.773 111.82H134.219L132.586 116.938C132.518 117.146 132.469 117.323 132.438 117.469C132.406 117.609 132.372 117.781 132.336 117.984H132.289C132.247 117.781 132.208 117.609 132.172 117.469C132.141 117.323 132.099 117.146 132.047 116.938L130.633 111.82H128.938ZM141.719 116.031C141.719 117.286 142.081 118.302 142.805 119.078C143.529 119.849 144.49 120.234 145.688 120.234C146.885 120.234 147.846 119.849 148.57 119.078C149.299 118.302 149.664 117.286 149.664 116.031V115.781C149.664 114.531 149.299 113.521 148.57 112.75C147.846 111.974 146.885 111.586 145.688 111.586C144.49 111.586 143.529 111.974 142.805 112.75C142.081 113.521 141.719 114.531 141.719 115.781V116.031ZM143.484 115.742C143.484 114.924 143.672 114.258 144.047 113.742C144.422 113.221 144.969 112.961 145.688 112.961C146.411 112.961 146.961 113.221 147.336 113.742C147.711 114.258 147.898 114.924 147.898 115.742V116.078C147.898 116.896 147.711 117.565 147.336 118.086C146.961 118.607 146.411 118.867 145.688 118.867C144.964 118.867 144.414 118.607 144.039 118.086C143.669 117.565 143.484 116.896 143.484 116.078V115.742ZM151.391 120H153.125V114.414C153.276 114.06 153.508 113.766 153.82 113.531C154.133 113.297 154.503 113.18 154.93 113.18C155.065 113.18 155.188 113.188 155.297 113.203C155.411 113.214 155.518 113.229 155.617 113.25V111.703C155.565 111.682 155.479 111.659 155.359 111.633C155.24 111.607 155.122 111.594 155.008 111.594C154.576 111.594 154.198 111.716 153.875 111.961C153.552 112.206 153.292 112.495 153.094 112.828H153.055L153 111.82H151.391V120ZM156.938 120H158.672V117.32L163.836 111.82H161.898L158.672 115.297V108.039H156.938V120ZM162.172 120H164.203L160.203 114.695L159.109 115.898L162.172 120ZM165.727 119.07C165.727 119.372 165.826 119.633 166.023 119.852C166.221 120.065 166.508 120.172 166.883 120.172C167.253 120.172 167.536 120.065 167.734 119.852C167.938 119.638 168.039 119.378 168.039 119.07C168.039 118.763 167.94 118.503 167.742 118.289C167.544 118.076 167.258 117.969 166.883 117.969C166.508 117.969 166.221 118.076 166.023 118.289C165.826 118.503 165.727 118.763 165.727 119.07ZM173.055 120H174.781L177.836 111.57C177.898 111.393 177.951 111.224 177.992 111.062C178.039 110.901 178.081 110.737 178.117 110.57H178.188C178.224 110.737 178.263 110.901 178.305 111.062C178.352 111.224 178.406 111.393 178.469 111.57L181.508 120H183.391L179.078 108.555H177.336L173.055 120ZM175.086 117.18H181.273L180.797 115.781H175.57L175.086 117.18ZM184.422 120H186.156V114.312C186.333 113.938 186.589 113.635 186.922 113.406C187.255 113.177 187.63 113.062 188.047 113.062C188.542 113.062 188.922 113.193 189.188 113.453C189.458 113.708 189.594 114.138 189.594 114.742V120H191.328V114.766C191.328 113.641 191.076 112.844 190.57 112.375C190.07 111.901 189.406 111.664 188.578 111.664C188.062 111.664 187.591 111.771 187.164 111.984C186.737 112.193 186.391 112.477 186.125 112.836H186.078L186.023 111.82H184.422V120ZM192.969 116.039C192.969 117.237 193.279 118.224 193.898 119C194.523 119.771 195.367 120.156 196.43 120.156C196.982 120.156 197.466 120.042 197.883 119.812C198.299 119.583 198.607 119.302 198.805 118.969H198.852L198.906 120H200.508V108.039H198.781V112.742C198.552 112.419 198.24 112.159 197.844 111.961C197.453 111.763 196.982 111.664 196.43 111.664C195.388 111.664 194.549 112.052 193.914 112.828C193.284 113.599 192.969 114.586 192.969 115.789V116.039ZM194.734 116.07V115.75C194.734 114.969 194.904 114.32 195.242 113.805C195.586 113.289 196.112 113.031 196.82 113.031C197.31 113.031 197.721 113.161 198.055 113.422C198.388 113.682 198.628 113.984 198.773 114.328V117.492C198.622 117.831 198.378 118.133 198.039 118.398C197.706 118.659 197.299 118.789 196.82 118.789C196.107 118.789 195.581 118.531 195.242 118.016C194.904 117.5 194.734 116.852 194.734 116.07ZM206.477 122.25C206.867 122.583 207.352 122.859 207.93 123.078C208.513 123.297 209.148 123.406 209.836 123.406C210.956 123.406 211.87 123.089 212.578 122.453C213.286 121.818 213.641 120.904 213.641 119.711V111.82H212.039L211.984 112.844H211.945C211.747 112.516 211.435 112.237 211.008 112.008C210.586 111.779 210.102 111.664 209.555 111.664C208.508 111.664 207.672 112.049 207.047 112.82C206.422 113.586 206.109 114.576 206.109 115.789V116.039C206.109 117.247 206.422 118.234 207.047 119C207.677 119.766 208.51 120.148 209.547 120.148C210.104 120.148 210.581 120.052 210.977 119.859C211.378 119.661 211.69 119.398 211.914 119.07V119.742C211.914 120.477 211.719 121.036 211.328 121.422C210.943 121.807 210.422 122 209.766 122C209.245 122 208.773 121.901 208.352 121.703C207.93 121.505 207.612 121.289 207.398 121.055L206.477 122.25ZM207.875 116.07V115.75C207.875 114.969 208.044 114.32 208.383 113.805C208.721 113.289 209.247 113.031 209.961 113.031C210.44 113.031 210.846 113.164 211.18 113.43C211.518 113.69 211.763 114 211.914 114.359V117.477C211.768 117.82 211.526 118.125 211.188 118.391C210.854 118.656 210.448 118.789 209.969 118.789C209.25 118.789 208.721 118.531 208.383 118.016C208.044 117.5 207.875 116.852 207.875 116.07ZM215.375 116.031C215.375 117.276 215.724 118.289 216.422 119.07C217.125 119.846 218.12 120.234 219.406 120.234C220.208 120.234 220.891 120.068 221.453 119.734C222.021 119.401 222.435 119.021 222.695 118.594L221.523 117.758C221.305 118.06 221.018 118.323 220.664 118.547C220.31 118.771 219.885 118.883 219.391 118.883C218.625 118.883 218.055 118.617 217.68 118.086C217.305 117.555 217.117 116.883 217.117 116.07V115.742C217.117 114.93 217.292 114.258 217.641 113.727C217.995 113.195 218.523 112.93 219.227 112.93C219.82 112.93 220.273 113.122 220.586 113.508C220.904 113.888 221.06 114.349 221.055 114.891V115.07H216.477V116.312H222.781V115.648C222.781 114.393 222.469 113.404 221.844 112.68C221.219 111.951 220.336 111.586 219.195 111.586C218.055 111.586 217.133 111.977 216.43 112.758C215.727 113.534 215.375 114.542 215.375 115.781V116.031ZM223.344 113.117H228.141V111.82H223.344V113.117ZM224.727 117.836C224.727 118.664 224.922 119.271 225.312 119.656C225.708 120.036 226.232 120.227 226.883 120.227C227.143 120.227 227.383 120.203 227.602 120.156C227.82 120.109 227.995 120.057 228.125 120V118.664C227.995 118.711 227.862 118.75 227.727 118.781C227.596 118.812 227.461 118.828 227.32 118.828C227.029 118.828 226.81 118.753 226.664 118.602C226.523 118.451 226.453 118.185 226.453 117.805V109.789H224.727V112.32V112.547V117.836ZM233.469 120H235.07L235.125 118.984H235.172C235.37 119.312 235.682 119.591 236.109 119.82C236.542 120.044 237.034 120.156 237.586 120.156C238.628 120.156 239.458 119.771 240.078 119C240.698 118.224 241.008 117.234 241.008 116.031V115.781C241.008 114.578 240.698 113.591 240.078 112.82C239.458 112.049 238.628 111.664 237.586 111.664C237.039 111.664 236.565 111.763 236.164 111.961C235.768 112.154 235.448 112.417 235.203 112.75V108.039H233.469V120ZM235.203 117.469V114.352C235.349 114.008 235.589 113.703 235.922 113.438C236.26 113.167 236.674 113.031 237.164 113.031C237.883 113.031 238.409 113.289 238.742 113.805C239.076 114.32 239.242 114.969 239.242 115.75V116.07C239.242 116.846 239.073 117.495 238.734 118.016C238.401 118.531 237.88 118.789 237.172 118.789C236.677 118.789 236.26 118.656 235.922 118.391C235.589 118.12 235.349 117.812 235.203 117.469ZM242.266 116.031C242.266 117.276 242.615 118.289 243.312 119.07C244.016 119.846 245.01 120.234 246.297 120.234C247.099 120.234 247.781 120.068 248.344 119.734C248.911 119.401 249.326 119.021 249.586 118.594L248.414 117.758C248.195 118.06 247.909 118.323 247.555 118.547C247.201 118.771 246.776 118.883 246.281 118.883C245.516 118.883 244.945 118.617 244.57 118.086C244.195 117.555 244.008 116.883 244.008 116.07V115.742C244.008 114.93 244.182 114.258 244.531 113.727C244.885 113.195 245.414 112.93 246.117 112.93C246.711 112.93 247.164 113.122 247.477 113.508C247.794 113.888 247.951 114.349 247.945 114.891V115.07H243.367V116.312H249.672V115.648C249.672 114.393 249.359 113.404 248.734 112.68C248.109 111.951 247.227 111.586 246.086 111.586C244.945 111.586 244.023 111.977 243.32 112.758C242.617 113.534 242.266 114.542 242.266 115.781V116.031ZM250.234 113.117H255.031V111.82H250.234V113.117ZM251.617 117.836C251.617 118.664 251.812 119.271 252.203 119.656C252.599 120.036 253.122 120.227 253.773 120.227C254.034 120.227 254.273 120.203 254.492 120.156C254.711 120.109 254.885 120.057 255.016 120V118.664C254.885 118.711 254.753 118.75 254.617 118.781C254.487 118.812 254.352 118.828 254.211 118.828C253.919 118.828 253.701 118.753 253.555 118.602C253.414 118.451 253.344 118.185 253.344 117.805V109.789H251.617V112.32V112.547V117.836ZM255.391 113.117H260.188V111.82H255.391V113.117ZM256.773 117.836C256.773 118.664 256.969 119.271 257.359 119.656C257.755 120.036 258.279 120.227 258.93 120.227C259.19 120.227 259.43 120.203 259.648 120.156C259.867 120.109 260.042 120.057 260.172 120V118.664C260.042 118.711 259.909 118.75 259.773 118.781C259.643 118.812 259.508 118.828 259.367 118.828C259.076 118.828 258.857 118.753 258.711 118.602C258.57 118.451 258.5 118.185 258.5 117.805V109.789H256.773V112.32V112.547V117.836ZM261.172 116.031C261.172 117.276 261.521 118.289 262.219 119.07C262.922 119.846 263.917 120.234 265.203 120.234C266.005 120.234 266.688 120.068 267.25 119.734C267.818 119.401 268.232 119.021 268.492 118.594L267.32 117.758C267.102 118.06 266.815 118.323 266.461 118.547C266.107 118.771 265.682 118.883 265.188 118.883C264.422 118.883 263.852 118.617 263.477 118.086C263.102 117.555 262.914 116.883 262.914 116.07V115.742C262.914 114.93 263.089 114.258 263.438 113.727C263.792 113.195 264.32 112.93 265.023 112.93C265.617 112.93 266.07 113.122 266.383 113.508C266.701 113.888 266.857 114.349 266.852 114.891V115.07H262.273V116.312H268.578V115.648C268.578 114.393 268.266 113.404 267.641 112.68C267.016 111.951 266.133 111.586 264.992 111.586C263.852 111.586 262.93 111.977 262.227 112.758C261.523 113.534 261.172 114.542 261.172 115.781V116.031ZM270.234 120H271.969V114.414C272.12 114.06 272.352 113.766 272.664 113.531C272.977 113.297 273.346 113.18 273.773 113.18C273.909 113.18 274.031 113.188 274.141 113.203C274.255 113.214 274.362 113.229 274.461 113.25V111.703C274.409 111.682 274.323 111.659 274.203 111.633C274.083 111.607 273.966 111.594 273.852 111.594C273.419 111.594 273.042 111.716 272.719 111.961C272.396 112.206 272.135 112.495 271.938 112.828H271.898L271.844 111.82H270.234V120ZM274.914 119.07C274.914 119.372 275.013 119.633 275.211 119.852C275.409 120.065 275.695 120.172 276.07 120.172C276.44 120.172 276.724 120.065 276.922 119.852C277.125 119.638 277.227 119.378 277.227 119.07C277.227 118.763 277.128 118.503 276.93 118.289C276.732 118.076 276.445 117.969 276.07 117.969C275.695 117.969 275.409 118.076 275.211 118.289C275.013 118.503 274.914 118.763 274.914 119.07Z" fill="#2D3130"/>
</g>
<defs>
<filter id="filter0_d_337_2" x="0" y="0" width="432" height="195" filterUnits="userSpaceOnUse" color-interpolation-filters="sRGB">
<feFlood flood-opacity="0" result="BackgroundImageFix"/>
<feColorMatrix in="SourceAlpha" type="matrix" values="0 0 0 0 0 0 0 0 0 0 0 0 0 0 0 0 0 0 127 0" result="hardAlpha"/>
<feOffset dy="4"/>
<feGaussianBlur stdDeviation="25"/>
<feComposite in2="hardAlpha" operator="out"/>
<feColorMatrix type="matrix" values="0 0 0 0 0 0 0 0 0 0 0 0 0 0 0 0 0 0 0.2 0"/>
<feBlend mode="normal" in2="BackgroundImageFix" result="effect1_dropShadow_337_2"/>
<feBlend mode="normal" in="SourceGraphic" in2="effect1_dropShadow_337_2" result="shape"/>
</filter>
</defs>
</svg>
