<svg width="445" height="227" viewBox="0 0 445 227" fill="none" xmlns="http://www.w3.org/2000/svg">
<g filter="url(#filter0_d_194_2666)">
<rect x="40" y="28" width="365" height="155" rx="10" fill="white"/>
</g>
<path d="M53.2266 80H60.4141V78.3672H55.3281V68.625H53.2266V80ZM61.3438 76.0312C61.3438 77.2865 61.7083 78.3021 62.4375 79.0781C63.1667 79.849 64.1849 80.2344 65.4922 80.2344C66.3203 80.2344 67.0286 80.0703 67.6172 79.7422C68.2109 79.4089 68.638 79.0104 68.8984 78.5469L67.4844 77.6016C67.276 77.8932 67.0026 78.1484 66.6641 78.3672C66.3307 78.5859 65.9323 78.6953 65.4688 78.6953C64.7708 78.6953 64.2474 78.4557 63.8984 77.9766C63.5495 77.4974 63.375 76.875 63.375 76.1094V75.6875C63.375 74.9167 63.5365 74.2917 63.8594 73.8125C64.1875 73.3333 64.6719 73.0938 65.3125 73.0938C65.8542 73.0938 66.2708 73.2656 66.5625 73.6094C66.8542 73.9531 67 74.375 67 74.875V75.0469H62.6797V76.3906H69.0156V75.6406C69.0156 74.3802 68.6875 73.388 68.0312 72.6641C67.375 71.9401 66.4635 71.5781 65.2969 71.5781C64.1302 71.5781 63.1797 71.9661 62.4453 72.7422C61.7109 73.513 61.3438 74.526 61.3438 75.7812V76.0312ZM70.1562 77.5938C70.1562 78.4375 70.4271 79.0755 70.9688 79.5078C71.5104 79.9349 72.1771 80.1484 72.9688 80.1484C73.6458 80.1484 74.2057 80.026 74.6484 79.7812C75.0911 79.5312 75.3958 79.2474 75.5625 78.9297C75.5833 79.1224 75.6198 79.3177 75.6719 79.5156C75.724 79.7135 75.7812 79.875 75.8438 80H77.8359V79.875C77.737 79.6562 77.6589 79.3984 77.6016 79.1016C77.5443 78.7995 77.5156 78.4818 77.5156 78.1484V74.3984C77.5156 73.4453 77.2188 72.7396 76.625 72.2812C76.0312 71.8177 75.2031 71.5859 74.1406 71.5859C73.0833 71.5859 72.2292 71.8255 71.5781 72.3047C70.9271 72.7839 70.6016 73.3776 70.6016 74.0859V74.1875H72.6094V74.0859C72.6094 73.7891 72.7188 73.5365 72.9375 73.3281C73.1615 73.1198 73.5365 73.0156 74.0625 73.0156C74.5885 73.0156 74.9557 73.1432 75.1641 73.3984C75.3776 73.6484 75.4844 73.9792 75.4844 74.3906V74.8828H73.7969C72.7448 74.888 71.875 75.1198 71.1875 75.5781C70.5 76.0365 70.1562 76.7083 70.1562 77.5938ZM72.1875 77.4297C72.1875 77.0286 72.3438 76.7161 72.6562 76.4922C72.9688 76.2682 73.4427 76.1562 74.0781 76.1562H75.4844V77.0703C75.4844 77.5026 75.2995 77.888 74.9297 78.2266C74.5651 78.5599 74.125 78.7266 73.6094 78.7266C73.1198 78.7266 72.7604 78.6094 72.5312 78.375C72.3021 78.1406 72.1875 77.8255 72.1875 77.4297ZM79.625 80H81.6641V74.5781C81.8047 74.2396 82.0234 73.9609 82.3203 73.7422C82.6224 73.5182 82.9688 73.4062 83.3594 73.4062C83.4896 73.4062 83.6068 73.4115 83.7109 73.4219C83.8203 73.4323 83.9219 73.4505 84.0156 73.4766V71.6953C83.9688 71.6745 83.8854 71.651 83.7656 71.625C83.651 71.599 83.5391 71.5859 83.4297 71.5859C83.0339 71.5859 82.6797 71.7031 82.3672 71.9375C82.0599 72.1719 81.8177 72.4479 81.6406 72.7656H81.5938L81.5469 71.8125H79.625V80ZM85.3125 80H87.3438V74.4141C87.5104 74.0547 87.7474 73.7708 88.0547 73.5625C88.362 73.3542 88.7031 73.25 89.0781 73.25C89.526 73.25 89.8724 73.3672 90.1172 73.6016C90.362 73.8307 90.4844 74.224 90.4844 74.7812V80H92.5156V74.8125C92.5156 73.651 92.2578 72.8333 91.7422 72.3594C91.2266 71.8854 90.5495 71.6484 89.7109 71.6484C89.2005 71.6484 88.7344 71.7552 88.3125 71.9688C87.8906 72.1771 87.5599 72.4479 87.3203 72.7812H87.2812L87.2266 71.8125H85.3125V80ZM97.5234 71.8125L100 80H101.867L103.367 75.1797C103.424 74.987 103.479 74.7891 103.531 74.5859C103.583 74.3776 103.63 74.1745 103.672 73.9766H103.711C103.747 74.1745 103.792 74.375 103.844 74.5781C103.896 74.7812 103.951 74.9818 104.008 75.1797L105.562 80H107.422L109.898 71.8125H108.102L106.812 76.6641C106.766 76.8672 106.727 77.0469 106.695 77.2031C106.664 77.3594 106.633 77.5391 106.602 77.7422H106.555C106.518 77.5391 106.482 77.3594 106.445 77.2031C106.409 77.0469 106.359 76.8672 106.297 76.6641L104.75 71.8125H102.852L101.359 76.6562C101.302 76.8646 101.258 77.0469 101.227 77.2031C101.195 77.3594 101.164 77.5365 101.133 77.7344H101.086C101.049 77.5365 101.013 77.3594 100.977 77.2031C100.945 77.0469 100.904 76.8646 100.852 76.6562L99.5469 71.8125H97.5234ZM111.094 80H113.125V74.4609C113.281 74.0859 113.503 73.7917 113.789 73.5781C114.076 73.3594 114.414 73.25 114.805 73.25C115.253 73.25 115.604 73.3724 115.859 73.6172C116.115 73.8568 116.242 74.263 116.242 74.8359V80H118.273V74.7422C118.273 73.6432 118.023 72.8542 117.523 72.375C117.029 71.8906 116.398 71.6484 115.633 71.6484C115.06 71.6484 114.562 71.763 114.141 71.9922C113.719 72.2161 113.38 72.5104 113.125 72.875V68.0547H111.094V80ZM119.891 77.5938C119.891 78.4375 120.161 79.0755 120.703 79.5078C121.245 79.9349 121.911 80.1484 122.703 80.1484C123.38 80.1484 123.94 80.026 124.383 79.7812C124.826 79.5312 125.13 79.2474 125.297 78.9297C125.318 79.1224 125.354 79.3177 125.406 79.5156C125.458 79.7135 125.516 79.875 125.578 80H127.57V79.875C127.471 79.6562 127.393 79.3984 127.336 79.1016C127.279 78.7995 127.25 78.4818 127.25 78.1484V74.3984C127.25 73.4453 126.953 72.7396 126.359 72.2812C125.766 71.8177 124.938 71.5859 123.875 71.5859C122.818 71.5859 121.964 71.8255 121.312 72.3047C120.661 72.7839 120.336 73.3776 120.336 74.0859V74.1875H122.344V74.0859C122.344 73.7891 122.453 73.5365 122.672 73.3281C122.896 73.1198 123.271 73.0156 123.797 73.0156C124.323 73.0156 124.69 73.1432 124.898 73.3984C125.112 73.6484 125.219 73.9792 125.219 74.3906V74.8828H123.531C122.479 74.888 121.609 75.1198 120.922 75.5781C120.234 76.0365 119.891 76.7083 119.891 77.5938ZM121.922 77.4297C121.922 77.0286 122.078 76.7161 122.391 76.4922C122.703 76.2682 123.177 76.1562 123.812 76.1562H125.219V77.0703C125.219 77.5026 125.034 77.888 124.664 78.2266C124.299 78.5599 123.859 78.7266 123.344 78.7266C122.854 78.7266 122.495 78.6094 122.266 78.375C122.036 78.1406 121.922 77.8255 121.922 77.4297ZM128.312 73.3125H133.25V71.8125H128.312V73.3125ZM129.617 77.6953C129.617 78.5703 129.831 79.2109 130.258 79.6172C130.69 80.0234 131.266 80.2266 131.984 80.2266C132.245 80.2266 132.484 80.2031 132.703 80.1562C132.927 80.1094 133.102 80.0547 133.227 79.9922V78.4922C133.107 78.5391 132.982 78.5781 132.852 78.6094C132.727 78.6354 132.602 78.6484 132.477 78.6484C132.206 78.6484 131.997 78.5755 131.852 78.4297C131.711 78.2839 131.641 78.0208 131.641 77.6406V69.8203H129.625V72.3828L129.617 72.6016V77.6953ZM138.57 80H140.609V71.8125H138.57V80ZM138.383 69.4531C138.383 69.7708 138.487 70.0391 138.695 70.2578C138.904 70.4714 139.203 70.5781 139.594 70.5781C139.979 70.5781 140.276 70.4714 140.484 70.2578C140.698 70.0391 140.805 69.7708 140.805 69.4531C140.805 69.1354 140.701 68.8698 140.492 68.6562C140.284 68.4427 139.984 68.3359 139.594 68.3359C139.203 68.3359 138.904 68.4427 138.695 68.6562C138.487 68.8698 138.383 69.1354 138.383 69.4531ZM142.242 77.4688V77.5469C142.242 78.3906 142.555 79.0495 143.18 79.5234C143.805 79.9974 144.693 80.2344 145.844 80.2344C147.005 80.2344 147.883 80 148.477 79.5312C149.07 79.0573 149.367 78.4193 149.367 77.6172C149.367 76.9089 149.138 76.3568 148.68 75.9609C148.221 75.5651 147.526 75.2682 146.594 75.0703C145.698 74.8776 145.117 74.7057 144.852 74.5547C144.591 74.3984 144.461 74.1875 144.461 73.9219C144.461 73.6615 144.568 73.4479 144.781 73.2812C145 73.1146 145.344 73.0312 145.812 73.0312C146.286 73.0312 146.638 73.1276 146.867 73.3203C147.096 73.513 147.211 73.7812 147.211 74.125V74.2344H149.203V74.1562C149.203 73.3594 148.893 72.7318 148.273 72.2734C147.659 71.8099 146.841 71.5781 145.82 71.5781C144.799 71.5781 143.987 71.8047 143.383 72.2578C142.779 72.7057 142.477 73.3021 142.477 74.0469C142.477 74.7135 142.708 75.2474 143.172 75.6484C143.641 76.0443 144.344 76.3411 145.281 76.5391C146.167 76.7318 146.734 76.9062 146.984 77.0625C147.234 77.2188 147.359 77.4505 147.359 77.7578C147.359 78.0703 147.227 78.3203 146.961 78.5078C146.701 78.6953 146.326 78.7891 145.836 78.7891C145.352 78.7891 144.964 78.6901 144.672 78.4922C144.385 78.2943 144.242 77.9896 144.242 77.5781V77.4766L142.242 77.4688ZM153.844 73.3125H158.781V71.8125H153.844V73.3125ZM155.148 77.6953C155.148 78.5703 155.362 79.2109 155.789 79.6172C156.221 80.0234 156.797 80.2266 157.516 80.2266C157.776 80.2266 158.016 80.2031 158.234 80.1562C158.458 80.1094 158.633 80.0547 158.758 79.9922V78.4922C158.638 78.5391 158.513 78.5781 158.383 78.6094C158.258 78.6354 158.133 78.6484 158.008 78.6484C157.737 78.6484 157.529 78.5755 157.383 78.4297C157.242 78.2839 157.172 78.0208 157.172 77.6406V69.8203H155.156V72.3828L155.148 72.6016V77.6953ZM160.172 80H162.203V74.4609C162.359 74.0859 162.581 73.7917 162.867 73.5781C163.154 73.3594 163.492 73.25 163.883 73.25C164.331 73.25 164.682 73.3724 164.938 73.6172C165.193 73.8568 165.32 74.263 165.32 74.8359V80H167.352V74.7422C167.352 73.6432 167.102 72.8542 166.602 72.375C166.107 71.8906 165.477 71.6484 164.711 71.6484C164.138 71.6484 163.641 71.763 163.219 71.9922C162.797 72.2161 162.458 72.5104 162.203 72.875V68.0547H160.172V80ZM168.938 76.0312C168.938 77.2865 169.302 78.3021 170.031 79.0781C170.76 79.849 171.779 80.2344 173.086 80.2344C173.914 80.2344 174.622 80.0703 175.211 79.7422C175.805 79.4089 176.232 79.0104 176.492 78.5469L175.078 77.6016C174.87 77.8932 174.596 78.1484 174.258 78.3672C173.924 78.5859 173.526 78.6953 173.062 78.6953C172.365 78.6953 171.841 78.4557 171.492 77.9766C171.143 77.4974 170.969 76.875 170.969 76.1094V75.6875C170.969 74.9167 171.13 74.2917 171.453 73.8125C171.781 73.3333 172.266 73.0938 172.906 73.0938C173.448 73.0938 173.865 73.2656 174.156 73.6094C174.448 73.9531 174.594 74.375 174.594 74.875V75.0469H170.273V76.3906H176.609V75.6406C176.609 74.3802 176.281 73.388 175.625 72.6641C174.969 71.9401 174.057 71.5781 172.891 71.5781C171.724 71.5781 170.773 71.9661 170.039 72.7422C169.305 73.513 168.938 74.526 168.938 75.7812V76.0312ZM182.062 80H183.969L184.023 79.0312H184.07C184.253 79.3542 184.56 79.6224 184.992 79.8359C185.424 80.0495 185.909 80.1562 186.445 80.1562C187.492 80.1562 188.326 79.7708 188.945 79C189.57 78.2292 189.883 77.237 189.883 76.0234V75.7734C189.883 74.5651 189.573 73.5755 188.953 72.8047C188.333 72.0339 187.497 71.6484 186.445 71.6484C185.919 71.6484 185.458 71.7422 185.062 71.9297C184.672 72.1172 184.349 72.375 184.094 72.7031V68.0547H182.062V80ZM184.094 77.3438V74.4688C184.229 74.1406 184.451 73.8516 184.758 73.6016C185.07 73.3464 185.456 73.2188 185.914 73.2188C186.565 73.2188 187.042 73.4531 187.344 73.9219C187.651 74.3854 187.805 74.9818 187.805 75.7109V76.0938C187.805 76.8229 187.651 77.4219 187.344 77.8906C187.036 78.3594 186.562 78.5938 185.922 78.5938C185.453 78.5938 185.065 78.4688 184.758 78.2188C184.451 77.9635 184.229 77.6719 184.094 77.3438ZM191.062 76.0312C191.062 77.2865 191.427 78.3021 192.156 79.0781C192.885 79.849 193.904 80.2344 195.211 80.2344C196.039 80.2344 196.747 80.0703 197.336 79.7422C197.93 79.4089 198.357 79.0104 198.617 78.5469L197.203 77.6016C196.995 77.8932 196.721 78.1484 196.383 78.3672C196.049 78.5859 195.651 78.6953 195.188 78.6953C194.49 78.6953 193.966 78.4557 193.617 77.9766C193.268 77.4974 193.094 76.875 193.094 76.1094V75.6875C193.094 74.9167 193.255 74.2917 193.578 73.8125C193.906 73.3333 194.391 73.0938 195.031 73.0938C195.573 73.0938 195.99 73.2656 196.281 73.6094C196.573 73.9531 196.719 74.375 196.719 74.875V75.0469H192.398V76.3906H198.734V75.6406C198.734 74.3802 198.406 73.388 197.75 72.6641C197.094 71.9401 196.182 71.5781 195.016 71.5781C193.849 71.5781 192.898 71.9661 192.164 72.7422C191.43 73.513 191.062 74.526 191.062 75.7812V76.0312ZM199.789 77.4688V77.5469C199.789 78.3906 200.102 79.0495 200.727 79.5234C201.352 79.9974 202.24 80.2344 203.391 80.2344C204.552 80.2344 205.43 80 206.023 79.5312C206.617 79.0573 206.914 78.4193 206.914 77.6172C206.914 76.9089 206.685 76.3568 206.227 75.9609C205.768 75.5651 205.073 75.2682 204.141 75.0703C203.245 74.8776 202.664 74.7057 202.398 74.5547C202.138 74.3984 202.008 74.1875 202.008 73.9219C202.008 73.6615 202.115 73.4479 202.328 73.2812C202.547 73.1146 202.891 73.0312 203.359 73.0312C203.833 73.0312 204.185 73.1276 204.414 73.3203C204.643 73.513 204.758 73.7812 204.758 74.125V74.2344H206.75V74.1562C206.75 73.3594 206.44 72.7318 205.82 72.2734C205.206 71.8099 204.388 71.5781 203.367 71.5781C202.346 71.5781 201.534 71.8047 200.93 72.2578C200.326 72.7057 200.023 73.3021 200.023 74.0469C200.023 74.7135 200.255 75.2474 200.719 75.6484C201.188 76.0443 201.891 76.3411 202.828 76.5391C203.714 76.7318 204.281 76.9062 204.531 77.0625C204.781 77.2188 204.906 77.4505 204.906 77.7578C204.906 78.0703 204.773 78.3203 204.508 78.5078C204.247 78.6953 203.872 78.7891 203.383 78.7891C202.898 78.7891 202.51 78.6901 202.219 78.4922C201.932 78.2943 201.789 77.9896 201.789 77.5781V77.4766L199.789 77.4688ZM207.5 73.3125H212.438V71.8125H207.5V73.3125ZM208.805 77.6953C208.805 78.5703 209.018 79.2109 209.445 79.6172C209.878 80.0234 210.453 80.2266 211.172 80.2266C211.432 80.2266 211.672 80.2031 211.891 80.1562C212.115 80.1094 212.289 80.0547 212.414 79.9922V78.4922C212.294 78.5391 212.169 78.5781 212.039 78.6094C211.914 78.6354 211.789 78.6484 211.664 78.6484C211.393 78.6484 211.185 78.5755 211.039 78.4297C210.898 78.2839 210.828 78.0208 210.828 77.6406V69.8203H208.812V72.3828L208.805 72.6016V77.6953ZM217.75 80H219.789V68.0547H217.75V80ZM221.469 76.0312C221.469 77.2865 221.833 78.3021 222.562 79.0781C223.292 79.849 224.31 80.2344 225.617 80.2344C226.445 80.2344 227.154 80.0703 227.742 79.7422C228.336 79.4089 228.763 79.0104 229.023 78.5469L227.609 77.6016C227.401 77.8932 227.128 78.1484 226.789 78.3672C226.456 78.5859 226.057 78.6953 225.594 78.6953C224.896 78.6953 224.372 78.4557 224.023 77.9766C223.674 77.4974 223.5 76.875 223.5 76.1094V75.6875C223.5 74.9167 223.661 74.2917 223.984 73.8125C224.312 73.3333 224.797 73.0938 225.438 73.0938C225.979 73.0938 226.396 73.2656 226.688 73.6094C226.979 73.9531 227.125 74.375 227.125 74.875V75.0469H222.805V76.3906H229.141V75.6406C229.141 74.3802 228.812 73.388 228.156 72.6641C227.5 71.9401 226.589 71.5781 225.422 71.5781C224.255 71.5781 223.305 71.9661 222.57 72.7422C221.836 73.513 221.469 74.526 221.469 75.7812V76.0312ZM230.703 80H232.734V74.4141C232.901 74.0547 233.138 73.7708 233.445 73.5625C233.753 73.3542 234.094 73.25 234.469 73.25C234.917 73.25 235.263 73.3672 235.508 73.6016C235.753 73.8307 235.875 74.224 235.875 74.7812V80H237.906V74.8125C237.906 73.651 237.648 72.8333 237.133 72.3594C236.617 71.8854 235.94 71.6484 235.102 71.6484C234.591 71.6484 234.125 71.7552 233.703 71.9688C233.281 72.1771 232.951 72.4479 232.711 72.7812H232.672L232.617 71.8125H230.703V80ZM239.898 82.2656C240.289 82.5938 240.781 82.8672 241.375 83.0859C241.969 83.3047 242.617 83.4141 243.32 83.4141C244.471 83.4141 245.419 83.0833 246.164 82.4219C246.909 81.7604 247.281 80.8151 247.281 79.5859V71.8125H245.367L245.312 72.7969H245.273C245.086 72.474 244.781 72.2031 244.359 71.9844C243.943 71.7656 243.471 71.6562 242.945 71.6562C241.893 71.6562 241.049 72.0365 240.414 72.7969C239.784 73.5573 239.469 74.5521 239.469 75.7812V76.0312C239.469 77.2552 239.786 78.2474 240.422 79.0078C241.057 79.7682 241.898 80.1484 242.945 80.1484C243.487 80.1484 243.953 80.0573 244.344 79.875C244.734 79.6875 245.036 79.4297 245.25 79.1016V79.6406C245.25 80.3646 245.062 80.9115 244.688 81.2812C244.318 81.651 243.826 81.8359 243.211 81.8359C242.695 81.8359 242.221 81.7422 241.789 81.5547C241.362 81.3672 241.047 81.1641 240.844 80.9453L239.898 82.2656ZM241.539 76.1016V75.7109C241.539 74.987 241.695 74.3906 242.008 73.9219C242.326 73.4531 242.807 73.2188 243.453 73.2188C243.896 73.2188 244.271 73.3385 244.578 73.5781C244.885 73.8177 245.109 74.1146 245.25 74.4688V77.375C245.115 77.6927 244.893 77.9766 244.586 78.2266C244.284 78.4714 243.914 78.5938 243.477 78.5938C242.815 78.5938 242.326 78.362 242.008 77.8984C241.695 77.4297 241.539 76.8307 241.539 76.1016ZM248.328 73.3125H253.266V71.8125H248.328V73.3125ZM249.633 77.6953C249.633 78.5703 249.846 79.2109 250.273 79.6172C250.706 80.0234 251.281 80.2266 252 80.2266C252.26 80.2266 252.5 80.2031 252.719 80.1562C252.943 80.1094 253.117 80.0547 253.242 79.9922V78.4922C253.122 78.5391 252.997 78.5781 252.867 78.6094C252.742 78.6354 252.617 78.6484 252.492 78.6484C252.221 78.6484 252.013 78.5755 251.867 78.4297C251.727 78.2839 251.656 78.0208 251.656 77.6406V69.8203H249.641V72.3828L249.633 72.6016V77.6953ZM254.656 80H256.688V74.4609C256.844 74.0859 257.065 73.7917 257.352 73.5781C257.638 73.3594 257.977 73.25 258.367 73.25C258.815 73.25 259.167 73.3724 259.422 73.6172C259.677 73.8568 259.805 74.263 259.805 74.8359V80H261.836V74.7422C261.836 73.6432 261.586 72.8542 261.086 72.375C260.591 71.8906 259.961 71.6484 259.195 71.6484C258.622 71.6484 258.125 71.763 257.703 71.9922C257.281 72.2161 256.943 72.5104 256.688 72.875V68.0547H254.656V80ZM268.07 80H270.102V72.5938V72.4297V71.0078C270.102 70.4922 270.214 70.1068 270.438 69.8516C270.661 69.5964 270.977 69.4688 271.383 69.4688C271.508 69.4688 271.63 69.4766 271.75 69.4922C271.87 69.5078 271.982 69.526 272.086 69.5469L272.156 68.0234C272.005 67.9818 271.839 67.9505 271.656 67.9297C271.479 67.9089 271.297 67.8984 271.109 67.8984C270.208 67.8984 269.477 68.1562 268.914 68.6719C268.352 69.1823 268.07 69.9453 268.07 70.9609V80ZM266.898 73.3125H271.672V71.8125H269.141H268.828H266.898V73.3125ZM272.203 76.0312C272.203 77.2969 272.578 78.3151 273.328 79.0859C274.083 79.8516 275.076 80.2344 276.305 80.2344C277.534 80.2344 278.523 79.8516 279.273 79.0859C280.029 78.3151 280.406 77.2969 280.406 76.0312V75.7812C280.406 74.5104 280.029 73.4922 279.273 72.7266C278.523 71.9609 277.534 71.5781 276.305 71.5781C275.076 71.5781 274.083 71.9609 273.328 72.7266C272.578 73.4922 272.203 74.5104 272.203 75.7812V76.0312ZM274.281 75.6953C274.281 74.9089 274.456 74.2891 274.805 73.8359C275.154 73.3776 275.654 73.1484 276.305 73.1484C276.956 73.1484 277.456 73.3776 277.805 73.8359C278.154 74.2891 278.328 74.9089 278.328 75.6953V76.1094C278.328 76.901 278.154 77.526 277.805 77.9844C277.461 78.4375 276.961 78.6641 276.305 78.6641C275.648 78.6641 275.146 78.4375 274.797 77.9844C274.453 77.526 274.281 76.9036 274.281 76.1172V75.6953ZM282.047 80H284.086V74.5781C284.227 74.2396 284.445 73.9609 284.742 73.7422C285.044 73.5182 285.391 73.4062 285.781 73.4062C285.911 73.4062 286.029 73.4115 286.133 73.4219C286.242 73.4323 286.344 73.4505 286.438 73.4766V71.6953C286.391 71.6745 286.307 71.651 286.188 71.625C286.073 71.599 285.961 71.5859 285.852 71.5859C285.456 71.5859 285.102 71.7031 284.789 71.9375C284.482 72.1719 284.24 72.4479 284.062 72.7656H284.016L283.969 71.8125H282.047V80ZM291.195 83.25C291.341 83.3021 291.5 83.3411 291.672 83.3672C291.844 83.3932 292.044 83.4062 292.273 83.4062C292.971 83.4062 293.56 83.2005 294.039 82.7891C294.523 82.3828 294.909 81.7839 295.195 80.9922L298.547 71.8125H296.695L295.023 76.7812C294.956 76.9792 294.898 77.1641 294.852 77.3359C294.81 77.5026 294.768 77.6693 294.727 77.8359H294.68C294.643 77.6693 294.602 77.5026 294.555 77.3359C294.513 77.1641 294.458 76.9792 294.391 76.7812L292.641 71.8125H290.602L293.742 79.9609L293.789 79.9688C293.565 80.7292 293.32 81.2292 293.055 81.4688C292.789 81.7135 292.477 81.8359 292.117 81.8359C291.971 81.8359 291.815 81.8229 291.648 81.7969C291.487 81.776 291.341 81.7448 291.211 81.7031L291.195 83.25ZM298.984 76.0312C298.984 77.2969 299.359 78.3151 300.109 79.0859C300.865 79.8516 301.857 80.2344 303.086 80.2344C304.315 80.2344 305.305 79.8516 306.055 79.0859C306.81 78.3151 307.188 77.2969 307.188 76.0312V75.7812C307.188 74.5104 306.81 73.4922 306.055 72.7266C305.305 71.9609 304.315 71.5781 303.086 71.5781C301.857 71.5781 300.865 71.9609 300.109 72.7266C299.359 73.4922 298.984 74.5104 298.984 75.7812V76.0312ZM301.062 75.6953C301.062 74.9089 301.237 74.2891 301.586 73.8359C301.935 73.3776 302.435 73.1484 303.086 73.1484C303.737 73.1484 304.237 73.3776 304.586 73.8359C304.935 74.2891 305.109 74.9089 305.109 75.6953V76.1094C305.109 76.901 304.935 77.526 304.586 77.9844C304.242 78.4375 303.742 78.6641 303.086 78.6641C302.43 78.6641 301.927 78.4375 301.578 77.9844C301.234 77.526 301.062 76.9036 301.062 76.1172V75.6953ZM308.75 76.9219C308.75 78.0885 309.005 78.9193 309.516 79.4141C310.031 79.9089 310.698 80.1562 311.516 80.1562C312.036 80.1562 312.508 80.0573 312.93 79.8594C313.352 79.6562 313.69 79.3802 313.945 79.0312H313.992L314.047 80H315.953V71.8125H313.922V77.4062C313.766 77.7396 313.536 78.0182 313.234 78.2422C312.932 78.4609 312.586 78.5703 312.195 78.5703C311.758 78.5703 311.414 78.4505 311.164 78.2109C310.914 77.9714 310.789 77.5547 310.789 76.9609V71.8125H308.75V76.9219ZM318.047 80H320.086V74.5781C320.227 74.2396 320.445 73.9609 320.742 73.7422C321.044 73.5182 321.391 73.4062 321.781 73.4062C321.911 73.4062 322.029 73.4115 322.133 73.4219C322.242 73.4323 322.344 73.4505 322.438 73.4766V71.6953C322.391 71.6745 322.307 71.651 322.188 71.625C322.073 71.599 321.961 71.5859 321.852 71.5859C321.456 71.5859 321.102 71.7031 320.789 71.9375C320.482 72.1719 320.24 72.4479 320.062 72.7656H320.016L319.969 71.8125H318.047V80ZM327.625 80H329.664V74.5781C329.805 74.2396 330.023 73.9609 330.32 73.7422C330.622 73.5182 330.969 73.4062 331.359 73.4062C331.49 73.4062 331.607 73.4115 331.711 73.4219C331.82 73.4323 331.922 73.4505 332.016 73.4766V71.6953C331.969 71.6745 331.885 71.651 331.766 71.625C331.651 71.599 331.539 71.5859 331.43 71.5859C331.034 71.5859 330.68 71.7031 330.367 71.9375C330.06 72.1719 329.818 72.4479 329.641 72.7656H329.594L329.547 71.8125H327.625V80ZM332.703 76.0312C332.703 77.2865 333.068 78.3021 333.797 79.0781C334.526 79.849 335.544 80.2344 336.852 80.2344C337.68 80.2344 338.388 80.0703 338.977 79.7422C339.57 79.4089 339.997 79.0104 340.258 78.5469L338.844 77.6016C338.635 77.8932 338.362 78.1484 338.023 78.3672C337.69 78.5859 337.292 78.6953 336.828 78.6953C336.13 78.6953 335.607 78.4557 335.258 77.9766C334.909 77.4974 334.734 76.875 334.734 76.1094V75.6875C334.734 74.9167 334.896 74.2917 335.219 73.8125C335.547 73.3333 336.031 73.0938 336.672 73.0938C337.214 73.0938 337.63 73.2656 337.922 73.6094C338.214 73.9531 338.359 74.375 338.359 74.875V75.0469H334.039V76.3906H340.375V75.6406C340.375 74.3802 340.047 73.388 339.391 72.6641C338.734 71.9401 337.823 71.5781 336.656 71.5781C335.49 71.5781 334.539 71.9661 333.805 72.7422C333.07 73.513 332.703 74.526 332.703 75.7812V76.0312ZM341.43 77.4688V77.5469C341.43 78.3906 341.742 79.0495 342.367 79.5234C342.992 79.9974 343.88 80.2344 345.031 80.2344C346.193 80.2344 347.07 80 347.664 79.5312C348.258 79.0573 348.555 78.4193 348.555 77.6172C348.555 76.9089 348.326 76.3568 347.867 75.9609C347.409 75.5651 346.714 75.2682 345.781 75.0703C344.885 74.8776 344.305 74.7057 344.039 74.5547C343.779 74.3984 343.648 74.1875 343.648 73.9219C343.648 73.6615 343.755 73.4479 343.969 73.2812C344.188 73.1146 344.531 73.0312 345 73.0312C345.474 73.0312 345.826 73.1276 346.055 73.3203C346.284 73.513 346.398 73.7812 346.398 74.125V74.2344H348.391V74.1562C348.391 73.3594 348.081 72.7318 347.461 72.2734C346.846 71.8099 346.029 71.5781 345.008 71.5781C343.987 71.5781 343.174 71.8047 342.57 72.2578C341.966 72.7057 341.664 73.3021 341.664 74.0469C341.664 74.7135 341.896 75.2474 342.359 75.6484C342.828 76.0443 343.531 76.3411 344.469 76.5391C345.354 76.7318 345.922 76.9062 346.172 77.0625C346.422 77.2188 346.547 77.4505 346.547 77.7578C346.547 78.0703 346.414 78.3203 346.148 78.5078C345.888 78.6953 345.513 78.7891 345.023 78.7891C344.539 78.7891 344.151 78.6901 343.859 78.4922C343.573 78.2943 343.43 77.9896 343.43 77.5781V77.4766L341.43 77.4688ZM350.109 76.9219C350.109 78.0885 350.365 78.9193 350.875 79.4141C351.391 79.9089 352.057 80.1562 352.875 80.1562C353.396 80.1562 353.867 80.0573 354.289 79.8594C354.711 79.6562 355.049 79.3802 355.305 79.0312H355.352L355.406 80H357.312V71.8125H355.281V77.4062C355.125 77.7396 354.896 78.0182 354.594 78.2422C354.292 78.4609 353.945 78.5703 353.555 78.5703C353.117 78.5703 352.773 78.4505 352.523 78.2109C352.273 77.9714 352.148 77.5547 352.148 76.9609V71.8125H350.109V76.9219ZM359.406 80H361.438V74.4219C361.604 74.0573 361.828 73.7708 362.109 73.5625C362.391 73.3542 362.719 73.25 363.094 73.25C363.536 73.25 363.872 73.375 364.102 73.625C364.336 73.875 364.453 74.276 364.453 74.8281V80H366.484V74.4219C366.651 74.0625 366.875 73.776 367.156 73.5625C367.443 73.349 367.776 73.2448 368.156 73.25C368.594 73.25 368.927 73.375 369.156 73.625C369.385 73.875 369.5 74.2708 369.5 74.8125V80H371.531V74.8984C371.531 73.7318 371.284 72.901 370.789 72.4062C370.294 71.9062 369.633 71.6562 368.805 71.6562C368.268 71.6562 367.768 71.7734 367.305 72.0078C366.846 72.237 366.469 72.5885 366.172 73.0625H366.133C365.94 72.5885 365.635 72.237 365.219 72.0078C364.807 71.7734 364.318 71.6562 363.75 71.6562C363.271 71.6562 362.826 71.7578 362.414 71.9609C362.008 72.1589 361.674 72.4375 361.414 72.7969H361.367L361.312 71.8125H359.406V80ZM373.109 76.0312C373.109 77.2865 373.474 78.3021 374.203 79.0781C374.932 79.849 375.951 80.2344 377.258 80.2344C378.086 80.2344 378.794 80.0703 379.383 79.7422C379.977 79.4089 380.404 79.0104 380.664 78.5469L379.25 77.6016C379.042 77.8932 378.768 78.1484 378.43 78.3672C378.096 78.5859 377.698 78.6953 377.234 78.6953C376.536 78.6953 376.013 78.4557 375.664 77.9766C375.315 77.4974 375.141 76.875 375.141 76.1094V75.6875C375.141 74.9167 375.302 74.2917 375.625 73.8125C375.953 73.3333 376.438 73.0938 377.078 73.0938C377.62 73.0938 378.036 73.2656 378.328 73.6094C378.62 73.9531 378.766 74.375 378.766 74.875V75.0469H374.445V76.3906H380.781V75.6406C380.781 74.3802 380.453 73.388 379.797 72.6641C379.141 71.9401 378.229 71.5781 377.062 71.5781C375.896 71.5781 374.945 71.9661 374.211 72.7422C373.477 73.513 373.109 74.526 373.109 75.7812V76.0312Z" fill="#010D45"/>
<rect x="50" y="95" width="142.4" height="32" rx="16" fill="#FFBDBD"/>
<rect x="50" y="139" width="193.231" height="32" rx="16" fill="#2BCDC0"/>
<path d="M202.328 112.691C202.328 113.422 202.588 114.02 203.107 114.484C203.627 114.945 204.365 115.176 205.322 115.176C206.236 115.176 206.973 114.947 207.531 114.49C208.094 114.029 208.375 113.402 208.375 112.609C208.375 112.074 208.227 111.625 207.93 111.262C207.633 110.898 207.234 110.656 206.734 110.535V110.512C207.199 110.324 207.539 110.055 207.754 109.703C207.973 109.352 208.082 108.965 208.082 108.543C208.082 107.902 207.844 107.367 207.367 106.938C206.891 106.508 206.213 106.293 205.334 106.293C204.475 106.293 203.791 106.523 203.283 106.984C202.779 107.445 202.527 108.004 202.527 108.66V108.73H204.062V108.654C204.062 108.275 204.172 107.984 204.391 107.781C204.613 107.578 204.922 107.477 205.316 107.477C205.688 107.477 205.98 107.578 206.195 107.781C206.41 107.98 206.518 108.281 206.518 108.684C206.518 109.098 206.391 109.42 206.137 109.65C205.883 109.877 205.525 109.99 205.064 109.99H204.35V111.139H205.117C205.637 111.139 206.045 111.258 206.342 111.496C206.639 111.734 206.787 112.092 206.787 112.568C206.787 113.053 206.656 113.412 206.395 113.646C206.133 113.877 205.777 113.992 205.328 113.992C204.867 113.992 204.508 113.877 204.25 113.646C203.996 113.416 203.869 113.096 203.869 112.686V112.598H202.328V112.691ZM209.324 115H215.312V113.764H211.334L213.531 111.49C213.977 111.021 214.35 110.568 214.65 110.131C214.955 109.689 215.107 109.189 215.107 108.631C215.104 107.975 214.854 107.422 214.357 106.973C213.861 106.52 213.166 106.293 212.271 106.293C211.4 106.293 210.688 106.547 210.133 107.055C209.582 107.559 209.307 108.213 209.307 109.018V109.141H210.871V109.035C210.875 108.535 211.008 108.154 211.27 107.893C211.531 107.627 211.865 107.494 212.271 107.494C212.678 107.494 212.99 107.609 213.209 107.84C213.428 108.07 213.537 108.355 213.537 108.695C213.537 109.039 213.439 109.365 213.244 109.674C213.049 109.982 212.77 110.33 212.406 110.717L209.324 113.998V115ZM216.098 112.768C216.098 113.463 216.355 114.039 216.871 114.496C217.391 114.949 218.127 115.176 219.08 115.176C219.986 115.176 220.715 114.912 221.266 114.385C221.82 113.854 222.098 113.135 222.098 112.229C222.098 111.342 221.836 110.65 221.312 110.154C220.793 109.654 220.146 109.404 219.373 109.404C219.053 109.404 218.768 109.445 218.518 109.527C218.268 109.609 218.053 109.709 217.873 109.826L218.096 107.74H221.646V106.469H216.848L216.414 110.74L217.604 111.279C217.795 111.068 218.008 110.9 218.242 110.775C218.477 110.65 218.756 110.588 219.08 110.588C219.525 110.588 219.879 110.729 220.141 111.01C220.406 111.291 220.539 111.711 220.539 112.27C220.539 112.824 220.408 113.25 220.146 113.547C219.885 113.844 219.527 113.992 219.074 113.992C218.625 113.992 218.271 113.885 218.014 113.67C217.76 113.451 217.633 113.148 217.633 112.762V112.674H216.098V112.768ZM227.752 115.041L229.404 115.035L230.928 109.035C230.959 108.898 230.984 108.773 231.004 108.66C231.027 108.543 231.049 108.418 231.068 108.285H231.121C231.141 108.418 231.16 108.543 231.18 108.66C231.203 108.777 231.232 108.902 231.268 109.035L232.779 115.041H234.455L236.494 106.469H235.105L233.811 112.475C233.779 112.607 233.756 112.721 233.74 112.814C233.729 112.904 233.715 113.016 233.699 113.148H233.641C233.625 113.02 233.609 112.908 233.594 112.814C233.582 112.721 233.561 112.607 233.529 112.475L232.035 106.469H230.324L228.871 112.48C228.84 112.613 228.816 112.727 228.801 112.82C228.789 112.91 228.775 113.021 228.76 113.154H228.701C228.686 113.021 228.67 112.91 228.654 112.82C228.639 112.727 228.615 112.613 228.584 112.48L227.248 106.469H225.701L227.752 115.041ZM237.01 111.959C237.01 112.924 237.299 113.701 237.877 114.291C238.459 114.881 239.225 115.176 240.174 115.176C241.123 115.176 241.887 114.881 242.465 114.291C243.047 113.701 243.338 112.924 243.338 111.959V111.771C243.338 110.811 243.047 110.035 242.465 109.445C241.887 108.855 241.123 108.561 240.174 108.561C239.225 108.561 238.459 108.855 237.877 109.445C237.299 110.035 237.01 110.811 237.01 111.771V111.959ZM238.545 111.73C238.545 111.129 238.684 110.643 238.961 110.271C239.242 109.9 239.646 109.715 240.174 109.715C240.701 109.715 241.104 109.9 241.381 110.271C241.662 110.643 241.803 111.129 241.803 111.73V112.006C241.803 112.607 241.664 113.094 241.387 113.465C241.109 113.836 240.705 114.021 240.174 114.021C239.643 114.021 239.238 113.836 238.961 113.465C238.684 113.094 238.545 112.607 238.545 112.006V111.73ZM244.621 115H246.121V110.816C246.23 110.559 246.4 110.344 246.631 110.172C246.861 110 247.135 109.914 247.451 109.914C247.549 109.914 247.639 109.918 247.721 109.926C247.803 109.934 247.883 109.947 247.961 109.967V108.648C247.922 108.633 247.857 108.615 247.768 108.596C247.678 108.576 247.592 108.566 247.51 108.566C247.189 108.566 246.91 108.656 246.672 108.836C246.434 109.016 246.242 109.229 246.098 109.475H246.068L246.027 108.736H244.621V115ZM248.494 111.965C248.494 112.883 248.738 113.639 249.227 114.232C249.719 114.822 250.383 115.117 251.219 115.117C251.641 115.117 252.012 115.033 252.332 114.865C252.652 114.697 252.887 114.488 253.035 114.238H253.064L253.105 115H254.512V106.012H253.012V109.422C252.844 109.18 252.607 108.986 252.303 108.842C252.002 108.693 251.641 108.619 251.219 108.619C250.402 108.619 249.744 108.916 249.244 109.51C248.744 110.1 248.494 110.855 248.494 111.777V111.965ZM250.029 112V111.736C250.029 111.17 250.156 110.701 250.41 110.33C250.664 109.959 251.051 109.773 251.57 109.773C251.934 109.773 252.236 109.869 252.479 110.061C252.721 110.248 252.898 110.469 253.012 110.723V113.014C252.898 113.268 252.717 113.49 252.467 113.682C252.221 113.869 251.922 113.963 251.57 113.963C251.047 113.963 250.658 113.777 250.404 113.406C250.154 113.035 250.029 112.566 250.029 112ZM255.76 113.084V113.137C255.76 113.77 255.998 114.268 256.475 114.631C256.951 114.994 257.637 115.176 258.531 115.176C259.43 115.176 260.107 114.996 260.564 114.637C261.021 114.273 261.25 113.793 261.25 113.195C261.25 112.652 261.07 112.229 260.711 111.924C260.355 111.619 259.814 111.393 259.088 111.244C258.361 111.1 257.9 110.965 257.705 110.84C257.51 110.715 257.412 110.549 257.412 110.342C257.412 110.135 257.498 109.965 257.67 109.832C257.842 109.699 258.119 109.633 258.502 109.633C258.885 109.633 259.168 109.711 259.352 109.867C259.539 110.023 259.633 110.236 259.633 110.506V110.582H261.109V110.523C261.109 109.926 260.871 109.449 260.395 109.094C259.922 108.738 259.293 108.561 258.508 108.561C257.719 108.561 257.092 108.734 256.627 109.082C256.166 109.426 255.936 109.877 255.936 110.436C255.936 110.943 256.117 111.352 256.48 111.66C256.844 111.965 257.391 112.191 258.121 112.34C258.832 112.484 259.281 112.619 259.469 112.744C259.66 112.865 259.756 113.049 259.756 113.295C259.756 113.541 259.65 113.738 259.439 113.887C259.229 114.031 258.924 114.104 258.525 114.104C258.139 114.104 257.828 114.025 257.594 113.869C257.359 113.713 257.242 113.475 257.242 113.154V113.084H255.76ZM268.697 117.555V116.354C268.232 116.064 267.807 115.584 267.42 114.912C267.033 114.236 266.84 113.273 266.84 112.023V111.883C266.84 110.629 267.037 109.666 267.432 108.994C267.826 108.322 268.248 107.842 268.697 107.553V106.352C267.768 106.746 266.971 107.398 266.307 108.309C265.643 109.215 265.311 110.42 265.311 111.924V111.982C265.311 113.502 265.65 114.717 266.33 115.627C267.01 116.537 267.799 117.18 268.697 117.555ZM272.09 115H273.637V111.877L276.572 106.469H275.025L273.244 109.82C273.186 109.934 273.131 110.045 273.08 110.154C273.033 110.26 272.988 110.369 272.945 110.482H272.898C272.859 110.369 272.814 110.26 272.764 110.154C272.717 110.045 272.662 109.934 272.6 109.82L270.848 106.469H269.113L272.09 111.93V115ZM276.514 111.959C276.514 112.924 276.803 113.701 277.381 114.291C277.963 114.881 278.729 115.176 279.678 115.176C280.627 115.176 281.391 114.881 281.969 114.291C282.551 113.701 282.842 112.924 282.842 111.959V111.771C282.842 110.811 282.551 110.035 281.969 109.445C281.391 108.855 280.627 108.561 279.678 108.561C278.729 108.561 277.963 108.855 277.381 109.445C276.803 110.035 276.514 110.811 276.514 111.771V111.959ZM278.049 111.73C278.049 111.129 278.188 110.643 278.465 110.271C278.746 109.9 279.15 109.715 279.678 109.715C280.205 109.715 280.607 109.9 280.885 110.271C281.166 110.643 281.307 111.129 281.307 111.73V112.006C281.307 112.607 281.168 113.094 280.891 113.465C280.613 113.836 280.209 114.021 279.678 114.021C279.146 114.021 278.742 113.836 278.465 113.465C278.188 113.094 278.049 112.607 278.049 112.006V111.73ZM284.066 112.627C284.066 113.521 284.264 114.16 284.658 114.543C285.057 114.926 285.578 115.117 286.223 115.117C286.621 115.117 286.984 115.041 287.312 114.889C287.641 114.736 287.91 114.521 288.121 114.244H288.15L288.191 115H289.598V108.736H288.098V113.02C287.965 113.289 287.777 113.512 287.535 113.688C287.293 113.859 287.016 113.945 286.703 113.945C286.348 113.945 286.068 113.85 285.865 113.658C285.666 113.463 285.566 113.129 285.566 112.656V108.736H284.066V112.627ZM290.705 117.555C291.607 117.172 292.396 116.527 293.072 115.621C293.752 114.715 294.092 113.502 294.092 111.982V111.924C294.092 110.404 293.75 109.191 293.066 108.285C292.383 107.379 291.596 106.734 290.705 106.352V107.553C291.154 107.842 291.576 108.322 291.971 108.994C292.365 109.666 292.562 110.629 292.562 111.883V112.023C292.562 113.273 292.367 114.238 291.977 114.918C291.586 115.598 291.162 116.076 290.705 116.354V117.555Z" fill="#2D3130"/>
<path d="M254.5 159H256.117L259.334 151.43V150.469H253.346V151.758H257.723L254.5 159ZM262.885 159H264.438V150.363H263.811L260.775 151.506V152.854L262.885 152.01V159ZM270.818 159H272.324V150.469H270.859L266.875 156.076V157.084H273.379V155.871H271.615L271.182 155.895H268.469L270.754 152.596H270.818V156.381V156.68V159ZM278.752 159.041L280.404 159.035L281.928 153.035C281.959 152.898 281.984 152.773 282.004 152.66C282.027 152.543 282.049 152.418 282.068 152.285H282.121C282.141 152.418 282.16 152.543 282.18 152.66C282.203 152.777 282.232 152.902 282.268 153.035L283.779 159.041H285.455L287.494 150.469H286.105L284.811 156.475C284.779 156.607 284.756 156.721 284.74 156.814C284.729 156.904 284.715 157.016 284.699 157.148H284.641C284.625 157.02 284.609 156.908 284.594 156.814C284.582 156.721 284.561 156.607 284.529 156.475L283.035 150.469H281.324L279.871 156.48C279.84 156.613 279.816 156.727 279.801 156.82C279.789 156.91 279.775 157.021 279.76 157.154H279.701C279.686 157.021 279.67 156.91 279.654 156.82C279.639 156.727 279.615 156.613 279.584 156.48L278.248 150.469H276.701L278.752 159.041ZM288.01 155.959C288.01 156.924 288.299 157.701 288.877 158.291C289.459 158.881 290.225 159.176 291.174 159.176C292.123 159.176 292.887 158.881 293.465 158.291C294.047 157.701 294.338 156.924 294.338 155.959V155.771C294.338 154.811 294.047 154.035 293.465 153.445C292.887 152.855 292.123 152.561 291.174 152.561C290.225 152.561 289.459 152.855 288.877 153.445C288.299 154.035 288.01 154.811 288.01 155.771V155.959ZM289.545 155.73C289.545 155.129 289.684 154.643 289.961 154.271C290.242 153.9 290.646 153.715 291.174 153.715C291.701 153.715 292.104 153.9 292.381 154.271C292.662 154.643 292.803 155.129 292.803 155.73V156.006C292.803 156.607 292.664 157.094 292.387 157.465C292.109 157.836 291.705 158.021 291.174 158.021C290.643 158.021 290.238 157.836 289.961 157.465C289.684 157.094 289.545 156.607 289.545 156.006V155.73ZM295.621 159H297.121V154.816C297.23 154.559 297.4 154.344 297.631 154.172C297.861 154 298.135 153.914 298.451 153.914C298.549 153.914 298.639 153.918 298.721 153.926C298.803 153.934 298.883 153.947 298.961 153.967V152.648C298.922 152.633 298.857 152.615 298.768 152.596C298.678 152.576 298.592 152.566 298.51 152.566C298.189 152.566 297.91 152.656 297.672 152.836C297.434 153.016 297.242 153.229 297.098 153.475H297.068L297.027 152.736H295.621V159ZM299.494 155.965C299.494 156.883 299.738 157.639 300.227 158.232C300.719 158.822 301.383 159.117 302.219 159.117C302.641 159.117 303.012 159.033 303.332 158.865C303.652 158.697 303.887 158.488 304.035 158.238H304.064L304.105 159H305.512V150.012H304.012V153.422C303.844 153.18 303.607 152.986 303.303 152.842C303.002 152.693 302.641 152.619 302.219 152.619C301.402 152.619 300.744 152.916 300.244 153.51C299.744 154.1 299.494 154.855 299.494 155.777V155.965ZM301.029 156V155.736C301.029 155.17 301.156 154.701 301.41 154.33C301.664 153.959 302.051 153.773 302.57 153.773C302.934 153.773 303.236 153.869 303.479 154.061C303.721 154.248 303.898 154.469 304.012 154.723V157.014C303.898 157.268 303.717 157.49 303.467 157.682C303.221 157.869 302.922 157.963 302.57 157.963C302.047 157.963 301.658 157.777 301.404 157.406C301.154 157.035 301.029 156.566 301.029 156ZM306.76 157.084V157.137C306.76 157.77 306.998 158.268 307.475 158.631C307.951 158.994 308.637 159.176 309.531 159.176C310.43 159.176 311.107 158.996 311.564 158.637C312.021 158.273 312.25 157.793 312.25 157.195C312.25 156.652 312.07 156.229 311.711 155.924C311.355 155.619 310.814 155.393 310.088 155.244C309.361 155.1 308.9 154.965 308.705 154.84C308.51 154.715 308.412 154.549 308.412 154.342C308.412 154.135 308.498 153.965 308.67 153.832C308.842 153.699 309.119 153.633 309.502 153.633C309.885 153.633 310.168 153.711 310.352 153.867C310.539 154.023 310.633 154.236 310.633 154.506V154.582H312.109V154.523C312.109 153.926 311.871 153.449 311.395 153.094C310.922 152.738 310.293 152.561 309.508 152.561C308.719 152.561 308.092 152.734 307.627 153.082C307.166 153.426 306.936 153.877 306.936 154.436C306.936 154.943 307.117 155.352 307.48 155.66C307.844 155.965 308.391 156.191 309.121 156.34C309.832 156.484 310.281 156.619 310.469 156.744C310.66 156.865 310.756 157.049 310.756 157.295C310.756 157.541 310.65 157.738 310.439 157.887C310.229 158.031 309.924 158.104 309.525 158.104C309.139 158.104 308.828 158.025 308.594 157.869C308.359 157.713 308.242 157.475 308.242 157.154V157.084H306.76ZM319.697 161.555V160.354C319.232 160.064 318.807 159.584 318.42 158.912C318.033 158.236 317.84 157.273 317.84 156.023V155.883C317.84 154.629 318.037 153.666 318.432 152.994C318.826 152.322 319.248 151.842 319.697 151.553V150.352C318.768 150.746 317.971 151.398 317.307 152.309C316.643 153.215 316.311 154.42 316.311 155.924V155.982C316.311 157.502 316.65 158.717 317.33 159.627C318.01 160.537 318.799 161.18 319.697 161.555ZM319.908 159H321.367L323.6 152.812C323.65 152.68 323.691 152.551 323.723 152.426C323.758 152.301 323.789 152.174 323.816 152.045H323.869C323.896 152.174 323.928 152.301 323.963 152.426C323.998 152.551 324.039 152.68 324.086 152.812L326.312 159H327.965L324.713 150.422H323.125L319.908 159ZM321.52 156.979L326.254 156.984L325.855 155.807H321.918L321.52 156.979ZM327.549 152.736L329.963 159H331.27L333.678 152.736H332.289L330.9 156.627C330.85 156.779 330.807 156.918 330.771 157.043C330.74 157.168 330.715 157.291 330.695 157.412H330.66C330.641 157.295 330.615 157.174 330.584 157.049C330.553 156.92 330.51 156.779 330.455 156.627L329.055 152.736H327.549ZM334.012 155.959C334.012 156.916 334.291 157.691 334.85 158.285C335.408 158.879 336.195 159.176 337.211 159.176C337.84 159.176 338.381 159.053 338.834 158.807C339.287 158.557 339.613 158.266 339.812 157.934L338.799 157.207C338.635 157.43 338.418 157.627 338.148 157.799C337.883 157.967 337.564 158.051 337.193 158.051C336.627 158.051 336.205 157.857 335.928 157.471C335.65 157.084 335.512 156.594 335.512 156V155.73C335.512 155.129 335.643 154.637 335.904 154.254C336.166 153.867 336.547 153.674 337.047 153.674C337.508 153.674 337.852 153.816 338.078 154.102C338.305 154.387 338.418 154.723 338.418 155.109V155.215H335.008V156.234H339.912V155.672C339.912 154.711 339.66 153.953 339.156 153.398C338.656 152.84 337.953 152.561 337.047 152.561C336.148 152.561 335.418 152.857 334.855 153.451C334.293 154.045 334.012 154.818 334.012 155.771V155.959ZM341.125 159H342.625V154.816C342.734 154.559 342.904 154.344 343.135 154.172C343.365 154 343.639 153.914 343.955 153.914C344.053 153.914 344.143 153.918 344.225 153.926C344.307 153.934 344.387 153.947 344.465 153.967V152.648C344.426 152.633 344.361 152.615 344.271 152.596C344.182 152.576 344.096 152.566 344.014 152.566C343.693 152.566 343.414 152.656 343.176 152.836C342.938 153.016 342.746 153.229 342.602 153.475H342.572L342.531 152.736H341.125V159ZM344.91 157.16C344.91 157.801 345.123 158.287 345.549 158.619C345.975 158.951 346.496 159.117 347.113 159.117C347.633 159.117 348.062 159.021 348.402 158.83C348.742 158.639 348.98 158.42 349.117 158.174C349.129 158.322 349.154 158.475 349.193 158.631C349.236 158.783 349.283 158.906 349.334 159H350.799V158.906C350.729 158.742 350.672 158.547 350.629 158.32C350.586 158.094 350.564 157.855 350.564 157.605V154.688C350.564 153.973 350.336 153.439 349.879 153.088C349.422 152.736 348.783 152.561 347.963 152.561C347.146 152.561 346.49 152.748 345.994 153.123C345.502 153.494 345.256 153.945 345.256 154.477V154.535H346.744V154.477C346.744 154.246 346.834 154.047 347.014 153.879C347.193 153.711 347.494 153.627 347.916 153.627C348.338 153.627 348.635 153.725 348.807 153.92C348.979 154.115 349.064 154.369 349.064 154.682V155.098H347.752C346.932 155.098 346.252 155.275 345.713 155.631C345.178 155.982 344.91 156.492 344.91 157.16ZM346.41 157.055C346.41 156.742 346.537 156.496 346.791 156.316C347.045 156.137 347.422 156.047 347.922 156.047H349.064V156.779C349.064 157.104 348.912 157.396 348.607 157.658C348.303 157.92 347.945 158.051 347.535 158.051C347.148 158.051 346.863 157.963 346.68 157.787C346.5 157.607 346.41 157.363 346.41 157.055ZM352.193 160.676C352.498 160.93 352.879 161.139 353.336 161.303C353.797 161.471 354.299 161.555 354.842 161.555C355.729 161.555 356.455 161.309 357.021 160.816C357.592 160.328 357.877 159.625 357.877 158.707V152.736H356.477L356.43 153.498H356.4C356.256 153.248 356.02 153.039 355.691 152.871C355.367 152.703 354.994 152.619 354.572 152.619C353.756 152.619 353.1 152.912 352.604 153.498C352.111 154.084 351.865 154.844 351.865 155.777V155.965C351.865 156.895 352.113 157.652 352.609 158.238C353.105 158.824 353.76 159.117 354.572 159.117C354.998 159.117 355.363 159.047 355.668 158.906C355.973 158.762 356.211 158.564 356.383 158.314V158.73C356.383 159.27 356.238 159.68 355.949 159.961C355.66 160.246 355.271 160.389 354.783 160.389C354.373 160.389 354 160.314 353.664 160.166C353.328 160.021 353.074 159.861 352.902 159.686L352.193 160.676ZM353.4 156V155.736C353.4 155.17 353.525 154.701 353.775 154.33C354.029 153.959 354.418 153.773 354.941 153.773C355.293 153.773 355.592 153.869 355.838 154.061C356.088 154.252 356.27 154.48 356.383 154.746V157.008C356.273 157.254 356.096 157.475 355.85 157.67C355.604 157.865 355.305 157.963 354.953 157.963C354.422 157.963 354.029 157.777 353.775 157.406C353.525 157.035 353.4 156.566 353.4 156ZM359.172 155.959C359.172 156.916 359.451 157.691 360.01 158.285C360.568 158.879 361.355 159.176 362.371 159.176C363 159.176 363.541 159.053 363.994 158.807C364.447 158.557 364.773 158.266 364.973 157.934L363.959 157.207C363.795 157.43 363.578 157.627 363.309 157.799C363.043 157.967 362.725 158.051 362.354 158.051C361.787 158.051 361.365 157.857 361.088 157.471C360.811 157.084 360.672 156.594 360.672 156V155.73C360.672 155.129 360.803 154.637 361.064 154.254C361.326 153.867 361.707 153.674 362.207 153.674C362.668 153.674 363.012 153.816 363.238 154.102C363.465 154.387 363.578 154.723 363.578 155.109V155.215H360.168V156.234H365.072V155.672C365.072 154.711 364.82 153.953 364.316 153.398C363.816 152.84 363.113 152.561 362.207 152.561C361.309 152.561 360.578 152.857 360.016 153.451C359.453 154.045 359.172 154.818 359.172 155.771V155.959ZM365.752 161.555C366.654 161.172 367.443 160.527 368.119 159.621C368.799 158.715 369.139 157.502 369.139 155.982V155.924C369.139 154.404 368.797 153.191 368.113 152.285C367.43 151.379 366.643 150.734 365.752 150.352V151.553C366.201 151.842 366.623 152.322 367.018 152.994C367.412 153.666 367.609 154.629 367.609 155.883V156.023C367.609 157.273 367.414 158.238 367.023 158.918C366.633 159.598 366.209 160.076 365.752 160.354V161.555Z" fill="#2D3130"/>
<rect x="50" y="36" width="60" height="20" rx="8" fill="#EBFAF9"/>
<path d="M58.6667 40.8335C58.6667 40.0051 59.3383 39.3335 60.1667 39.3335H63.8334C64.6618 39.3335 65.3334 40.0051 65.3334 40.8335V51.1668C65.3334 51.9952 64.6618 52.6668 63.8334 52.6668H60.1667C60.0632 52.6668 59.9621 52.6564 59.8644 52.6364C59.1809 52.4965 58.6667 51.8917 58.6667 51.1668V40.8335ZM59.6667 41.3335V42.3335H60.8334C61.1095 42.3335 61.3334 42.1096 61.3334 41.8335C61.3334 41.5574 61.1095 41.3335 60.8334 41.3335H59.6667ZM59.6667 43.3335V44.3335H62.1667C62.4429 44.3335 62.6667 44.1096 62.6667 43.8335C62.6667 43.5574 62.4429 43.3335 62.1667 43.3335H59.6667ZM59.6667 45.5002V46.5002H60.8334C61.1095 46.5002 61.3334 46.2763 61.3334 46.0002C61.3334 45.724 61.1095 45.5002 60.8334 45.5002H59.6667ZM59.6667 47.6668V48.6668H62.1667C62.4429 48.6668 62.6667 48.443 62.6667 48.1668C62.6667 47.8907 62.4429 47.6668 62.1667 47.6668H59.6667ZM59.6667 49.6668V50.6668H60.8334C61.1095 50.6668 61.3334 50.443 61.3334 50.1668C61.3334 49.8907 61.1095 49.6668 60.8334 49.6668H59.6667Z" fill="#2BCDC0"/>
<path d="M72.8105 49.5H77.4834V48.5332H74.0801V42.3906H72.8105V49.5ZM78.0352 46.9316C78.0352 47.7357 78.2712 48.39 78.7432 48.8945C79.2184 49.3958 79.8906 49.6465 80.7598 49.6465C81.2969 49.6465 81.7575 49.5439 82.1416 49.3389C82.529 49.1305 82.8057 48.8929 82.9717 48.626L82.1562 48.0156C82.013 48.2077 81.8242 48.3753 81.5898 48.5186C81.3555 48.6585 81.0771 48.7285 80.7549 48.7285C80.2536 48.7285 79.8792 48.5592 79.6318 48.2207C79.3877 47.8822 79.2656 47.4574 79.2656 46.9463V46.7559C79.2656 46.248 79.3812 45.8249 79.6123 45.4863C79.8434 45.1445 80.1771 44.9736 80.6133 44.9736C81.0397 44.9736 81.349 45.1022 81.541 45.3594C81.7331 45.6133 81.8291 45.9095 81.8291 46.248V46.3018H78.8604V47.1562H83.0645V46.6875C83.0645 45.8802 82.8512 45.2422 82.4248 44.7734C81.9984 44.3014 81.3962 44.0654 80.6182 44.0654C79.8499 44.0654 79.2266 44.3177 78.748 44.8223C78.2728 45.3236 78.0352 45.9746 78.0352 46.7754V46.9316ZM84.0947 49.5H85.3252V45.8818C85.4456 45.641 85.6117 45.4456 85.8232 45.2959C86.0381 45.1462 86.2839 45.0713 86.5605 45.0713C86.8828 45.0713 87.1318 45.1559 87.3076 45.3252C87.4834 45.4945 87.5713 45.7793 87.5713 46.1797V49.5H88.8018V46.1992C88.8018 45.4408 88.6309 44.9036 88.2891 44.5879C87.9505 44.2689 87.498 44.1094 86.9316 44.1094C86.5931 44.1094 86.2822 44.1761 85.999 44.3096C85.7191 44.4398 85.488 44.6237 85.3057 44.8613H85.2812L85.2422 44.2119H84.0947V49.5ZM90.1201 50.8916C90.3805 51.1032 90.7077 51.279 91.1016 51.4189C91.4954 51.5589 91.9251 51.6289 92.3906 51.6289C93.1491 51.6289 93.7676 51.4255 94.2461 51.0186C94.7279 50.6117 94.9688 50.0273 94.9688 49.2656V44.2119H93.8262L93.7871 44.8564H93.7627C93.6325 44.6481 93.4258 44.4723 93.1426 44.3291C92.8626 44.1859 92.5387 44.1143 92.1709 44.1143C91.471 44.1143 90.9095 44.3633 90.4863 44.8613C90.0632 45.3594 89.8516 45.9974 89.8516 46.7754V46.9316C89.8516 47.7096 90.0632 48.3493 90.4863 48.8506C90.9095 49.3486 91.471 49.5977 92.1709 49.5977C92.542 49.5977 92.8594 49.5374 93.123 49.417C93.3867 49.2933 93.5934 49.1257 93.7432 48.9141V49.2754C93.7432 49.7246 93.6178 50.0697 93.3672 50.3105C93.1165 50.5514 92.7764 50.6719 92.3467 50.6719C91.9919 50.6719 91.668 50.6084 91.375 50.4814C91.082 50.3577 90.8558 50.2178 90.6963 50.0615L90.1201 50.8916ZM91.1113 46.9512V46.7607C91.1113 46.2757 91.2204 45.8704 91.4385 45.5449C91.6598 45.2161 92.0033 45.0518 92.4688 45.0518C92.7812 45.0518 93.0465 45.1364 93.2646 45.3057C93.486 45.4717 93.6455 45.667 93.7432 45.8916V47.8252C93.6455 48.04 93.4876 48.2321 93.2695 48.4014C93.0514 48.5706 92.7861 48.6553 92.4736 48.6553C92.0049 48.6553 91.6598 48.4925 91.4385 48.167C91.2204 47.8415 91.1113 47.4362 91.1113 46.9512ZM95.6719 45.1055H98.8799V44.2119H95.6719V45.1055ZM96.5654 48.0693C96.5654 48.613 96.7021 49.0117 96.9756 49.2656C97.249 49.5195 97.6152 49.6465 98.0742 49.6465C98.237 49.6465 98.3867 49.6318 98.5234 49.6025C98.6602 49.5732 98.7692 49.5391 98.8506 49.5V48.5869C98.766 48.6195 98.6813 48.6455 98.5967 48.665C98.512 48.6846 98.4258 48.6943 98.3379 48.6943C98.1556 48.6943 98.0189 48.6471 97.9277 48.5527C97.8366 48.4551 97.791 48.2923 97.791 48.0645V43.1035H96.5654V44.5732V44.7197V48.0693ZM99.8174 49.5H101.048V45.8965C101.165 45.6491 101.328 45.4505 101.536 45.3008C101.748 45.1478 101.993 45.0713 102.273 45.0713C102.596 45.0713 102.845 45.1576 103.021 45.3301C103.2 45.5026 103.289 45.7923 103.289 46.1992V49.5H104.52V46.1895C104.52 45.4408 104.352 44.9069 104.017 44.5879C103.681 44.2689 103.237 44.1094 102.684 44.1094C102.329 44.1094 102.013 44.1777 101.736 44.3145C101.46 44.4512 101.23 44.6383 101.048 44.876V42.0049H99.8174V49.5Z" fill="#2BCDC0"/>
<defs>
<filter id="filter0_d_194_2666" x="0" y="-8" width="445" height="235" filterUnits="userSpaceOnUse" color-interpolation-filters="sRGB">
<feFlood flood-opacity="0" result="BackgroundImageFix"/>
<feColorMatrix in="SourceAlpha" type="matrix" values="0 0 0 0 0 0 0 0 0 0 0 0 0 0 0 0 0 0 127 0" result="hardAlpha"/>
<feOffset dy="4"/>
<feGaussianBlur stdDeviation="20"/>
<feComposite in2="hardAlpha" operator="out"/>
<feColorMatrix type="matrix" values="0 0 0 0 0 0 0 0 0 0 0 0 0 0 0 0 0 0 0.15 0"/>
<feBlend mode="normal" in2="BackgroundImageFix" result="effect1_dropShadow_194_2666"/>
<feBlend mode="normal" in="SourceGraphic" in2="effect1_dropShadow_194_2666" result="shape"/>
</filter>
</defs>
</svg>
