<svg width="18" height="19" viewBox="0 0 18 19" fill="none" xmlns="http://www.w3.org/2000/svg">
<path fill-rule="evenodd" clip-rule="evenodd" d="M0 2.66772C0 1.56316 0.895431 0.667725 2 0.667725H16C17.1046 0.667725 18 1.56316 18 2.66772V16.6677C18 17.7723 17.1046 18.6677 16 18.6677H2C0.895431 18.6677 0 17.7723 0 16.6677V2.66772ZM12.7071 8.37392C13.0976 7.98339 13.0976 7.35023 12.7071 6.9597C12.3166 6.56918 11.6834 6.56918 11.2929 6.9597L8 10.2526L6.70711 8.9597C6.31658 8.56918 5.68342 8.56918 5.29289 8.9597C4.90237 9.35023 4.90237 9.98339 5.29289 10.3739L7.29289 12.3739C7.68342 12.7644 8.31658 12.7644 8.70711 12.3739L12.7071 8.37392Z" fill="#2BCDC0"/>
</svg>
