<svg width="14" height="14" viewBox="0 0 14 14" fill="none" xmlns="http://www.w3.org/2000/svg">
<path d="M6.06634 8.19998L4.61634 6.74998C4.49412 6.62776 4.34412 6.56665 4.16634 6.56665C3.98856 6.56665 3.83301 6.63331 3.69967 6.76665C3.57745 6.88887 3.51634 7.04442 3.51634 7.23331C3.51634 7.4222 3.57745 7.57776 3.69967 7.69998L5.59967 9.59998C5.7219 9.7222 5.87745 9.78331 6.06634 9.78331C6.25523 9.78331 6.41079 9.7222 6.53301 9.59998L10.3163 5.81665C10.4386 5.69442 10.4997 5.54442 10.4997 5.36665C10.4997 5.18887 10.433 5.03331 10.2997 4.89998C10.1775 4.77776 10.0219 4.71665 9.83301 4.71665C9.64412 4.71665 9.48856 4.77776 9.36634 4.89998L6.06634 8.19998ZM6.99967 13.6666C6.07745 13.6666 5.21079 13.4915 4.39967 13.1413C3.58856 12.7915 2.88301 12.3166 2.28301 11.7166C1.68301 11.1166 1.20812 10.4111 0.858341 9.59998C0.508119 8.78887 0.333008 7.9222 0.333008 6.99998C0.333008 6.07776 0.508119 5.21109 0.858341 4.39998C1.20812 3.58887 1.68301 2.88331 2.28301 2.28331C2.88301 1.68331 3.58856 1.2082 4.39967 0.85798C5.21079 0.508202 6.07745 0.333313 6.99967 0.333313C7.9219 0.333313 8.78856 0.508202 9.59967 0.85798C10.4108 1.2082 11.1163 1.68331 11.7163 2.28331C12.3163 2.88331 12.7912 3.58887 13.141 4.39998C13.4912 5.21109 13.6663 6.07776 13.6663 6.99998C13.6663 7.9222 13.4912 8.78887 13.141 9.59998C12.7912 10.4111 12.3163 11.1166 11.7163 11.7166C11.1163 12.3166 10.4108 12.7915 9.59967 13.1413C8.78856 13.4915 7.9219 13.6666 6.99967 13.6666Z" fill="#010D45"/>
</svg>
