<svg width="36" height="39" viewBox="0 0 36 39" fill="none" xmlns="http://www.w3.org/2000/svg">
<path d="M34.0688 21.6H36V24H35.5875C35.3375 24.7125 34.9875 25.3625 34.5375 25.95C34.0875 26.5375 33.5563 27.0438 32.9438 27.4688C32.3313 27.8938 31.6813 28.2188 30.9938 28.4438C30.3063 28.6688 29.575 28.7875 28.8 28.8C28.05 28.8 27.3188 28.6875 26.6063 28.4625C25.8938 28.2375 25.2375 27.9125 24.6375 27.4875C24.0375 27.0625 23.5125 26.5563 23.0625 25.9688C22.6125 25.3813 22.2625 24.725 22.0125 24H21.6V21.6H23.5312L27.0375 11.1L19.2 8.49375V31.2375C21.3125 31.375 23.2938 31.8438 25.1438 32.6438C26.9938 33.4438 28.6938 34.5625 30.2438 36H33.6V38.4H2.4V36H5.75625C7.29375 34.575 8.99375 33.4625 10.8563 32.6625C12.7188 31.8625 14.7 31.3875 16.8 31.2375V7.6875L9.4125 5.23125L12.4688 14.4H14.4V16.8H13.9875C13.7375 17.5125 13.3875 18.1625 12.9375 18.75C12.4875 19.3375 11.9563 19.8438 11.3438 20.2688C10.7313 20.6938 10.0813 21.0188 9.39375 21.2438C8.70625 21.4688 7.975 21.5875 7.2 21.6C6.45 21.6 5.71875 21.4875 5.00625 21.2625C4.29375 21.0375 3.6375 20.7125 3.0375 20.2875C2.4375 19.8625 1.9125 19.3563 1.4625 18.7688C1.0125 18.1813 0.6625 17.525 0.4125 16.8H0V14.4H1.93125L5.4375 3.9L0.525 2.26875L1.29375 0L16.8 5.15625V0H19.2V5.9625L35.4563 11.3625L34.6875 13.65L30.9938 12.4125L34.0688 21.6ZM11.3625 16.8H3.0375C3.475 17.55 4.0625 18.1375 4.8 18.5625C5.5375 18.9875 6.3375 19.2 7.2 19.2C8.0625 19.2 8.8625 18.9875 9.6 18.5625C10.3375 18.1375 10.925 17.55 11.3625 16.8ZM9.9375 14.4L7.2 6.1875L4.4625 14.4H9.9375ZM18 33.6C16.525 33.6 15.0813 33.8 13.6688 34.2C12.2563 34.6 10.925 35.2 9.675 36H26.325C25.0875 35.2125 23.7563 34.6188 22.3313 34.2188C20.9062 33.8188 19.4625 33.6125 18 33.6ZM28.8 13.3875L26.0625 21.6H31.5375L28.8 13.3875ZM32.9625 24H24.6375C25.075 24.75 25.6625 25.3375 26.4 25.7625C27.1375 26.1875 27.9375 26.4 28.8 26.4C29.6625 26.4 30.4625 26.1875 31.2 25.7625C31.9375 25.3375 32.525 24.75 32.9625 24Z" fill="white"/>
</svg>
