<svg width="209" height="54" viewBox="0 0 209 54" fill="none" xmlns="http://www.w3.org/2000/svg">
<g style="mix-blend-mode:luminosity" clip-path="url(#clip0_230_994)">
<path d="M79.4847 45.4506C79.4847 48.1033 81.1917 49.3115 83.4241 49.3115C86.523 49.3115 87.2321 47.2629 87.2321 45.3193V39.9351C87.2321 38.2542 85.7089 38.9371 85.7089 38.333C85.7089 38.2542 85.814 38.1754 85.8665 38.1754C86.5231 38.1754 87.1534 38.228 87.8099 38.228C88.1251 38.228 88.414 38.1754 88.7291 38.1754C88.8079 38.1754 88.9392 38.2542 88.9392 38.3593C88.9392 38.8058 87.9675 38.4644 87.9675 39.9614V45.0829C87.9675 45.8971 88.1776 49.9681 83.3715 49.9681C79.0382 49.9681 78.1978 47.5255 78.1978 44.9779V39.4099C78.1978 38.4381 76.8584 38.8321 76.8584 38.3068C76.8584 38.2017 77.1473 38.1492 77.2261 38.1492C77.6463 38.1492 78.0665 38.2017 78.5129 38.2017C79.0382 38.2017 79.5635 38.1492 80.0887 38.1492C80.1675 38.1492 80.614 38.1229 80.614 38.3068C80.614 38.7533 79.5109 38.3068 79.5109 39.4887V45.4506H79.4847ZM95.216 41.4322C95.216 37.9916 93.22 38.9634 93.22 38.333C93.22 38.228 93.3776 38.1754 93.4564 38.1754C93.719 38.1754 93.9816 38.228 94.2443 38.228C94.4806 38.228 94.7695 38.1754 95.0059 38.1754C95.1897 38.1754 95.3473 38.4381 95.4261 38.5431L103.331 47.3416C103.436 47.4467 103.489 47.5255 103.541 47.5255C103.567 47.5255 103.594 47.473 103.594 47.3416V40.4342C103.594 38.2542 101.755 38.8846 101.755 38.333C101.755 38.228 101.834 38.1754 101.939 38.1754C102.438 38.1754 102.911 38.228 103.436 38.228C103.988 38.228 104.697 38.1754 105.117 38.1754C105.222 38.1754 105.275 38.228 105.275 38.333C105.275 38.7533 104.303 38.4643 104.303 39.6725V49.2589C104.303 49.7317 104.277 49.9681 104.145 49.9681C104.04 49.9681 103.856 49.8893 103.515 49.4953L96.3978 41.4847C96.3715 41.4585 96.1614 41.1696 96.0564 41.1696C95.9776 41.1696 95.9513 41.2221 95.9513 41.5373V48.2872C95.9513 49.7842 97.3958 49.2064 97.3958 49.6529C97.3958 49.7317 97.3695 49.863 97.2119 49.863C96.818 49.863 96.3453 49.8105 95.5311 49.8105C94.9534 49.8105 94.0867 49.863 93.9816 49.863C93.7715 49.863 93.7715 49.7579 93.7715 49.6792C93.7715 49.1013 95.216 49.8367 95.216 47.5255V41.4322ZM111.972 39.5937C111.945 38.3856 110.632 38.727 110.632 38.3593C110.632 38.2017 110.658 38.1754 110.79 38.1754C111.394 38.1754 111.998 38.228 112.602 38.228C113.101 38.228 113.626 38.1754 114.125 38.1754C114.388 38.1754 114.44 38.2017 114.44 38.333C114.44 38.727 113.258 38.3593 113.258 39.5937V48.471C113.258 49.6004 114.729 49.2064 114.729 49.7054C114.729 49.8367 114.677 49.863 114.414 49.863C114.02 49.863 113.311 49.8105 112.602 49.8105C111.604 49.8105 111.236 49.863 111.026 49.863C110.737 49.863 110.685 49.7842 110.685 49.6266C110.685 49.1539 111.972 49.6792 111.972 48.0508V39.5937ZM119.929 39.4361C119.509 38.4381 118.642 38.7533 118.642 38.3856C118.642 38.228 118.721 38.1492 118.879 38.1492C119.404 38.1492 119.903 38.2017 120.402 38.2017C120.848 38.2017 121.479 38.1492 121.715 38.1492C121.82 38.1492 121.951 38.228 121.951 38.3068C121.978 38.5431 121.269 38.5694 121.269 39.1472C121.269 39.3836 121.347 39.6462 121.426 39.8038L124.315 46.6325C124.683 47.4992 124.788 47.8932 124.972 47.8932C125.129 47.8932 125.182 47.6306 125.26 47.4204L128.149 40.3291C128.254 40.0665 128.438 39.5412 128.386 39.1997C128.386 38.4381 127.335 38.7533 127.335 38.3593C127.335 38.2017 127.414 38.1492 127.572 38.1492C127.939 38.1492 128.307 38.2017 128.648 38.2017C129.436 38.2017 129.699 38.1492 129.935 38.1492C130.119 38.1492 130.224 38.228 130.224 38.3593C130.224 38.727 129.751 38.3068 129.305 39.4361L125.182 49.1801C124.998 49.6004 124.893 50.1519 124.63 50.1519C124.367 50.1519 124.157 49.469 124.026 49.1013L119.929 39.4361ZM153.099 43.8748C154.254 43.402 155.2 42.2989 155.2 41.012C155.2 37.834 151.549 38.1492 151.287 38.1492C150.42 38.1492 149.475 38.2017 148.529 38.2017C147.689 38.2017 147.767 38.1492 147.479 38.1492C147.269 38.1492 147.137 38.2542 147.137 38.333C147.137 38.8846 148.555 38.228 148.555 39.8038V48.2084C148.555 49.469 147.347 49.2327 147.347 49.6529C147.347 49.7579 147.426 49.8367 147.505 49.8367C148.135 49.8367 148.765 49.7842 149.396 49.7842C150.761 49.7842 151.155 49.8367 151.287 49.8367C151.418 49.8367 151.576 49.863 151.576 49.7054C151.576 49.1276 149.842 49.6529 149.842 48.2346V44.7415C149.842 44.5839 149.737 44.2687 150.289 44.2687C152.153 44.2687 151.891 44.2162 152.495 45.1355L154.333 48.0245C154.963 48.97 155.62 49.8105 156.828 49.8105C156.986 49.8105 157.905 49.8105 157.905 49.6004C157.905 49.2064 157.091 49.8105 155.909 47.9982L153.099 43.8748ZM149.842 39.3048C149.842 38.6482 150.184 38.7007 150.788 38.7007C152.416 38.7007 153.965 39.3836 153.965 41.4059C153.965 43.4545 152.363 43.7697 151.654 43.7697C150.866 43.7697 149.842 43.8485 149.842 43.5333V39.3048ZM161.083 46.9214C161.03 46.58 161.109 46.3961 161.266 46.3961C161.503 46.3961 161.503 46.6062 161.582 46.9477C161.792 47.7093 162.763 49.4428 165.048 49.4428C166.624 49.4428 168.174 48.5761 168.174 46.8164C168.174 43.6384 161.424 45.4244 161.424 41.0908C161.424 38.9896 163.184 37.9653 165.101 37.9653C167.123 37.9653 167.675 38.5694 167.911 38.5694C168.069 38.5694 168.095 38.3856 168.252 38.3856C168.357 38.3856 168.436 38.4381 168.436 38.6219L168.673 40.8807C168.699 41.012 168.646 41.117 168.489 41.117C168.305 41.117 168.2 40.7756 168.147 40.618C167.648 39.1997 166.44 38.4643 164.97 38.4643C163.656 38.4643 162.264 39.0947 162.264 40.618C162.264 43.7172 169.014 41.905 169.014 46.4749C169.014 47.8669 168.042 49.9418 164.26 49.9418C163.026 49.9418 161.529 49.3377 161.45 49.0226L161.083 46.9214ZM175.343 39.5937C175.317 38.3856 174.004 38.727 174.004 38.3593C174.004 38.2017 174.03 38.1754 174.161 38.1754C174.765 38.1754 175.37 38.228 175.974 38.228C176.473 38.228 176.998 38.1754 177.523 38.1754C177.786 38.1754 177.838 38.2017 177.838 38.333C177.838 38.727 176.656 38.3593 176.656 39.5937V48.471C176.656 49.6004 178.127 49.2064 178.127 49.7054C178.127 49.8367 178.075 49.863 177.786 49.863C177.392 49.863 176.683 49.8105 175.974 49.8105C174.976 49.8105 174.608 49.863 174.398 49.863C174.109 49.863 174.056 49.7842 174.056 49.6266C174.056 49.1539 175.343 49.6792 175.343 48.0508V39.5937ZM186.768 39.8301C186.768 39.6988 186.846 39.0947 186.61 39.0684H183.905C182.881 39.0684 182.854 39.3048 182.539 40.2241C182.487 40.3816 182.487 40.5917 182.25 40.5917C182.145 40.5917 182.093 40.4867 182.093 40.3816L182.277 38.7795C182.303 38.5694 182.277 38.1492 182.565 38.1492C183.852 38.1492 185.139 38.2017 187.266 38.2017C190.26 38.2017 191.784 38.1492 192.125 38.1492C192.519 38.1492 192.598 38.2542 192.624 38.6219L192.703 39.9351C192.729 40.0927 192.729 40.3028 192.519 40.3028C191.915 40.3028 192.808 39.0422 191.101 39.0422H188.737C188.002 39.0422 188.081 38.9634 188.081 39.8563V48.2872C188.081 49.6792 189.42 49.1276 189.42 49.6529C189.42 49.7054 189.446 49.863 189.262 49.863C188.869 49.863 188.396 49.8105 187.923 49.8105C186.085 49.8105 185.77 49.863 185.664 49.863C185.507 49.863 185.454 49.8105 185.454 49.6529C185.454 49.2589 186.768 49.4165 186.768 48.4185V39.8301ZM197.01 39.1997C196.59 38.4906 195.776 38.7007 195.776 38.4118C195.776 38.3068 195.881 38.1754 195.986 38.1754C196.432 38.1754 196.747 38.228 197.877 38.228C198.428 38.228 198.875 38.1754 199.032 38.1754C199.137 38.1754 199.347 38.2017 199.347 38.333C199.347 38.6219 198.586 38.6219 198.586 39.121C198.586 39.3836 198.77 39.6462 198.875 39.8038L200.871 43.0081C201.002 43.2182 201.107 43.297 201.186 43.297C201.264 43.297 201.37 43.1919 201.501 42.9555L203.208 40.1978C203.313 40.0139 203.549 39.725 203.549 39.2785C203.549 38.4643 202.315 38.8058 202.315 38.4118C202.315 38.2017 202.473 38.1754 202.656 38.1754C203.05 38.1754 203.471 38.228 203.864 38.228C204.337 38.228 204.836 38.1754 205.309 38.1754C205.414 38.1754 205.493 38.2805 205.493 38.3593C205.493 38.5431 205.204 38.6219 205.099 38.6745C204.652 38.9371 204.442 39.4099 204.18 39.8038L201.869 43.402C201.606 43.8222 201.475 43.901 201.475 44.1374V48.1821C201.475 49.6266 202.84 49.1539 202.84 49.6792C202.84 49.8367 202.683 49.8367 202.473 49.8367C202.21 49.8367 201.264 49.7842 200.66 49.7842C199.925 49.7842 199.321 49.8367 199.163 49.8367C199.006 49.8367 198.901 49.8105 198.901 49.6266C198.901 49.1539 200.188 49.6004 200.188 48.4185V44.4263C200.188 44.1112 199.951 43.796 199.794 43.5859L197.01 39.1997ZM136.658 42.8767C136.658 43.4545 136.632 43.4545 137.289 43.4545H139.075C140.782 43.4545 140.361 42.1151 140.729 42.1151C140.86 42.1151 140.913 42.2989 140.913 42.4302C140.913 43.0081 140.887 43.5859 140.887 44.1111C140.887 44.5314 140.913 44.9779 140.913 45.4244C140.913 45.5819 140.86 45.6345 140.729 45.6345C140.23 45.6345 140.782 44.1899 139.39 44.1899H136.947C136.606 44.1899 136.658 44.4788 136.658 44.7152V47.7619C136.658 48.7336 136.527 49.1276 137.919 49.1276C141.727 49.1276 142.279 47.4204 142.515 47.4204C142.62 47.4204 142.646 47.578 142.646 47.6306C142.646 48.2084 142.226 48.7862 141.806 49.2327C141.281 49.8105 140.913 49.7842 140.204 49.7842C138.943 49.7842 137.709 49.6792 136.448 49.7317C135.792 49.7579 135.083 49.7842 134.426 49.7842C134.269 49.7842 134.19 49.7579 134.19 49.6266C134.216 49.4428 134.4 49.469 134.925 49.2064C135.345 48.9963 135.398 48.5498 135.398 47.7619V40.1978C135.398 39.4361 135.398 38.6482 134.505 38.5169C134.374 38.4906 134.006 38.4643 134.006 38.2805C134.006 38.1492 134.111 38.0704 134.584 38.0704C137.709 38.0704 138.549 38.1229 139.258 38.1229C139.6 38.1229 141.097 38.0704 141.622 38.0704C141.753 38.0704 141.78 38.228 141.78 38.4381C141.78 40.2766 141.543 40.4079 141.438 40.4079C141.044 40.4079 141.307 39.62 141.044 39.226C140.624 38.6482 138.917 38.7533 138.26 38.7533C136.685 38.7533 136.711 38.7007 136.711 39.8038L136.658 42.8767ZM146.586 30.7164C155.489 30.7164 161.66 24.912 161.66 15.9559C161.66 7.70898 155.41 1.82581 147.269 1.82581C139.075 1.82581 132.64 7.8403 132.64 16.1398C132.614 24.5706 137.919 30.7164 146.586 30.7164ZM146.06 3.13901C153.834 3.13901 158.745 10.2041 158.745 17.453C158.745 24.8332 154.071 29.482 148.24 29.482C140.335 29.482 135.503 22.3381 135.503 14.9579C135.529 8.68076 139.363 3.13901 146.06 3.13901ZM177.339 15.6145C180.071 14.5377 182.224 11.9375 182.224 8.91714C182.224 1.43184 173.636 2.21977 173.032 2.21977C171.01 2.21977 168.804 2.37735 166.572 2.37735C164.602 2.37735 164.786 2.21977 164.103 2.21977C163.63 2.21977 163.341 2.45615 163.341 2.69252C163.341 4.00573 166.677 2.42988 166.677 6.13313V25.8313C166.677 28.7729 163.84 28.2476 163.84 29.2194C163.84 29.4557 163.998 29.6396 164.234 29.6396C165.705 29.6396 167.176 29.482 168.646 29.482C171.85 29.482 172.743 29.6396 173.111 29.6396C173.426 29.6396 173.768 29.7184 173.768 29.3244C173.768 28.0112 169.749 29.2194 169.749 25.8575V17.6894C169.749 17.2954 169.513 16.6125 170.747 16.6125C175.107 16.6125 174.503 16.5075 175.921 18.6611L180.228 25.4636C181.699 27.6698 183.222 29.6658 186.032 29.6658C186.374 29.6658 189.446 29.6658 189.446 29.1931C189.446 28.2476 186.636 29.6921 183.852 25.4373L177.339 15.6145ZM169.697 4.92498C169.697 3.42792 170.511 3.48045 171.903 3.48045C175.711 3.48045 179.309 5.0563 179.309 9.78385C179.309 14.5902 175.58 15.2731 173.925 15.2731C172.113 15.2731 169.697 15.4569 169.697 14.7215V4.92498ZM188.632 4.66234C187.634 2.98143 185.717 3.45419 185.717 2.79758C185.717 2.53494 185.953 2.21977 186.216 2.21977C187.266 2.21977 188.002 2.37735 190.628 2.37735C191.915 2.37735 192.939 2.21977 193.333 2.21977C193.596 2.21977 194.069 2.2723 194.069 2.61373C194.069 3.27034 192.256 3.2966 192.256 4.42596C192.256 5.0563 192.729 5.66038 192.939 6.00181L197.614 13.4871C197.929 13.9599 198.165 14.1962 198.376 14.1962C198.559 14.1962 198.796 13.9336 199.111 13.4083L203.103 6.94732C203.365 6.5271 203.917 5.87049 203.917 4.81992C203.917 2.9289 201.028 3.74309 201.028 2.79758C201.028 2.29856 201.422 2.21977 201.842 2.21977C202.761 2.21977 203.733 2.37735 204.652 2.37735C205.782 2.37735 206.885 2.21977 208.014 2.21977C208.25 2.21977 208.434 2.48241 208.434 2.69252C208.434 3.11275 207.778 3.27034 207.515 3.42792C206.464 4.05826 205.965 5.13509 205.361 6.10687L199.951 14.5639C199.321 15.5357 199.032 15.7196 199.032 16.2974V25.7787C199.032 29.1406 202.21 28.0637 202.21 29.2719C202.21 29.6133 201.869 29.6658 201.317 29.6658C200.739 29.6658 198.481 29.5083 197.062 29.5083C195.329 29.5083 193.937 29.6658 193.596 29.6658C193.254 29.6658 193.018 29.6396 193.018 29.1931C193.018 28.1163 195.986 29.1143 195.986 26.3566V16.9802C195.986 16.2448 195.408 15.4569 195.093 15.0104L188.632 4.66234ZM128.202 26.0676C128.386 29.3244 131.248 27.8799 131.248 29.2456C131.248 29.6396 130.749 29.6396 130.329 29.6396C129.594 29.6396 128.228 29.4557 126.705 29.4557C125.523 29.4557 124.262 29.6396 123.343 29.6396C123.002 29.6396 122.923 29.4557 122.923 29.2981C122.923 28.1425 125.365 28.983 125.313 26.1202L124.262 11.1233C124.262 10.1516 124.079 9.62627 123.842 9.62627C123.58 9.62627 123.212 9.9677 122.818 10.7819L114.808 27.1182C114.624 27.4597 113.994 29.0618 113.6 29.0618C113.206 29.0618 112.943 28.2213 112.812 27.9324L104.565 10.6768C104.434 10.3617 104.25 10.2566 104.093 10.2566C103.988 10.2566 103.856 10.4405 103.83 10.8344L102.701 24.413C102.517 29.5608 106.167 27.8536 106.167 29.2456C106.167 29.6396 105.747 29.6658 105.196 29.6658C104.697 29.6658 102.963 29.482 101.808 29.482C99.7857 29.482 99.1291 29.6658 98.3938 29.6658C98.1049 29.6658 97.9998 29.482 97.9998 29.1931C97.9998 27.8799 100.469 29.4557 100.731 25.4373C101.204 19.1076 101.677 15.0104 101.677 10.9132C101.677 1.79954 98.6826 3.97947 98.6826 2.66626C98.6826 2.32483 98.9978 2.24603 99.3392 2.24603C100.022 2.24603 100.731 2.40362 101.466 2.40362C102.149 2.40362 102.858 2.24603 103.541 2.24603C104.093 2.24603 104.172 2.90264 104.355 3.32286L113.6 23.021C114.02 23.8352 114.178 24.1766 114.466 24.1766C114.65 24.1766 115.044 23.3624 115.675 22.0755L124.919 3.55924C125.155 3.13901 125.444 2.1935 125.917 2.24603C126.311 2.24603 127.545 2.40362 127.729 2.40362C128.622 2.40362 128.963 2.24603 129.594 2.24603C129.83 2.24603 129.988 2.48241 129.988 2.71879C129.988 3.9532 126.889 2.29856 127.046 6.89479L128.202 26.0676Z" fill="#004990"/>
<path d="M81.1654 13.5134C81.1654 14.8266 81.0867 14.8266 82.6361 14.8266H86.8119C90.8301 14.8266 89.7796 11.7274 90.6988 11.7274C91.0139 11.7274 91.119 12.1476 91.119 12.4628C91.119 13.8285 91.0665 15.1417 91.0665 16.3499C91.0665 17.3479 91.119 18.3722 91.119 19.4228C91.119 19.7642 90.9614 19.9218 90.6988 19.9218C89.517 19.9218 90.8038 16.5075 87.5735 16.5075H81.8483C81.0341 16.5075 81.1654 17.1641 81.1654 17.7419V24.8858C81.1654 27.1707 80.8503 28.1163 84.1069 28.1163C93.0099 28.1163 94.323 24.1241 94.822 24.1241C95.0846 24.1241 95.1372 24.5181 95.1372 24.5969C95.1372 25.9889 94.1392 27.3546 93.22 28.3526C91.9856 29.7709 91.119 29.6921 89.4382 29.6921C86.4968 29.6921 83.5816 29.4557 80.6402 29.5345C79.0907 29.587 77.4887 29.6921 75.9392 29.6921C75.5978 29.6921 75.3614 29.6133 75.3614 29.2981C75.4402 28.8254 75.8341 28.9042 77.0685 28.2738C78.0665 27.8011 78.1452 26.7243 78.1452 24.912V7.23623C78.1452 5.50279 78.1452 3.63803 76.0442 3.32286C75.7291 3.24407 74.8887 3.16528 74.8887 2.71879C74.8887 2.40362 75.125 2.24603 76.2281 2.24603C83.5028 2.24603 85.525 2.40362 87.1533 2.40362C87.9149 2.40362 91.4604 2.24603 92.6685 2.24603C92.9836 2.24603 93.0624 2.64 93.0624 3.08649C93.0624 7.39381 92.5109 7.70898 92.3008 7.70898C91.3553 7.70898 91.9856 5.84423 91.3553 4.95124C90.3574 3.63803 86.3392 3.87441 84.816 3.87441C81.1129 3.87441 81.1917 3.71683 81.1917 6.31698L81.1654 13.5134Z" fill="#004990"/>
<path d="M2.482 0.0135498L0.538566 2.06216C0.512303 3.53295 0.486041 5.37144 0.486041 6.29069C0.302202 20.7097 1.27392 43.1393 24.7527 53.9865C37.1749 48.2346 46.5507 38.3593 49.0194 23.021C50.4638 14.1437 49.5972 5.71288 49.5972 0.039814L2.482 0.0135498ZM24.8315 52.3318C-0.564463 40.5654 2.482 14.3013 2.482 2.03589L47.4699 2.06216C47.4436 14.3538 50.28 40.618 24.8315 52.3318Z" fill="#004990"/>
<path d="M15.2459 32.2397C13.4338 34.157 11.6742 36.0743 11.0702 36.7046C10.9389 36.8622 10.9126 36.9935 10.9914 37.0986C11.1227 37.2299 11.2803 37.4137 11.3591 37.4137C11.4641 37.44 11.5429 37.4925 11.753 37.2824C11.8318 37.2036 13.8015 35.2863 16.1651 33.0276C16.1651 33.0276 15.9288 32.8963 15.7187 32.7387C15.4823 32.5549 15.2459 32.2397 15.2459 32.2397ZM16.454 31.7407C16.9005 32.1872 17.6621 32.6074 17.6621 32.6074L17.2419 33.0014C17.0843 33.1589 16.5066 32.8963 15.955 32.3973C15.4035 31.8983 15.0621 31.3467 15.2197 31.1891L15.6662 30.7689C15.6662 30.7689 15.9813 31.2942 16.454 31.7407ZM36.9914 36.6783C37.3591 36.3106 37.3853 35.9692 37.3853 35.9692L37.8055 36.1793C37.9106 36.3106 37.8318 36.7834 37.4379 37.1511C37.0702 37.5188 36.5449 37.6501 36.4136 37.5188L36.2035 37.0723C36.2035 37.0723 36.5975 37.0723 36.9914 36.6783ZM36.3611 36.0217C36.5975 35.8116 36.6763 35.5227 36.6763 35.5227L36.9389 35.7066C37.0177 35.7854 36.9389 36.1005 36.6763 36.3632C36.4136 36.6258 36.0197 36.7309 35.9409 36.6258L35.7833 36.3369C35.8096 36.3369 36.1247 36.2581 36.3611 36.0217ZM37.6217 15.5094L37.149 15.9296C36.4924 16.1923 34.9954 15.0367 33.8399 14.0123C33.052 13.3295 31.4763 11.596 31.9227 10.8869L32.1328 10.6768C32.0015 10.598 31.8702 10.5192 31.7651 10.4667C31.6338 10.3879 31.45 10.3616 31.2662 10.3616C31.0823 10.3879 30.9247 10.4667 30.9247 10.6243C30.8985 10.9394 31.0823 11.3597 31.3187 11.8324C31.555 12.3314 32.553 13.7497 34.4965 15.2993C35.3894 16.0084 36.4136 16.4549 37.1752 16.7176C37.3066 16.7701 37.7793 16.8751 37.9894 16.665C38.1995 16.4549 37.9631 16.0872 37.8055 15.7458C37.753 15.6933 37.7005 15.6145 37.6217 15.5094ZM18.6338 16.6913C16.5328 14.6164 15.7449 14.1174 14.7995 13.7234C14.3005 13.5133 13.8278 13.3557 13.6702 13.4083C13.25 13.5659 12.6459 13.8285 12.252 14.1699C11.9894 14.4063 11.9894 14.5376 12.147 14.6164C12.3045 14.6952 13.355 14.9316 14.3268 15.4569C16.0338 16.3499 19.2116 18.5823 26.1449 25.7524C29.6641 29.4032 35.2055 35.0237 35.2055 35.0237L35.3369 34.9186C35.3369 34.9186 27.2742 25.8575 20.9712 19.1601C20.1308 18.2146 19.3429 17.4004 18.6338 16.6913ZM17.2156 8.15544V8.62819C17.2156 9.10095 17.6621 13.0406 19.9207 15.9034C21.8904 18.3722 27.8257 25.4373 28.7712 26.5666C29.6641 27.6172 35.4944 34.4459 36.2298 35.3126L36.3086 35.3914C36.3086 35.3914 36.2298 35.5752 36.0459 35.7066C35.8621 35.8641 35.652 35.8642 35.652 35.8642L35.4682 35.6803C35.2843 35.4702 25.2257 25.3847 24.254 24.4392C23.2823 23.4937 18.0823 18.4773 15.955 17.1115C14.0904 15.9296 13.25 15.273 11.2278 15.0892C11.2278 15.0892 9.78332 15.0367 9.67827 14.9579C9.65201 14.9579 9.67827 14.8791 9.7308 14.8791C10.6237 14.5114 12.5934 13.382 14.1167 11.9112C16.2965 9.86261 16.9793 8.41808 17.0843 8.1817C17.1106 8.12917 17.2156 8.12917 17.2156 8.15544Z" fill="#004990"/>
<path d="M13.0664 11.2283C13.3027 11.0182 14.1431 10.1778 14.8522 9.33732C15.5876 8.4706 15.9815 7.68267 15.9815 7.68267C15.9815 7.68267 16.0866 7.4463 16.0866 7.26245C16.0603 7.13113 15.929 7.0786 15.8765 7.02607C15.7977 6.94728 13.9855 7.78773 13.1714 8.52313C13.0664 8.60192 12.9088 8.96962 12.83 9.25852C12.7512 9.4949 13.3552 10.1252 12.9613 11.097C12.9088 11.2283 13.0401 11.2546 13.0664 11.2283ZM12.436 12.384C11.5169 13.1456 10.3613 13.8548 9.36332 14.275C8.73302 14.5376 7.81383 14.2487 8.47039 13.0143C8.68049 12.6466 8.94312 12.1738 9.33706 11.6748C10.5451 10.0727 12.7249 8.07664 14.8259 6.94728C15.4563 6.60584 16.0603 6.36946 16.3229 6.39573C16.8482 6.42199 16.8744 6.86848 16.7694 7.28871C16.533 8.18169 15.0098 10.2303 12.436 12.384ZM24.0967 25.017C23.6765 25.411 17.1371 31.6881 17.1371 31.6881C17.2421 31.7932 17.5047 31.977 17.5047 31.977C17.5047 31.977 23.5189 26.1989 23.9653 25.7787C24.0967 25.6736 24.3593 25.411 24.4381 25.3322L24.0967 25.017ZM36.4138 17.2954C36.4926 17.2954 36.5977 17.2691 36.6764 17.2691C36.7815 17.2691 36.9128 17.2428 36.9128 17.2166C36.9653 17.164 36.9916 17.1115 36.8865 17.1115C36.5714 17.1115 36.0199 16.9539 35.3896 16.6388C34.9956 16.7438 34.3653 16.9014 33.63 17.2428C32.6845 17.6631 30.6098 18.8975 26.3815 22.7846L26.7229 23.1785C28.1936 21.8653 30.1371 20.1319 31.2138 19.4228C33.1047 18.1883 34.4704 17.6368 35.3896 17.4267C35.7047 17.3479 36.0987 17.3216 36.4138 17.2954ZM32.2906 14.1962C31.135 12.988 30.7674 12.1213 30.5835 11.491C30.5835 11.4647 30.5573 11.4385 30.5573 11.4385C30.5573 11.4385 30.5047 11.4122 30.4785 11.4647C30.4785 11.491 30.4522 11.5172 30.4522 11.5435C30.3472 12.8042 30.4522 13.3295 29.927 14.5902C29.4805 15.667 28.7189 17.0065 27.6421 18.2409C27.0381 18.95 25.9876 20.1319 25.0158 21.235L25.6987 22.0229C25.7512 21.9441 25.9876 21.734 26.2239 21.4714C29.4542 18.0308 32.2643 15.8771 33.2623 15.1417C32.9472 14.8265 32.6057 14.5114 32.2906 14.1962ZM22.731 23.7826C21.3653 25.3322 19.9997 26.8293 19.6057 27.2758C19.2643 27.6435 16.2967 30.8477 16.2967 30.8477C16.2967 30.8477 16.3754 30.979 16.4542 31.0841C16.5593 31.1891 16.7169 31.3204 16.7169 31.3204C16.7169 31.3204 22.9674 24.912 23.4401 24.4392L22.731 23.7826ZM33.4461 9.96766V9.83634C33.131 9.75754 32.8684 9.75754 32.7371 9.88886C32.3169 10.3354 33.236 11.8324 34.7593 13.2507C36.2825 14.6689 37.8583 15.4569 38.2785 15.0104C38.436 14.8265 38.3835 14.4851 38.1734 14.0386C35.9411 14.3012 33.4461 11.3859 33.4461 9.96766Z" fill="#004990"/>
<path d="M39.7224 12.5678C39.6436 12.7254 39.3022 13.1456 38.777 13.382C38.1992 13.6184 37.4638 13.6709 37.0699 13.5396C35.3103 12.988 34.2598 11.2021 34.2598 11.2021C32.8679 8.96961 34.7325 7.99784 34.8901 7.97157C34.8901 7.97157 34.7063 8.70697 34.8113 9.20599C34.9164 9.65248 35.179 9.99392 35.2578 10.2566C35.4416 10.7556 35.2053 11.097 35.0739 11.2546C35.0214 11.3334 35.179 11.2809 35.2053 11.2809C35.2315 11.2546 35.2578 11.2283 35.3103 11.2021C35.5729 11.0182 35.8093 10.703 35.7305 10.4141C35.5729 9.73127 35.0739 9.28478 35.6517 7.86652C36.0194 6.9998 36.8335 6.13308 36.9123 6.08055C37.0436 6.00176 37.1224 5.87044 37.1224 5.9755C37.1224 6.08055 37.28 6.71089 37.3588 7.13112C37.4376 7.55135 37.9103 8.3918 37.8053 9.57369C37.7002 10.7556 35.783 12.0425 35.5204 12.1213C35.4416 12.1476 35.3103 12.2264 35.2578 12.2526C35.179 12.3314 35.284 12.3314 35.3366 12.3314C35.4416 12.3577 36.2558 12.1476 36.9123 11.7011C37.4638 11.3071 37.9891 10.7556 38.1729 10.4141C38.5143 9.7838 38.6719 8.91708 38.6982 8.83829C38.7507 8.70697 38.8032 8.70697 38.8295 8.78576C38.8558 8.86456 38.9871 9.36357 39.0396 9.62622C39.0659 9.7838 39.1447 10.1778 39.1447 10.6243C39.1447 11.5172 38.882 11.9112 38.383 12.3052C38.0941 12.5415 37.7527 12.6203 37.4113 12.6466L37.28 12.6729C37.2275 12.6729 37.175 12.6991 37.28 12.7517C37.3063 12.7779 37.3588 12.7779 37.4113 12.8042C37.7002 12.9355 38.3305 12.9092 38.7244 12.6729C38.9083 12.5678 39.1447 12.384 39.4861 12.0688C39.6174 11.9375 39.775 11.7274 39.8012 11.8061C39.8537 11.8324 39.9063 12.2264 39.7224 12.5678ZM40.3265 10.5455C40.1164 10.7818 39.7487 11.3597 39.5123 11.5698C39.7487 11.3597 39.88 10.8344 39.6174 9.4949C39.4335 8.54938 39.3285 8.23422 39.1972 7.91904C39.1184 7.7352 39.0133 7.78772 38.882 7.91904C38.7507 8.05037 38.4881 8.54938 38.4618 8.57565C38.4356 8.68071 38.4618 8.57565 38.0154 7.20991C37.7265 6.34319 37.6214 5.73912 37.6214 5.42395C37.6214 5.26636 37.6477 5.08251 37.6477 4.97746C37.6477 4.8724 37.5952 4.8724 37.3063 5.00372C37.1487 5.05625 35.9931 5.87044 35.4941 7.10486C35.2053 7.81399 35.2053 8.3918 35.1527 8.05037C35.0739 7.3675 35.0739 7.3675 35.0214 7.39376C34.6275 7.52508 33.2881 8.12916 33.2881 9.96765C33.2881 11.5172 36.2032 14.8265 38.5931 14.0911C38.5931 14.0911 40.4053 13.7497 40.4315 12.1213C40.5103 10.4667 40.3265 10.5455 40.3265 10.5455Z" fill="#004990"/>
</g>
<defs>
<clipPath id="clip0_230_994">
<rect width="208" height="54" fill="white" transform="translate(0.459961)"/>
</clipPath>
</defs>
</svg>
