<svg width="143" height="44" viewBox="0 0 143 44" fill="none" xmlns="http://www.w3.org/2000/svg">
<path d="M137.383 0.769043H5.61636C2.71753 0.769043 0.345703 3.15751 0.345703 6.07678V37.923C0.345703 40.8423 2.71749 43.2308 5.61636 43.2308H137.383C140.282 43.2308 142.653 40.8423 142.653 37.9231V6.07678C142.653 3.15751 140.282 0.769043 137.383 0.769043M137.383 1.61825C139.824 1.61825 141.81 3.61866 141.81 6.07678V37.923C141.81 40.3816 139.824 42.382 137.383 42.382H5.61636C3.17544 42.382 1.18902 40.3816 1.18902 37.9231V6.07678C1.18902 3.61866 3.1754 1.6183 5.61636 1.6183H137.383" fill="white"/>
<path d="M50.3314 11.6428C50.3314 12.5322 50.0698 13.2404 49.546 13.7688C48.951 14.397 48.1756 14.7113 47.2224 14.7113C46.3095 14.7113 45.5333 14.3929 44.8951 13.7551C44.2556 13.1177 43.9365 12.3274 43.9365 11.3844C43.9365 10.4411 44.2556 9.65121 44.8951 9.01335C45.5333 8.37606 46.3095 8.05713 47.2224 8.05713C47.6753 8.05713 48.109 8.14634 48.5207 8.32425C48.9325 8.50258 49.2628 8.73931 49.5098 9.03577L48.9539 9.59596C48.5352 9.09216 47.9587 8.84045 47.2224 8.84045C46.5566 8.84045 45.9809 9.07603 45.4951 9.54749C45.0091 10.0194 44.7662 10.6314 44.7662 11.3844C44.7662 12.1375 45.0091 12.7495 45.4951 13.2215C45.9809 13.6929 46.5566 13.9284 47.2224 13.9284C47.9286 13.9284 48.5175 13.6916 48.9889 13.2173C49.2949 12.9083 49.4719 12.4788 49.5192 11.9272H47.2223V11.1622H50.2872C50.3168 11.3285 50.3313 11.4882 50.3313 11.6428" fill="white"/>
<path d="M50.3312 11.6428H50.2258C50.2249 12.5119 49.9729 13.1869 49.4713 13.6937L49.4702 13.6945L49.4698 13.6954C48.8937 14.302 48.1532 14.6038 47.2222 14.6051C46.3337 14.6038 45.59 14.2987 44.969 13.68C44.3494 13.0601 44.043 12.3033 44.0418 11.3844C44.043 10.4651 44.3494 9.70874 44.969 9.08925C45.59 8.47014 46.3337 8.16452 47.2222 8.16323C47.6616 8.16323 48.08 8.24958 48.479 8.42162C48.8784 8.59499 49.1939 8.82218 49.4289 9.10423L49.5097 9.03572L49.4352 8.96067L48.8792 9.52125L48.9537 9.59591L49.0349 9.52797C48.5967 8.99922 47.9816 8.73268 47.2222 8.73425C46.5318 8.73339 45.9244 8.98186 45.422 9.4712C44.9147 9.96212 44.6598 10.6086 44.6607 11.3844C44.6598 12.1603 44.9147 12.8067 45.422 13.2976C45.9244 13.787 46.5318 14.0354 47.2222 14.0345C47.9519 14.0358 48.5737 13.7866 49.0633 13.2923C49.3902 12.9622 49.5756 12.5049 49.6242 11.9363L49.634 11.821H47.3276V11.2683H50.2871V11.1621L50.1833 11.1808C50.2121 11.3417 50.2258 11.4947 50.2258 11.6428H50.4366C50.4366 11.4814 50.4217 11.3156 50.3908 11.1431L50.3752 11.056H47.1169V12.0333H49.5191V11.9272L49.4141 11.9181C49.3676 12.4522 49.1988 12.8544 48.9142 13.1423C48.4613 13.5967 47.9054 13.821 47.2222 13.8222C46.5812 13.8214 46.0372 13.5991 45.5682 13.1451C45.1038 12.6927 44.8727 12.1151 44.8715 11.3844C44.8727 10.6537 45.1038 10.0761 45.5682 9.62373C46.0372 9.16969 46.5811 8.94741 47.2222 8.94655C47.9351 8.94827 48.4733 9.18543 48.8731 9.66437L48.9473 9.75311L49.5843 9.11081L49.6526 9.04202L49.5904 8.96769C49.3314 8.65677 48.9863 8.40998 48.5622 8.22678C48.1373 8.04301 47.6888 7.95093 47.2222 7.95093C46.2851 7.95012 45.4764 8.28183 44.8204 8.9383C44.162 9.59348 43.8302 10.417 43.8311 11.3844C43.8302 12.3514 44.162 13.1754 44.8209 13.8309C45.4764 14.487 46.2851 14.8183 47.2222 14.8174C48.1982 14.8183 49.0078 14.4919 49.6221 13.8421L49.5459 13.7687L49.6204 13.8438C50.1664 13.2944 50.4373 12.5521 50.4366 11.6428H50.3312M55.19 8.98224H52.3097V11.0017H54.9072V11.7671H52.3097V13.7866H55.19V14.569H51.4977V8.19978H55.19V8.98224Z" fill="white"/>
<path d="M55.1893 8.98236V8.87621H52.2036V11.108H54.8011V11.6608L52.2036 11.661V13.8928H55.0839V14.463H51.6024V8.30605H55.0839V8.98236H55.1893V8.87621V8.98236H55.2947V8.09375H51.3916V14.6753H55.2947V13.6805H52.4144V11.8733H55.0119V10.8957H52.4144V9.08852H55.2947V8.98236H55.1893ZM58.6165 14.5692H57.8032V8.98232H56.0367V8.19985H60.383V8.98232H58.6165V14.5691" fill="white"/>
<path d="M58.6168 14.5692V14.463H57.909V8.87621H56.1425V8.3061H60.2779V8.87621H58.5114V14.5691H58.6168V14.463V14.5691H58.7222V9.08852H60.4887V8.09375H55.9316V9.08847H57.6981V14.6753H58.7222V14.5691H58.6168M63.528 14.5692V8.19985H64.3404V14.5691H63.528" fill="white"/>
<path d="M63.5282 14.5692H63.6337V8.30605H64.2352V14.463H63.5282V14.5691H63.6337H63.5282V14.6753H64.4461V8.09375H63.4229V14.6753H63.5282V14.5691M67.9457 14.5692H67.1324V8.98232H65.366V8.19985H69.7122V8.98232H67.9457V14.5691" fill="white"/>
<path d="M67.9458 14.5691V14.4629H67.238V8.87614H65.4716V8.30602H69.6069V8.87614H67.8404V14.5691H67.9458V14.4629V14.5691H68.0512V9.08844H69.8177V8.09367H65.2607V9.08839H67.0271V14.6752H68.0512V14.569H67.9458M73.9025 13.2128C74.3706 13.69 74.9435 13.9284 75.6208 13.9284C76.2982 13.9284 76.8713 13.69 77.3387 13.2128C77.8073 12.7355 78.0421 12.1254 78.0421 11.3844C78.0421 10.6435 77.8073 10.0334 77.3387 9.55617C76.8713 9.0789 76.2982 8.84045 75.6208 8.84045C74.9435 8.84045 74.3706 9.0789 73.9025 9.55617C73.4351 10.0334 73.2005 10.6435 73.2005 11.3844C73.2005 12.1254 73.4351 12.7355 73.9025 13.2128ZM77.9399 13.746C77.3181 14.3899 76.5448 14.7113 75.6208 14.7113C74.696 14.7113 73.923 14.3899 73.3026 13.746C72.6804 13.1028 72.3707 12.3154 72.3707 11.3844C72.3707 10.4535 72.6804 9.66599 73.3026 9.02293C73.9231 8.37887 74.696 8.05713 75.6208 8.05713C76.5399 8.05713 77.3111 8.38059 77.9358 9.02709C78.5596 9.67353 78.8718 10.4593 78.8718 11.3844C78.8718 12.3154 78.5604 13.1028 77.9399 13.746Z" fill="white"/>
<path d="M73.9018 13.2127L73.8269 13.2873C74.3124 13.7837 74.9181 14.0358 75.6202 14.0345C76.3218 14.0358 76.9283 13.7837 77.413 13.2873C77.9017 12.7905 78.1475 12.1478 78.1468 11.3844C78.1475 10.6211 77.9017 9.97829 77.413 9.48146C76.9283 8.9851 76.3218 8.73301 75.6202 8.73425C74.9181 8.73301 74.3124 8.9851 73.8269 9.48146C73.3393 9.97829 73.0931 10.6211 73.0943 11.3844C73.0931 12.1477 73.3393 12.7905 73.8269 13.2873L73.9018 13.2127L73.9768 13.1381C73.5296 12.6798 73.306 12.1034 73.3052 11.3844C73.306 10.6654 73.5296 10.089 73.9768 9.63074C74.428 9.1726 74.967 8.94784 75.6202 8.9466C76.2728 8.94784 76.813 9.1726 77.2631 9.63074C77.7111 10.089 77.9347 10.6654 77.9355 11.3844C77.9347 12.1034 77.7111 12.6798 77.2631 13.1381C76.813 13.5963 76.2728 13.821 75.6202 13.8222C74.967 13.821 74.428 13.5963 73.9768 13.1381L73.9018 13.2127ZM77.9392 13.7459L77.8639 13.6722C77.2594 14.2958 76.5203 14.6039 75.6202 14.6051C74.7196 14.6039 73.9805 14.2958 73.3772 13.6722L73.3743 13.6688L73.3772 13.6722C72.774 13.0464 72.4763 12.2917 72.4755 11.3844C72.4763 10.4771 72.774 9.72243 73.3772 9.09669C73.9805 8.473 74.7196 8.16452 75.6202 8.16328C76.5145 8.16452 77.2519 8.47429 77.8597 9.10122C78.465 9.72988 78.7644 10.4833 78.7657 11.3844C78.7644 12.2917 78.4659 13.0464 77.8639 13.6722L77.9392 13.7459L78.015 13.8197C78.654 13.1588 78.9772 12.3389 78.9765 11.3844C78.9773 10.4353 78.6528 9.61714 78.0108 8.95328C77.3685 8.2868 76.5639 7.94979 75.6202 7.95093C74.6715 7.94979 73.8644 8.28522 73.2261 8.94913V8.94865C72.5858 9.61003 72.2638 10.4299 72.2647 11.3844C72.2638 12.3389 72.5858 13.1588 73.2261 13.8201L73.229 13.8231L73.2261 13.8197C73.8644 14.4836 74.6715 14.8183 75.6202 14.8174C76.5684 14.8183 77.3755 14.4836 78.015 13.8197L77.9392 13.7459ZM80.0116 14.5691V8.19973H81.0008L84.0746 13.1546H84.1096L84.0746 11.9271V8.19973H84.8879V14.569H84.0396L80.8237 9.37402H80.7887L80.8237 10.6019V14.569H80.0117" fill="white"/>
<path d="M80.0123 14.5692H80.1177V8.30605H80.9429L84.0168 13.2609H84.2185L84.1807 11.9257V8.3061H84.7831V14.463H84.0988L80.8829 9.26804H80.6811L80.7189 10.6038V14.463H80.0124V14.5691H80.1177H80.0124V14.6753H80.9297V10.6004L80.8948 9.37133L80.7893 9.37419V9.48034H80.8243V9.37419L80.7349 9.43063L83.9818 14.6753H84.9939V8.09375H83.9699V11.9285L84.0049 13.1576L84.1103 13.1547V13.0486H84.0753V13.1547L84.1647 13.0984L81.0598 8.09375H79.907V14.6753H80.0124V14.5691M113.071 32.6154H115.038V19.3448H113.071L113.071 32.6154ZM130.787 24.1252L128.533 29.8786H128.465L126.125 24.1252H124.006L127.515 32.1667L125.515 36.6397H127.567L132.975 24.1252L130.787 24.1252ZM119.632 31.1081C118.987 31.1081 118.089 30.7838 118.089 29.9811C118.089 28.9568 119.209 28.5641 120.174 28.5641C121.04 28.5641 121.446 28.7519 121.972 29.0083C121.819 30.2373 120.768 31.1081 119.632 31.1081ZM119.87 23.8349C118.446 23.8349 116.971 24.4668 116.36 25.8668L118.106 26.6007C118.479 25.8668 119.174 25.6275 119.903 25.6275C120.921 25.6275 121.955 26.2424 121.972 27.3351V27.4715C121.615 27.2666 120.853 26.9594 119.92 26.9594C118.039 26.9594 116.122 28.0006 116.122 29.947C116.122 31.7227 117.665 32.8667 119.394 32.8667C120.717 32.8667 121.446 32.2691 121.904 31.5692H121.972V32.5934H123.87V27.5054C123.87 25.1498 122.124 23.8349 119.87 23.8349ZM107.713 25.7406H104.916V21.1918H107.713C109.184 21.1918 110.019 22.4179 110.019 23.4662C110.019 24.4946 109.184 25.7406 107.713 25.7406ZM107.663 19.3448H102.95V32.6154H104.916V27.5876H107.663C109.843 27.5876 111.986 25.9981 111.986 23.4662C111.986 20.9343 109.843 19.3448 107.663 19.3448ZM81.9621 31.1106C80.6032 31.1106 79.4655 29.9649 79.4655 28.3912C79.4655 26.801 80.6032 25.6379 81.9621 25.6379C83.3037 25.6379 84.3565 26.801 84.3565 28.3912C84.3565 29.9649 83.3037 31.1106 81.9621 31.1106H81.9621ZM84.2206 24.8683H84.1527C83.7113 24.3382 82.8617 23.8594 81.792 23.8594C79.5503 23.8594 77.4956 25.8431 77.4956 28.3912C77.4956 30.9224 79.5503 32.8891 81.792 32.8891C82.8617 32.8891 83.7113 32.4101 84.1527 31.8632H84.2206V32.513C84.2206 34.2405 83.3037 35.164 81.8262 35.164C80.6204 35.164 79.8732 34.2915 79.5672 33.5562L77.8522 34.2745C78.3447 35.4716 79.6524 36.9425 81.8262 36.9425C84.1358 36.9425 86.0888 35.574 86.0888 32.2393V24.133H84.2206V24.8683ZM87.4472 32.6154H89.4172V19.3444H87.4472V32.6154ZM92.3213 28.2374C92.2703 26.4928 93.6629 25.6038 94.6648 25.6038C95.4465 25.6038 96.1085 25.9969 96.3288 26.5618L92.3213 28.2374ZM98.435 26.7325C98.0618 25.7232 96.9233 23.8594 94.5968 23.8594C92.2872 23.8594 90.3683 25.6892 90.3683 28.3742C90.3683 30.9054 92.2703 32.8891 94.8175 32.8891C96.8727 32.8891 98.0618 31.6235 98.5541 30.8882L97.0256 29.8619C96.5164 30.6146 95.8197 31.1106 94.8175 31.1106C93.8157 31.1106 93.1025 30.6487 92.6437 29.7425L98.6384 27.2455L98.435 26.7325ZM50.6742 25.2447V27.16H55.2254C55.0895 28.2374 54.7329 29.024 54.1894 29.5713C53.5273 30.2385 52.4913 30.9737 50.6741 30.9737C47.872 30.9737 45.6814 28.6992 45.6814 25.8774C45.6814 23.0557 47.872 20.7809 50.6742 20.7809C52.1857 20.7809 53.2893 21.3796 54.1045 22.1492L55.4461 20.7983C54.3084 19.7035 52.7968 18.8656 50.6742 18.8656C46.836 18.8656 43.6094 22.0124 43.6094 25.8774C43.6094 29.7425 46.836 32.8891 50.6742 32.8891C52.7462 32.8891 54.3084 32.2053 55.531 30.9224C56.7877 29.6568 57.1785 27.8783 57.1785 26.4419C57.1785 25.9969 57.1447 25.5868 57.0763 25.2447H50.6742ZM62.3528 31.1106C60.9939 31.1106 59.822 29.9818 59.822 28.3742C59.822 26.7495 60.9939 25.6379 62.3528 25.6379C63.7111 25.6379 64.883 26.7495 64.883 28.3742C64.883 29.9818 63.7111 31.1106 62.3528 31.1106ZM62.3528 23.8594C59.8731 23.8594 57.8521 25.7576 57.8521 28.3742C57.8521 30.9737 59.8731 32.8891 62.3528 32.8891C64.832 32.8891 66.853 30.9737 66.853 28.3742C66.853 25.7576 64.832 23.8594 62.3528 23.8594ZM72.1701 31.1106C70.8118 31.1106 69.6398 29.9818 69.6398 28.3742C69.6398 26.7495 70.8118 25.6379 72.1701 25.6379C73.5286 25.6379 74.7005 26.7495 74.7005 28.3742C74.7005 29.9818 73.5286 31.1106 72.1701 31.1106H72.1701ZM72.1701 23.8594C69.6905 23.8594 67.6699 25.7576 67.6699 28.3742C67.6699 30.9737 69.6905 32.8891 72.1701 32.8891C74.6494 32.8891 76.6705 30.9737 76.6705 28.3742C76.6705 25.7576 74.6494 23.8594 72.1701 23.8594H72.1701Z" fill="white"/>
<path d="M11.4233 8.84875C11.0696 9.17016 10.8584 9.70626 10.8584 10.4179V10.257V33.7395V33.5848C10.8584 34.242 11.0395 34.7495 11.3463 35.0764L11.4245 35.1519V35.1522C11.6728 35.3778 11.9912 35.4976 12.356 35.4972C12.7125 35.4972 13.1136 35.3828 13.537 35.1411L28.8379 26.3862L34.0936 23.3786C34.7611 22.9968 35.1359 22.5041 35.1985 22.0024V22.0003C35.1359 21.4974 34.7611 21.0051 34.0937 20.6232L28.8375 17.616L13.537 8.86115C13.1128 8.61903 12.7114 8.50415 12.3539 8.50415C11.9895 8.50415 11.6716 8.62356 11.4234 8.84875H11.4233Z" fill="#00C1FF"/>
<path d="M11.4246 35.1519L11.3463 35.0764C11.0395 34.7496 10.8584 34.242 10.8584 33.5848V33.7395V10.2628V10.4179C10.8584 9.70626 11.0696 9.17016 11.4233 8.84875L24.4838 22.0007L11.4246 35.1519Z" fill="url(#paint0_linear_230_1401)"/>
<path d="M28.8375 26.3862L24.4834 22.0008L28.8371 17.6161L34.0933 20.6232C34.7607 21.0052 35.1355 21.4974 35.1981 22.0004V22.0024C35.1355 22.5042 34.7607 22.9968 34.0933 23.3787L28.8375 26.3862" fill="url(#paint1_linear_230_1401)"/>
<path d="M12.3562 35.4973C11.9914 35.4976 11.673 35.3778 11.4248 35.1522V35.1519L24.484 22.0008L28.8381 26.3862L13.5371 35.1411C13.1138 35.3829 12.7127 35.4973 12.3562 35.4973Z" fill="url(#paint2_linear_230_1401)"/>
<path d="M24.4834 22.0007L11.4229 8.84875C11.6711 8.62357 11.989 8.50415 12.3534 8.50415C12.7109 8.50415 13.1123 8.61899 13.5365 8.86115L28.837 17.616L24.4833 22.0007" fill="url(#paint3_linear_230_1401)"/>
<path d="M12.3558 35.6528C11.991 35.6528 11.6722 35.533 11.424 35.3074L11.4235 35.3078C11.4225 35.3068 11.4214 35.3058 11.4202 35.3049L11.3523 35.2382C11.3502 35.2361 11.3482 35.2336 11.3457 35.2312L11.424 35.1523C11.6723 35.3779 11.9906 35.4977 12.3555 35.4973C12.7119 35.4973 13.113 35.3829 13.5364 35.1412L28.8373 26.3863L28.9353 26.4851L28.8361 26.5418L13.5363 35.2962C13.1505 35.5164 12.7836 35.6313 12.4521 35.6504C12.4201 35.652 12.3879 35.6528 12.3558 35.6528" fill="url(#paint4_linear_230_1401)"/>
<path d="M11.3463 35.231C11.0395 34.9042 10.8584 34.397 10.8584 33.7394V33.5847C10.8584 34.2419 11.0395 34.7494 11.3463 35.0763L11.4245 35.1518L11.3463 35.231Z" fill="url(#paint5_linear_230_1401)"/>
<path d="M28.9359 26.4848L28.8379 26.3861L34.0937 23.3785C34.7612 22.9967 35.1359 22.504 35.1985 22.0022C35.1985 22.1864 35.1577 22.3705 35.0767 22.5497C34.9131 22.9108 34.5854 23.2521 34.0937 23.5336L28.9359 26.4849" fill="url(#paint6_linear_230_1401)"/>
<path d="M35.198 22.0005C35.1353 21.4975 34.7606 21.0053 34.0931 20.6233L28.8369 17.6162L28.9349 17.5174H28.9354L34.0931 20.4687C34.829 20.89 35.1975 21.4452 35.198 22.0005Z" fill="url(#paint7_linear_230_1401)"/>
<path d="M10.8584 10.418V10.2558C10.8584 10.1973 10.86 10.1401 10.863 10.0845V10.082C10.863 10.0812 10.863 10.0804 10.8632 10.0796V10.0733C10.895 9.50727 11.0696 9.06573 11.3463 8.77089L11.4233 8.8488C11.0696 9.17025 10.8584 9.70635 10.8584 10.418Z" fill="url(#paint8_linear_230_1401)"/>
<path d="M28.8369 17.616L13.5364 8.86102C13.1122 8.6189 12.7108 8.50407 12.3533 8.50407C11.9889 8.50407 11.671 8.62348 11.4228 8.84866L11.3457 8.77071C11.3698 8.74505 11.3948 8.7203 11.4207 8.69652C11.4215 8.69566 11.4228 8.6948 11.4236 8.69399C11.6698 8.47053 11.9844 8.35111 12.3456 8.34897H12.3533C12.7108 8.34897 13.1122 8.46385 13.5364 8.70606L28.9353 17.5169L28.9349 17.5172L28.8369 17.616Z" fill="url(#paint9_linear_230_1401)"/>
<defs>
<linearGradient id="paint0_linear_230_1401" x1="19.2048" y1="10.0147" x2="7.88885" y2="21.288" gradientUnits="userSpaceOnUse">
<stop stop-color="#00A0FF"/>
<stop offset="0.00657" stop-color="#00A1FF"/>
<stop offset="0.2601" stop-color="#00BEFF"/>
<stop offset="0.5122" stop-color="#00D2FF"/>
<stop offset="0.7604" stop-color="#00DFFF"/>
<stop offset="1" stop-color="#00E3FF"/>
</linearGradient>
<linearGradient id="paint1_linear_230_1401" x1="36.0114" y1="21.925" x2="10.5046" y2="21.925" gradientUnits="userSpaceOnUse">
<stop stop-color="#FFE000"/>
<stop offset="0.4087" stop-color="#FFBD00"/>
<stop offset="0.7754" stop-color="#FFA500"/>
<stop offset="1" stop-color="#FF9C00"/>
</linearGradient>
<linearGradient id="paint2_linear_230_1401" x1="26.5265" y1="26.1703" x2="7.35143" y2="45.1334" gradientUnits="userSpaceOnUse">
<stop stop-color="#FF3A44"/>
<stop offset="1" stop-color="#C31162"/>
</linearGradient>
<linearGradient id="paint3_linear_230_1401" x1="8.05679" y1="6.89891" x2="16.6027" y2="15.3634" gradientUnits="userSpaceOnUse">
<stop stop-color="#32A071"/>
<stop offset="0.0685" stop-color="#2DA771"/>
<stop offset="0.4762" stop-color="#15CF74"/>
<stop offset="0.8009" stop-color="#06E775"/>
<stop offset="1" stop-color="#00F076"/>
</linearGradient>
<linearGradient id="paint4_linear_230_1401" x1="26.5162" y1="29.2124" x2="11.1592" y2="44.5114" gradientUnits="userSpaceOnUse">
<stop stop-color="#CC2E36"/>
<stop offset="1" stop-color="#9C0E4E"/>
</linearGradient>
<linearGradient id="paint5_linear_230_1401" x1="12.5983" y1="10.0146" x2="2.62903" y2="19.9463" gradientUnits="userSpaceOnUse">
<stop stop-color="#008DE0"/>
<stop offset="0.00657" stop-color="#008DE0"/>
<stop offset="0.2601" stop-color="#00A7E0"/>
<stop offset="0.5122" stop-color="#00B8E0"/>
<stop offset="0.7604" stop-color="#00C4E0"/>
<stop offset="1" stop-color="#00C7E0"/>
</linearGradient>
<linearGradient id="paint6_linear_230_1401" x1="36.0118" y1="22.0013" x2="10.5049" y2="22.0013" gradientUnits="userSpaceOnUse">
<stop stop-color="#E0C500"/>
<stop offset="0.4087" stop-color="#E0A600"/>
<stop offset="0.7754" stop-color="#E09100"/>
<stop offset="1" stop-color="#E08900"/>
</linearGradient>
<linearGradient id="paint7_linear_230_1401" x1="36.0112" y1="22.0015" x2="10.5045" y2="22.0015" gradientUnits="userSpaceOnUse">
<stop stop-color="#FFE840"/>
<stop offset="0.4087" stop-color="#FFCE40"/>
<stop offset="0.7754" stop-color="#FFBC40"/>
<stop offset="1" stop-color="#FFB540"/>
</linearGradient>
<linearGradient id="paint8_linear_230_1401" x1="12.5875" y1="10.0328" x2="2.98766" y2="19.1821" gradientUnits="userSpaceOnUse">
<stop stop-color="#40B8FF"/>
<stop offset="0.00657" stop-color="#40B9FF"/>
<stop offset="0.2601" stop-color="#40CEFF"/>
<stop offset="0.5122" stop-color="#40DDFF"/>
<stop offset="0.7604" stop-color="#40E7FF"/>
<stop offset="1" stop-color="#40EAFF"/>
</linearGradient>
<linearGradient id="paint9_linear_230_1401" x1="8.03762" y1="9.68021" x2="14.8952" y2="16.512" gradientUnits="userSpaceOnUse">
<stop stop-color="#65B895"/>
<stop offset="0.0685" stop-color="#62BD95"/>
<stop offset="0.4762" stop-color="#50DB97"/>
<stop offset="0.8009" stop-color="#44ED98"/>
<stop offset="1" stop-color="#40F498"/>
</linearGradient>
</defs>
</svg>
