<svg xmlns="http://www.w3.org/2000/svg" width="137.949" height="42.462" viewBox="0 0 137.949 42.462">
  <g id="Group_1" data-name="Group 1" transform="translate(-1065 -555)">
    <path id="Vector" d="M16.827,12.883A5.452,5.452,0,0,1,19.442,8.3a5.63,5.63,0,0,0-4.429-2.38c-1.863-.194-3.67,1.108-4.619,1.108-.968,0-2.43-1.089-4-1.057A5.9,5.9,0,0,0,1.426,8.983C-.72,12.677.881,18.1,2.937,21.09c1.028,1.462,2.231,3.095,3.8,3.037,1.539-.063,2.114-.976,3.972-.976,1.841,0,2.38.976,3.985.939,1.652-.027,2.692-1.468,3.685-2.944a12.062,12.062,0,0,0,1.685-3.411,5.274,5.274,0,0,1-3.239-4.852ZM13.8,3.96A5.352,5.352,0,0,0,15.033.11,5.512,5.512,0,0,0,11.474,1.94,5.095,5.095,0,0,0,10.2,5.648,4.572,4.572,0,0,0,12.2,5.214,4.546,4.546,0,0,0,13.8,3.96Zm21.5,16.613H30.242l-1.213,3.56H26.89l4.784-13.171H33.9l4.784,13.171H36.505ZM30.765,18.93h4L32.8,13.152H32.74Zm18.248.4c0,2.984-1.607,4.9-4.032,4.9a3.28,3.28,0,0,1-3.04-1.68H41.9v4.756H39.913V14.53h1.92v1.6h.037a3.432,3.432,0,0,1,3.076-1.7c2.452,0,4.068,1.927,4.068,4.9Zm-2.038,0c0-1.944-1.011-3.222-2.553-3.222-1.515,0-2.534,1.3-2.534,3.222,0,1.935,1.019,3.231,2.534,3.231,1.542,0,2.553-1.269,2.553-3.231Zm12.672,0c0,2.984-1.607,4.9-4.032,4.9a3.28,3.28,0,0,1-3.04-1.68h-.046v4.756H50.546V14.53h1.919v1.6H52.5a3.431,3.431,0,0,1,3.076-1.7c2.452,0,4.069,1.927,4.069,4.9Zm-2.039,0c0-1.944-1.011-3.222-2.553-3.222-1.515,0-2.534,1.3-2.534,3.222,0,1.935,1.019,3.231,2.534,3.231,1.542,0,2.553-1.269,2.553-3.231Zm9.066,1.131c.147,1.306,1.424,2.164,3.168,2.164,1.672,0,2.874-.858,2.874-2.035,0-1.022-.725-1.634-2.442-2.054l-1.717-.411c-2.433-.584-3.563-1.715-3.563-3.551,0-2.273,1.993-3.833,4.821-3.833,2.8,0,4.721,1.561,4.785,3.833h-2c-.12-1.314-1.213-2.108-2.811-2.108s-2.691.8-2.691,1.971c0,.931.7,1.479,2.406,1.9l1.46.356c2.719.639,3.847,1.725,3.847,3.651,0,2.464-1.974,4.008-5.115,4.008-2.939,0-4.923-1.507-5.051-3.889Zm12.417-8.206V14.53h1.837v1.561H79.091v5.294c0,.822.368,1.206,1.175,1.206a6.213,6.213,0,0,0,.652-.046V24.1a5.475,5.475,0,0,1-1.1.091c-1.956,0-2.719-.73-2.719-2.593v-5.5h-1.4V14.53h1.4V12.257Zm2.9,7.075c0-3.021,1.79-4.92,4.582-4.92s4.583,1.9,4.583,4.92-1.773,4.92-4.583,4.92S81.992,22.361,81.992,19.332Zm7.145,0c0-2.073-.956-3.3-2.562-3.3s-2.562,1.233-2.562,3.3c0,2.081.956,3.295,2.562,3.295S89.136,21.413,89.136,19.332Zm3.655-4.8h1.891v1.635h.046a2.289,2.289,0,0,1,.852-1.278,2.313,2.313,0,0,1,1.472-.457,3.074,3.074,0,0,1,.679.073v1.844a2.79,2.79,0,0,0-.891-.119,2,2,0,0,0-1.545.632,1.979,1.979,0,0,0-.522,1.577v5.7H92.791Zm14.084,6.782c-.266,1.743-1.974,2.94-4.16,2.94-2.81,0-4.555-1.872-4.555-4.875s1.754-4.966,4.472-4.966c2.673,0,4.354,1.825,4.354,4.737v.675h-6.824v.119a2.5,2.5,0,0,0,.682,1.943,2.526,2.526,0,0,0,1.917.777,2.187,2.187,0,0,0,2.231-1.351Zm-6.7-2.866H105a2.309,2.309,0,0,0-.649-1.733,2.333,2.333,0,0,0-1.721-.7,2.446,2.446,0,0,0-2.275,1.5A2.423,2.423,0,0,0,100.172,18.446ZM30.517,1.047a2.826,2.826,0,0,1,2.247.867,2.789,2.789,0,0,1,.749,2.277c0,2.022-1.1,3.184-3,3.184h-2.3V1.047ZM29.206,6.481h1.2A2.008,2.008,0,0,0,32,5.84a1.982,1.982,0,0,0,.5-1.635,1.987,1.987,0,0,0-.513-1.624,2.013,2.013,0,0,0-1.587-.64h-1.2Zm5.424-1.5a2.254,2.254,0,0,1,.582-1.737,2.279,2.279,0,0,1,3.844.808,2.249,2.249,0,0,1,.106.93,2.254,2.254,0,0,1-.58,1.74,2.28,2.28,0,0,1-3.848-.809A2.252,2.252,0,0,1,34.631,4.986Zm3.557,0c0-1.035-.468-1.641-1.289-1.641s-1.288.605-1.288,1.641S36.074,6.63,36.9,6.63,38.187,6.025,38.187,4.986Zm7,2.39H44.2L43.21,3.859h-.075l-.989,3.518h-.974L39.847,2.6h.962l.861,3.644h.071L42.729,2.6h.91l.988,3.644H44.7L45.558,2.6h.948ZM47.62,2.6h.913v.759H48.6a1.44,1.44,0,0,1,1.434-.851A1.568,1.568,0,0,1,51.3,3a1.547,1.547,0,0,1,.4,1.286V7.376h-.948V4.521c0-.767-.336-1.149-1.037-1.149a1.106,1.106,0,0,0-.853.343,1.092,1.092,0,0,0-.294.867V7.376H47.62ZM53.212.736h.948V7.376h-.948Zm2.267,4.25a2.254,2.254,0,0,1,.581-1.738,2.28,2.28,0,0,1,3.845.808,2.25,2.25,0,0,1,.106.93,2.255,2.255,0,0,1-.58,1.74,2.28,2.28,0,0,1-3.847-.809A2.251,2.251,0,0,1,55.478,4.986Zm3.557,0c0-1.035-.468-1.641-1.289-1.641s-1.288.605-1.288,1.641.464,1.644,1.288,1.644S59.035,6.025,59.035,4.986Zm1.974,1.039c0-.86.644-1.355,1.787-1.426l1.3-.075V4.113c0-.5-.335-.789-.984-.789-.529,0-.9.193-1,.531h-.918c.1-.82.873-1.347,1.963-1.347,1.2,0,1.884.6,1.884,1.6V7.376h-.913V6.7h-.075a1.619,1.619,0,0,1-1.443.75,1.457,1.457,0,0,1-1.12-.361,1.439,1.439,0,0,1-.482-1.068ZM64.1,5.617v-.4l-1.173.075c-.662.044-.962.268-.962.689s.375.68.891.68A1.137,1.137,0,0,0,63.7,6.4a1.123,1.123,0,0,0,.4-.784Zm2.19-.631c0-1.509.781-2.465,1.994-2.465a1.585,1.585,0,0,1,1.474.838h.071V.735h.948V7.376h-.909V6.621h-.075a1.67,1.67,0,0,1-1.509.833c-1.222,0-1.995-.956-1.995-2.469Zm.98,0c0,1.013.48,1.623,1.284,1.623s1.293-.618,1.293-1.619-.5-1.622-1.293-1.622S67.268,3.981,67.268,4.986Zm7.431,0a2.253,2.253,0,0,1,.582-1.737,2.279,2.279,0,0,1,3.844.808,2.249,2.249,0,0,1,.106.93,2.254,2.254,0,0,1-.58,1.74A2.28,2.28,0,0,1,74.8,5.917,2.25,2.25,0,0,1,74.7,4.986Zm3.557,0c0-1.035-.468-1.641-1.289-1.641s-1.288.605-1.288,1.641.464,1.644,1.288,1.644S78.256,6.025,78.256,4.986ZM80.5,2.6h.913v.759h.071a1.44,1.44,0,0,1,1.434-.851A1.568,1.568,0,0,1,84.182,3a1.548,1.548,0,0,1,.4,1.286V7.376h-.948V4.521c0-.767-.336-1.149-1.037-1.149a1.106,1.106,0,0,0-.854.343,1.091,1.091,0,0,0-.294.867V7.376H80.5Zm9.439-1.189V2.622h1.041v.794H89.943V5.872c0,.5.207.719.679.719a3.182,3.182,0,0,0,.361-.022v.785a3.128,3.128,0,0,1-.516.048c-1.054,0-1.474-.369-1.474-1.29v-2.7H88.23V2.622h.763V1.411ZM92.279.736h.94V3.368h.075a1.48,1.48,0,0,1,1.465-.856,1.588,1.588,0,0,1,1.249.5,1.567,1.567,0,0,1,.406,1.277V7.376h-.949V4.525c0-.763-.357-1.149-1.027-1.149a1.126,1.126,0,0,0-.888.326,1.112,1.112,0,0,0-.322.885V7.376h-.948Zm9.664,5.351a1.949,1.949,0,0,1-2.082,1.382,2.189,2.189,0,0,1-1.684-.722A2.161,2.161,0,0,1,97.641,5a2.194,2.194,0,0,1,.535-1.75,2.222,2.222,0,0,1,1.681-.745c1.337,0,2.143.908,2.143,2.408v.329H98.607V5.3a1.257,1.257,0,0,0,.335.965,1.274,1.274,0,0,0,.944.4,1.154,1.154,0,0,0,1.143-.579ZM98.607,4.547h2.426a1.15,1.15,0,0,0-.711-1.149,1.164,1.164,0,0,0-.471-.088,1.233,1.233,0,0,0-.885.358,1.217,1.217,0,0,0-.36.879Z" transform="translate(1082.457 562.521)" fill="#fff"/>
    <path id="Vector_2_" data-name="Vector (2)" d="M133.186.769H5.455A5.227,5.227,0,0,0,.346,6.077V37.923a5.227,5.227,0,0,0,5.109,5.308H133.186a5.226,5.226,0,0,0,5.109-5.308V6.077A5.226,5.226,0,0,0,133.186.769m0,.849a4.383,4.383,0,0,1,4.291,4.459V37.923a4.383,4.383,0,0,1-4.291,4.459H5.455a4.383,4.383,0,0,1-4.292-4.459V6.077A4.383,4.383,0,0,1,5.455,1.618H133.186" transform="translate(1064.654 554.231)" fill="#fff"/>
  </g>
</svg>
