<svg width="220" height="43" viewBox="0 0 220 43" fill="none" xmlns="http://www.w3.org/2000/svg">
<path d="M59.4176 20.4037C60.3609 20.4037 61.2756 20.2684 62.1615 19.9977C63.0475 19.7187 63.7324 19.366 64.2164 18.9395V16.54H59.9836V13.8576H67.5387V20.2314C66.6199 21.1748 65.4223 21.9131 63.9457 22.4463C62.4773 22.9795 60.9352 23.2461 59.3191 23.2461C57.4406 23.2461 55.8451 22.8975 54.5326 22.2002C53.2283 21.4947 52.2357 20.4734 51.5549 19.1363C50.874 17.791 50.5336 16.1627 50.5336 14.2514C50.5336 11.3967 51.2965 9.21055 52.8223 7.69297C54.348 6.16719 56.5424 5.4043 59.4053 5.4043C61.4396 5.4043 63.1049 5.78164 64.401 6.53633C65.6971 7.28281 66.6199 8.41074 67.1695 9.92012L63.8227 10.9291C63.4617 10.0514 62.8957 9.38691 62.1246 8.93574C61.3535 8.48457 60.4471 8.25898 59.4053 8.25898C57.699 8.25898 56.4029 8.77578 55.517 9.80937C54.6311 10.843 54.1881 12.3236 54.1881 14.2514C54.1881 16.2119 54.6434 17.7295 55.5539 18.8041C56.4727 19.8705 57.7605 20.4037 59.4176 20.4037ZM84.9375 20.1945V23H70.7994V5.66269H84.433V8.46816H74.4293V12.824H83.6824V15.6295H74.4293V20.1945H84.9375ZM90.8314 12.7748V23H87.6076V5.66269H91.7543L99.4201 19.124C99.2725 17.8771 99.1986 16.7492 99.1986 15.7402V5.66269H102.422V23H98.165L90.61 9.64941C90.6838 10.2975 90.7371 10.884 90.7699 11.409C90.8109 11.9258 90.8314 12.3811 90.8314 12.7748ZM109.448 5.66269V23H105.819V5.66269H109.448ZM120.043 23.2461C118.451 23.2461 117.106 22.9877 116.007 22.4709C114.908 21.9459 114.075 21.183 113.509 20.1822C112.943 19.1732 112.66 17.9469 112.66 16.5031V5.66269H116.29V16.2201C116.29 17.59 116.614 18.6318 117.262 19.3455C117.918 20.051 118.878 20.4037 120.141 20.4037C121.437 20.4037 122.434 20.0346 123.131 19.2963C123.829 18.5498 124.177 17.4834 124.177 16.0971V5.66269H127.807V16.3186C127.807 17.7787 127.499 19.0256 126.884 20.0592C126.277 21.0928 125.395 21.8844 124.239 22.434C123.082 22.9754 121.683 23.2461 120.043 23.2461ZM145.181 18.0043C145.181 19.7023 144.55 21.0025 143.286 21.9049C142.031 22.799 140.186 23.2461 137.749 23.2461C133.361 23.2461 130.805 21.6588 130.083 18.4842L133.59 17.9059C133.828 18.8246 134.292 19.4932 134.981 19.9115C135.67 20.3217 136.625 20.5268 137.848 20.5268C139.119 20.5268 140.071 20.334 140.702 19.9484C141.334 19.5629 141.65 18.9846 141.65 18.2135C141.65 17.7213 141.506 17.3152 141.219 16.9953C140.932 16.6754 140.522 16.4088 139.989 16.1955C139.726 16.0889 139.341 15.974 138.832 15.851C138.323 15.7197 137.692 15.5762 136.937 15.4203C136.068 15.2152 135.387 15.043 134.895 14.9035C134.402 14.7559 134.009 14.6164 133.713 14.4852C133.418 14.3457 133.131 14.1939 132.852 14.0299C132.237 13.6607 131.757 13.1686 131.412 12.5533C131.068 11.9381 130.896 11.1711 130.896 10.2523C130.896 8.68555 131.482 7.48789 132.655 6.65937C133.836 5.82266 135.551 5.4043 137.798 5.4043C139.948 5.4043 141.56 5.74062 142.634 6.41328C143.717 7.08594 144.414 8.19746 144.726 9.74785L141.207 10.2277C141.026 9.48125 140.657 8.91934 140.099 8.54199C139.55 8.16465 138.758 7.97598 137.725 7.97598C136.625 7.97598 135.801 8.14824 135.251 8.49277C134.702 8.8373 134.427 9.3541 134.427 10.0432C134.427 10.4943 134.542 10.8635 134.771 11.1506C135.009 11.4377 135.358 11.6838 135.817 11.8889C136.252 12.0857 137.183 12.3359 138.611 12.6395C139.439 12.8199 140.153 12.9922 140.752 13.1562C141.35 13.3121 141.83 13.4639 142.191 13.6115C142.552 13.7674 142.872 13.9314 143.151 14.1037C143.438 14.276 143.684 14.4605 143.889 14.6574C144.308 15.0594 144.628 15.5393 144.849 16.0971C145.071 16.6467 145.181 17.2824 145.181 18.0043ZM151.075 12.4918V23H147.851V5.66269H152.712L155.813 15.3588C155.952 15.9002 156.096 16.4457 156.243 16.9953C156.391 17.5367 156.534 18.0781 156.674 18.6195C156.764 18.3078 156.85 18.0002 156.932 17.6967C157.014 17.385 157.096 17.0732 157.178 16.7615C157.269 16.4498 157.359 16.1422 157.449 15.8387L160.636 5.66269H165.472V23H162.248V12.4918C162.248 12.2539 162.256 11.7781 162.272 11.0645C162.297 10.3426 162.33 9.55918 162.371 8.71426C162.084 9.81348 161.829 10.7486 161.608 11.5197C161.395 12.2908 161.218 12.8937 161.079 13.3285L157.954 23H155.37L152.244 13.3285L150.928 8.71426C150.977 9.66582 151.014 10.4574 151.038 11.0891C151.063 11.7125 151.075 12.1801 151.075 12.4918ZM182.981 20.1945V23H168.843V5.66269H182.477V8.46816H172.473V12.824H181.726V15.6295H172.473V20.1945H182.981ZM199.789 18.0043C199.789 19.7023 199.158 21.0025 197.895 21.9049C196.639 22.799 194.794 23.2461 192.357 23.2461C187.969 23.2461 185.413 21.6588 184.692 18.4842L188.198 17.9059C188.436 18.8246 188.9 19.4932 189.589 19.9115C190.278 20.3217 191.234 20.5268 192.456 20.5268C193.727 20.5268 194.679 20.334 195.311 19.9484C195.942 19.5629 196.258 18.9846 196.258 18.2135C196.258 17.7213 196.114 17.3152 195.827 16.9953C195.54 16.6754 195.13 16.4088 194.597 16.1955C194.334 16.0889 193.949 15.974 193.44 15.851C192.932 15.7197 192.3 15.5762 191.545 15.4203C190.676 15.2152 189.995 15.043 189.503 14.9035C189.011 14.7559 188.617 14.6164 188.321 14.4852C188.026 14.3457 187.739 14.1939 187.46 14.0299C186.845 13.6607 186.365 13.1686 186.021 12.5533C185.676 11.9381 185.504 11.1711 185.504 10.2523C185.504 8.68555 186.09 7.48789 187.263 6.65937C188.445 5.82266 190.159 5.4043 192.407 5.4043C194.556 5.4043 196.168 5.74062 197.242 6.41328C198.325 7.08594 199.022 8.19746 199.334 9.74785L195.815 10.2277C195.635 9.48125 195.265 8.91934 194.708 8.54199C194.158 8.16465 193.366 7.97598 192.333 7.97598C191.234 7.97598 190.409 8.14824 189.86 8.49277C189.31 8.8373 189.035 9.3541 189.035 10.0432C189.035 10.4943 189.15 10.8635 189.38 11.1506C189.618 11.4377 189.966 11.6838 190.426 11.8889C190.86 12.0857 191.791 12.3359 193.219 12.6395C194.047 12.8199 194.761 12.9922 195.36 13.1562C195.959 13.3121 196.438 13.4639 196.799 13.6115C197.16 13.7674 197.48 13.9314 197.759 14.1037C198.046 14.276 198.292 14.4605 198.497 14.6574C198.916 15.0594 199.236 15.5393 199.457 16.0971C199.679 16.6467 199.789 17.2824 199.789 18.0043ZM206.089 15.568V23H202.46V5.66269H206.089V12.5656H213.645V5.66269H217.274V23H213.645V15.568H206.089Z" fill="white"/>
<path d="M65.5888 36.321C66.0515 36.321 66.4824 36.2506 66.8813 36.1098C67.2837 35.969 67.6089 35.7779 67.857 35.5365V34.259H65.7397V33.4543H68.7422V35.8986C68.3667 36.2808 67.9056 36.5775 67.3591 36.7888C66.816 36.9966 66.2259 37.1006 65.5888 37.1006C64.8512 37.1006 64.2158 36.9514 63.6827 36.653C63.1496 36.3546 62.7389 35.9304 62.4505 35.3806C62.1622 34.8273 62.018 34.1752 62.018 33.4242C62.018 32.2741 62.3265 31.384 62.9434 30.7536C63.5603 30.1233 64.4271 29.8081 65.5436 29.8081C66.3281 29.8081 66.9652 29.9405 67.4547 30.2054C67.9442 30.4703 68.3214 30.8944 68.5863 31.4778L67.6709 31.7494C67.4698 31.3471 67.1915 31.0537 66.8361 30.8693C66.484 30.6849 66.0448 30.5927 65.5184 30.5927C64.7003 30.5927 64.075 30.8408 63.6425 31.337C63.21 31.8299 62.9937 32.5256 62.9937 33.4242C62.9937 34.3194 63.2234 35.0268 63.6827 35.5465C64.1421 36.0629 64.7774 36.321 65.5888 36.321ZM71.116 29.5365V37H70.2107V29.5365H71.116ZM77.1059 34.2741C77.1059 35.2263 76.8964 35.9355 76.4772 36.4015C76.0581 36.8676 75.4496 37.1006 74.6516 37.1006C73.857 37.1006 73.2568 36.8592 72.8511 36.3764C72.4454 35.8902 72.2426 35.1895 72.2426 34.2741C72.2426 33.3353 72.4454 32.6312 72.8511 32.1618C73.2602 31.6924 73.8704 31.4577 74.6818 31.4577C75.5133 31.4577 76.1252 31.6874 76.5175 32.1467C76.9098 32.6027 77.1059 33.3118 77.1059 34.2741ZM76.1554 34.2741C76.1554 33.5231 76.0431 32.9782 75.8184 32.6396C75.5971 32.2976 75.2233 32.1266 74.6969 32.1266C74.1671 32.1266 73.7832 32.301 73.5452 32.6497C73.3105 32.995 73.1931 33.5365 73.1931 34.2741C73.1931 34.9916 73.3088 35.5314 73.5401 35.8936C73.7748 36.2523 74.142 36.4317 74.6416 36.4317C75.1847 36.4317 75.572 36.2573 75.8033 35.9086C76.038 35.5599 76.1554 35.0151 76.1554 34.2741ZM82.8393 34.254C82.8393 35.2029 82.6717 35.9153 82.3364 36.3915C82.0044 36.8642 81.5049 37.1006 80.8376 37.1006C80.4252 37.1006 80.0816 37.0268 79.8066 36.8793C79.5351 36.7284 79.3138 36.487 79.1428 36.1551H79.1327C79.1327 36.2221 79.1294 36.3194 79.1227 36.4468C79.116 36.5742 79.1092 36.6932 79.1025 36.8039C79.0958 36.9111 79.0891 36.9765 79.0824 37H78.2073C78.2174 36.9095 78.2241 36.772 78.2274 36.5876C78.2341 36.3998 78.2375 36.1635 78.2375 35.8785V29.5365H79.1428V31.6639C79.1428 31.7712 79.1411 31.8902 79.1377 32.021C79.1344 32.1484 79.1294 32.2859 79.1227 32.4334H79.1428C79.3104 32.0847 79.5317 31.8349 79.8066 31.684C80.0849 31.5332 80.4286 31.4577 80.8376 31.4577C81.525 31.4577 82.0296 31.6891 82.3515 32.1518C82.6767 32.6145 82.8393 33.3152 82.8393 34.254ZM81.8888 34.2842C81.8888 33.5231 81.7882 32.9782 81.587 32.6497C81.3858 32.3211 81.0589 32.1568 80.6063 32.1568C80.0967 32.1568 79.7245 32.3311 79.4898 32.6798C79.2584 33.0285 79.1428 33.5818 79.1428 34.3395C79.1428 35.0537 79.2568 35.5817 79.4848 35.9237C79.7128 36.2624 80.0833 36.4317 80.5962 36.4317C81.0522 36.4317 81.3808 36.264 81.582 35.9288C81.7865 35.5901 81.8888 35.0419 81.8888 34.2842ZM85.359 37.1006C84.8125 37.1006 84.4017 36.9564 84.1268 36.6681C83.8519 36.3797 83.7144 35.9841 83.7144 35.4812C83.7144 34.9179 83.8988 34.4854 84.2676 34.1836C84.6398 33.8818 85.2383 33.7209 86.0631 33.7008L87.2852 33.6807V33.3839C87.2852 32.9414 87.1913 32.6245 87.0036 32.4334C86.8158 32.2423 86.5208 32.1467 86.1184 32.1467C85.7127 32.1467 85.4177 32.2155 85.2333 32.3529C85.0488 32.4904 84.9382 32.71 84.9013 33.0118L83.9558 32.9263C84.11 31.9472 84.8376 31.4577 86.1385 31.4577C86.8225 31.4577 87.3372 31.6153 87.6825 31.9305C88.0279 32.2423 88.2005 32.6949 88.2005 33.2884V35.632C88.2005 35.9003 88.2357 36.1031 88.3062 36.2406C88.3766 36.3747 88.5107 36.4417 88.7085 36.4417C88.8024 36.4417 88.9013 36.43 89.0052 36.4065V36.9698C88.8912 36.9966 88.7756 37.0168 88.6582 37.0302C88.5409 37.0436 88.4235 37.0503 88.3062 37.0503C87.9709 37.0503 87.7261 36.9631 87.5719 36.7888C87.421 36.6111 87.3355 36.3345 87.3154 35.9589H87.2852C87.0539 36.3747 86.784 36.6697 86.4755 36.8441C86.1704 37.0151 85.7982 37.1006 85.359 37.1006ZM87.2852 34.3144L86.2944 34.3345C85.872 34.3378 85.5501 34.3814 85.3288 34.4652C85.1075 34.5457 84.9382 34.6698 84.8208 34.8374C84.7035 35.005 84.6448 35.2247 84.6448 35.4962C84.6448 35.7913 84.7236 36.0193 84.8812 36.1802C85.0421 36.3412 85.2701 36.4216 85.5652 36.4216C85.9005 36.4216 86.1955 36.3462 86.4503 36.1953C86.7085 36.0444 86.9114 35.8382 87.0589 35.5767C87.2098 35.3118 87.2852 35.0403 87.2852 34.762V34.3144ZM90.6096 29.5365V37H89.7043V29.5365H90.6096ZM100.598 36.2154V37H95.0152V29.9137H100.392V30.6983H95.9758V32.9715H100.09V33.746H95.9758V36.2154H100.598ZM103.605 34.767L102.132 37H101.156L103.092 34.2037L101.247 31.5583H102.247L103.605 33.6756L104.953 31.5583H105.964L104.118 34.1937L106.08 37H105.069L103.605 34.767ZM107.578 34.4703C107.578 35.0939 107.708 35.575 107.966 35.9137C108.224 36.2523 108.601 36.4216 109.097 36.4216C109.49 36.4216 109.803 36.3428 110.038 36.1853C110.276 36.0277 110.437 35.8282 110.521 35.5868L111.315 35.8131C110.99 36.6714 110.251 37.1006 109.097 37.1006C108.293 37.1006 107.679 36.8609 107.257 36.3814C106.837 35.9019 106.628 35.1895 106.628 34.2439C106.628 33.3454 106.837 32.6564 107.257 32.1769C107.679 31.6974 108.281 31.4577 109.062 31.4577C109.863 31.4577 110.464 31.6991 110.863 32.1819C111.262 32.6647 111.461 33.3873 111.461 34.3496V34.4703H107.578ZM110.526 33.7762C110.475 33.2029 110.329 32.7854 110.088 32.5239C109.847 32.259 109.5 32.1266 109.047 32.1266C108.608 32.1266 108.259 32.2741 108.001 32.5692C107.746 32.8609 107.609 33.2632 107.588 33.7762H110.526ZM114.705 37.1006C113.944 37.1006 113.362 36.8609 112.96 36.3814C112.561 35.8986 112.361 35.1962 112.361 34.2741C112.361 33.3588 112.562 32.6614 112.965 32.1819C113.367 31.6991 113.944 31.4577 114.695 31.4577C115.251 31.4577 115.712 31.6019 116.078 31.8902C116.447 32.1786 116.678 32.5759 116.772 33.0822L115.842 33.1526C115.795 32.8508 115.676 32.6111 115.484 32.4334C115.293 32.2557 115.022 32.1668 114.67 32.1668C114.19 32.1668 113.843 32.3261 113.629 32.6446C113.414 32.9632 113.307 33.4996 113.307 34.254C113.307 34.9782 113.421 35.5147 113.649 35.8634C113.877 36.2121 114.22 36.3864 114.68 36.3864C115.002 36.3864 115.27 36.2993 115.484 36.1249C115.702 35.9506 115.837 35.6823 115.887 35.3202L116.802 35.3806C116.755 35.7293 116.638 36.0327 116.45 36.2909C116.266 36.549 116.024 36.7485 115.726 36.8894C115.431 37.0302 115.091 37.1006 114.705 37.1006ZM121.208 36.0696C121 36.4451 120.759 36.7117 120.484 36.8692C120.212 37.0235 119.873 37.1006 119.468 37.1006C118.871 37.1006 118.433 36.9531 118.155 36.658C117.88 36.3596 117.743 35.8684 117.743 35.1844V31.5583H118.653V35.0084C118.653 35.5516 118.737 35.9204 118.904 36.1148C119.075 36.306 119.365 36.4015 119.774 36.4015C120.21 36.4015 120.554 36.2523 120.805 35.9539C121.057 35.6555 121.183 35.2414 121.183 34.7117V31.5583H122.088V35.8382C122.088 36.1534 122.09 36.4082 122.093 36.6027C122.1 36.7972 122.108 36.9296 122.118 37H121.263C121.26 36.9832 121.253 36.9044 121.243 36.7636C121.236 36.6228 121.23 36.3915 121.223 36.0696H121.208ZM125.593 36.9598C125.298 37.0402 124.993 37.0805 124.678 37.0805C124.316 37.0805 124.044 36.9782 123.863 36.7737C123.682 36.5658 123.592 36.2573 123.592 35.8483V32.2171H122.963V31.5583H123.627L123.893 30.3412H124.497V31.5583H125.503V32.2171H124.497V35.6521C124.497 35.9137 124.539 36.0981 124.623 36.2054C124.71 36.3093 124.859 36.3613 125.07 36.3613C125.184 36.3613 125.359 36.3378 125.593 36.2909V36.9598ZM127.268 29.5365V30.4016H126.363V29.5365H127.268ZM127.268 31.5583V37H126.363V31.5583H127.268ZM133.082 31.5583L131.05 37H129.979L128.002 31.5583H128.968L130.165 35.0989C130.188 35.166 130.229 35.3001 130.286 35.5013C130.343 35.6991 130.418 35.9623 130.512 36.2909C130.556 36.1601 130.598 36.0243 130.638 35.8835C130.681 35.7393 130.723 35.6002 130.763 35.4661C130.807 35.3319 130.847 35.2129 130.884 35.109L132.121 31.5583H133.082ZM134.505 34.4703C134.505 35.0939 134.634 35.575 134.893 35.9137C135.151 36.2523 135.528 36.4216 136.024 36.4216C136.416 36.4216 136.73 36.3428 136.965 36.1853C137.203 36.0277 137.364 35.8282 137.447 35.5868L138.242 35.8131C137.917 36.6714 137.178 37.1006 136.024 37.1006C135.219 37.1006 134.606 36.8609 134.183 36.3814C133.764 35.9019 133.555 35.1895 133.555 34.2439C133.555 33.3454 133.764 32.6564 134.183 32.1769C134.606 31.6974 135.208 31.4577 135.989 31.4577C136.79 31.4577 137.39 31.6991 137.789 32.1819C138.188 32.6647 138.388 33.3873 138.388 34.3496V34.4703H134.505ZM137.452 33.7762C137.402 33.2029 137.256 32.7854 137.015 32.5239C136.773 32.259 136.426 32.1266 135.974 32.1266C135.535 32.1266 135.186 32.2741 134.928 32.5692C134.673 32.8609 134.535 33.2632 134.515 33.7762H137.452ZM143.417 32.2725V37H142.562V29.9137H143.825L145.711 34.8273C145.778 35.0252 145.841 35.2381 145.902 35.4661C145.965 35.6907 146.007 35.8533 146.027 35.9539C146.048 35.8634 146.081 35.7393 146.128 35.5817C146.175 35.4208 146.222 35.2666 146.269 35.119C146.316 34.9715 146.349 34.8743 146.369 34.8273L148.22 29.9137H149.452V37H148.587V32.2725C148.587 32.0109 148.591 31.7544 148.597 31.503C148.607 31.2515 148.619 31.0051 148.633 30.7637C148.549 31.0621 148.47 31.3303 148.396 31.5684C148.326 31.8031 148.257 32.0042 148.19 32.1719L146.359 37H145.685L143.83 32.1719L143.382 30.7637C143.389 31.0151 143.395 31.2666 143.402 31.5181C143.412 31.7695 143.417 32.021 143.417 32.2725ZM156.624 35.0034C156.624 35.6337 156.394 36.1249 155.935 36.477C155.476 36.8257 154.837 37 154.019 37H151.142V29.9137H153.717C154.549 29.9137 155.172 30.0579 155.588 30.3462C156.004 30.6312 156.212 31.0604 156.212 31.6337C156.212 32.0528 156.094 32.4049 155.86 32.6899C155.625 32.9749 155.293 33.166 154.864 33.2632C155.427 33.3303 155.861 33.5197 156.166 33.8315C156.472 34.14 156.624 34.5306 156.624 35.0034ZM155.246 31.7494C155.246 31.3672 155.115 31.0939 154.854 30.9296C154.592 30.7653 154.213 30.6832 153.717 30.6832H152.103V32.9263H153.717C154.23 32.9263 154.612 32.8307 154.864 32.6396C155.119 32.4451 155.246 32.1484 155.246 31.7494ZM155.653 34.9279C155.653 34.0931 155.067 33.6756 153.893 33.6756H152.103V36.2305H153.969C154.555 36.2305 154.983 36.1215 155.251 35.9036C155.519 35.6857 155.653 35.3604 155.653 34.9279ZM158.998 34.9279L158.183 37H157.187L160.079 29.9137H161.171L164.017 37H163.036L162.227 34.9279H158.998ZM160.612 30.6379C160.555 30.8257 160.487 31.0353 160.406 31.2666C160.329 31.4946 160.257 31.6958 160.19 31.8701L159.29 34.1786H161.94L161.03 31.8399C160.983 31.7226 160.921 31.5566 160.844 31.342C160.767 31.1275 160.689 30.8928 160.612 30.6379ZM168.031 32.2926V37H167.176V29.9137H168.292L172.124 35.9891C172.084 35.3286 172.064 34.8525 172.064 34.5608V29.9137H172.929V37H171.772L167.98 30.9648C167.987 31.1861 167.997 31.4074 168.01 31.6287C168.024 31.85 168.031 32.0713 168.031 32.2926ZM175.162 34.4703C175.162 35.0939 175.291 35.575 175.549 35.9137C175.808 36.2523 176.185 36.4216 176.681 36.4216C177.073 36.4216 177.387 36.3428 177.621 36.1853C177.859 36.0277 178.02 35.8282 178.104 35.5868L178.899 35.8131C178.574 36.6714 177.834 37.1006 176.681 37.1006C175.876 37.1006 175.263 36.8609 174.84 36.3814C174.421 35.9019 174.212 35.1895 174.212 34.2439C174.212 33.3454 174.421 32.6564 174.84 32.1769C175.263 31.6974 175.865 31.4577 176.646 31.4577C177.447 31.4577 178.047 31.6991 178.446 32.1819C178.845 32.6647 179.045 33.3873 179.045 34.3496V34.4703H175.162ZM178.109 33.7762C178.059 33.2029 177.913 32.7854 177.672 32.5239C177.43 32.259 177.083 32.1266 176.631 32.1266C176.191 32.1266 175.843 32.2741 175.585 32.5692C175.33 32.8609 175.192 33.2632 175.172 33.7762H178.109ZM182.294 36.9598C181.999 37.0402 181.693 37.0805 181.378 37.0805C181.016 37.0805 180.745 36.9782 180.564 36.7737C180.383 36.5658 180.292 36.2573 180.292 35.8483V32.2171H179.663V31.5583H180.327L180.594 30.3412H181.197V31.5583H182.203V32.2171H181.197V35.6521C181.197 35.9137 181.239 36.0981 181.323 36.2054C181.41 36.3093 181.559 36.3613 181.771 36.3613C181.885 36.3613 182.059 36.3378 182.294 36.2909V36.9598ZM185.915 33.1526L184.929 37H183.883L182.359 31.5583H183.254L184.19 35.3252C184.217 35.4325 184.248 35.5683 184.285 35.7326C184.322 35.8969 184.357 36.0696 184.391 36.2506C184.428 36.0931 184.465 35.9355 184.502 35.7779C184.542 35.6203 184.582 35.4644 184.622 35.3102L185.613 31.5583H186.584L187.534 35.2951C187.574 35.4527 187.613 35.6119 187.65 35.7729C187.69 35.9338 187.729 36.0931 187.766 36.2506C187.802 36.0897 187.839 35.9221 187.876 35.7477C187.916 35.57 187.953 35.4141 187.987 35.28L188.952 31.5583H189.838L188.279 37H187.227L186.277 33.1526C186.243 33.0118 186.211 32.8709 186.181 32.7301C186.154 32.586 186.126 32.4435 186.096 32.3026C186.082 32.3764 186.057 32.5021 186.02 32.6798C185.987 32.8542 185.952 33.0118 185.915 33.1526ZM195.113 34.2741C195.113 35.2263 194.904 35.9355 194.485 36.4015C194.066 36.8676 193.457 37.1006 192.659 37.1006C191.864 37.1006 191.264 36.8592 190.859 36.3764C190.453 35.8902 190.25 35.1895 190.25 34.2741C190.25 33.3353 190.453 32.6312 190.859 32.1618C191.268 31.6924 191.878 31.4577 192.689 31.4577C193.521 31.4577 194.133 31.6874 194.525 32.1467C194.917 32.6027 195.113 33.3118 195.113 34.2741ZM194.163 34.2741C194.163 33.5231 194.05 32.9782 193.826 32.6396C193.605 32.2976 193.231 32.1266 192.704 32.1266C192.175 32.1266 191.791 32.301 191.553 32.6497C191.318 32.995 191.201 33.5365 191.201 34.2741C191.201 34.9916 191.316 35.5314 191.548 35.8936C191.782 36.2523 192.149 36.4317 192.649 36.4317C193.192 36.4317 193.579 36.2573 193.811 35.9086C194.045 35.5599 194.163 35.0151 194.163 34.2741ZM197.17 34.1635V37H196.265V32.8257C196.265 32.6346 196.262 32.4334 196.255 32.2222C196.252 32.0109 196.245 31.7896 196.235 31.5583H197.09C197.097 31.7125 197.102 31.8517 197.105 31.9757C197.112 32.0998 197.117 32.2088 197.12 32.3026C197.123 32.3932 197.125 32.4703 197.125 32.534C197.128 32.5943 197.13 32.6396 197.13 32.6698H197.15C197.251 32.3412 197.361 32.0864 197.482 31.9053C197.599 31.7377 197.734 31.622 197.884 31.5583C198.035 31.4912 198.221 31.4577 198.443 31.4577C198.567 31.4577 198.689 31.4745 198.81 31.508V32.3378C198.696 32.3043 198.535 32.2875 198.327 32.2875C197.952 32.2875 197.665 32.4502 197.467 32.7754C197.269 33.0973 197.17 33.56 197.17 34.1635ZM200.58 35.0637V37H199.675V29.5365H200.58V34.1987L202.969 31.5583H204.03L201.822 33.8969L204.146 37H203.085L201.244 34.5155L200.58 35.0637Z" fill="white"/>
<path d="M43.5 23.5L23.6202 4.52381C22.4413 3.39856 20.5798 3.4202 19.4274 4.57256L4.12132 19.8787C2.94975 21.0503 2.94975 22.9497 4.12132 24.1213L19.5356 39.5356C20.6441 40.6441 22.4191 40.7122 23.6093 39.692L28.5 35.5M28.5 35.5L15 22M28.5 35.5L32.8787 31.1213C34.0503 29.9497 34.0503 28.0503 32.8787 26.8787L22 16" stroke="#2BCDC0" stroke-width="5" stroke-linecap="round" stroke-linejoin="round"/>
<rect x="51.5" y="33" width="9" height="2" rx="1" fill="#2BCDC0"/>
<rect x="206.5" y="33" width="9" height="2" rx="1" fill="#2BCDC0"/>
</svg>
