<svg width="220" height="45" viewBox="0 0 220 45" fill="none" xmlns="http://www.w3.org/2000/svg">
<path d="M58.8677 21.9891C59.8111 21.9826 60.7248 21.841 61.6088 21.5642C62.4928 21.2793 63.1754 20.9218 63.6564 20.492L63.64 18.0926L59.4073 18.1216L59.3889 15.4393L66.9438 15.3875L66.9875 21.7612C66.0752 22.7108 64.8826 23.4573 63.4098 24.0006C61.9451 24.5438 60.4048 24.821 58.7888 24.8321C56.9103 24.8449 55.3125 24.5072 53.9952 23.819C52.6861 23.1225 51.6866 22.108 50.9965 20.7756C50.3065 19.435 49.9549 17.809 49.9418 15.8978C49.9222 13.0431 50.6701 10.8518 52.1855 9.3238C53.7008 7.7876 55.8898 7.00969 58.7526 6.99007C60.787 6.97612 62.4548 7.34205 63.756 8.08784C65.0572 8.82542 65.9877 9.947 66.5477 11.4526L63.2078 12.4845C62.8408 11.6093 62.2703 10.9487 61.4961 10.5028C60.722 10.0569 59.814 9.83755 58.7722 9.84469C57.066 9.85638 55.7735 10.3821 54.8946 11.4217C54.0158 12.4614 53.583 13.945 53.5962 15.8727C53.6096 17.8332 54.0753 19.3476 54.9932 20.416C55.9192 21.4761 57.2107 22.0004 58.8677 21.9891ZM84.3856 21.605L84.4049 24.4104L70.2671 24.5073L70.1483 7.17037L83.7816 7.07694L83.8008 9.88235L73.7973 9.9509L73.8272 14.3067L83.0801 14.2433L83.0993 17.0487L73.8464 17.1121L73.8777 21.677L84.3856 21.605ZM90.2286 14.1451L90.2987 24.37L87.0749 24.3921L86.9561 7.05519L91.1027 7.02677L98.8606 20.4353C98.7044 19.1894 98.6228 18.062 98.6159 17.0531L98.5468 6.97575L101.771 6.95366L101.89 24.2906L97.6321 24.3198L89.9857 11.0213C90.064 11.6688 90.1213 12.2549 90.1577 12.7797C90.2023 13.2962 90.2259 13.7513 90.2286 14.1451ZM108.797 6.90551L108.915 24.2424L105.286 24.2673L105.167 6.93039L108.797 6.90551ZM119.511 24.4159C117.92 24.4268 116.573 24.1777 115.47 23.6684C114.367 23.1509 113.529 22.3938 112.956 21.3969C112.384 20.3918 112.092 19.1674 112.082 17.7237L112.008 6.8835L115.638 6.85863L115.71 17.4158C115.719 18.7857 116.051 19.8253 116.704 20.5345C117.365 21.2354 118.327 21.5816 119.59 21.5729C120.886 21.564 121.88 21.1881 122.572 20.445C123.265 19.6938 123.606 18.625 123.596 17.2387L123.525 6.80457L127.155 6.7797L127.228 17.4353C127.238 18.8955 126.939 20.1444 126.33 21.1822C125.731 22.2199 124.854 23.0176 123.701 23.5751C122.548 24.1244 121.152 24.4047 119.511 24.4159ZM144.613 19.002C144.625 20.7 144.002 22.0045 142.745 22.9155C141.496 23.8182 139.653 24.2779 137.217 24.2946C132.829 24.3247 130.262 22.7549 129.519 19.5853L133.022 18.983C133.266 19.9001 133.734 20.5654 134.426 20.9791C135.118 21.3845 136.075 21.583 137.297 21.5746C138.568 21.5659 139.519 21.3666 140.148 20.9768C140.777 20.5869 141.088 20.0064 141.083 19.2353C141.08 18.7432 140.933 18.3381 140.644 18.0202C140.355 17.7022 139.943 17.4384 139.408 17.2288C139.145 17.124 138.759 17.0118 138.249 16.8922C137.74 16.7645 137.107 16.6252 136.351 16.4745C135.48 16.2754 134.798 16.1078 134.305 15.9718C133.812 15.8275 133.417 15.6907 133.121 15.5615C132.825 15.4241 132.537 15.2743 132.257 15.1121C131.639 14.7472 131.156 14.2583 130.807 13.6455C130.458 13.0326 130.281 12.2668 130.275 11.3481C130.264 9.78131 130.842 8.57966 132.009 7.74313C133.185 6.89834 134.896 6.46824 137.144 6.45283C139.293 6.4381 140.907 6.76338 141.987 7.42865C143.074 8.09387 143.779 9.20059 144.101 10.7488L140.585 11.2528C140.4 10.5076 140.027 9.9482 139.466 9.57469C138.914 9.20112 138.121 9.01788 137.088 9.02496C135.989 9.03249 135.165 9.2104 134.618 9.55869C134.071 9.90698 133.8 10.4257 133.804 11.1147C133.808 11.5659 133.925 11.9342 134.157 12.2198C134.396 12.5052 134.747 12.7489 135.207 12.9509C135.644 13.1447 136.576 13.3886 138.006 13.6823C138.835 13.8571 139.55 14.0244 140.15 14.1844C140.75 14.3361 141.231 14.4846 141.593 14.6298C141.955 14.7832 142.276 14.945 142.556 15.1154C142.844 15.2857 143.092 15.4686 143.298 15.664C143.719 16.0631 144.042 16.5408 144.268 17.0971C144.493 17.6451 144.608 18.2801 144.613 19.002ZM150.469 13.4492L150.541 23.9572L147.317 23.9793L147.199 6.64233L152.059 6.60902L155.226 16.2837C155.369 16.8241 155.516 17.3686 155.668 17.9172C155.819 18.4576 155.966 18.998 156.11 19.5384C156.198 19.2261 156.282 18.9179 156.362 18.6138C156.442 18.3016 156.521 17.9893 156.601 17.677C156.689 17.3647 156.778 17.0565 156.866 16.7523L159.983 6.55472L164.818 6.52158L164.937 23.8585L161.713 23.8806L161.641 13.3726C161.64 13.1348 161.645 12.6589 161.656 11.9452C161.676 11.2231 161.703 10.4395 161.739 9.59432C161.459 10.6955 161.211 11.6324 160.995 12.405C160.787 13.1775 160.615 13.7816 160.478 14.2174L157.419 23.91L154.835 23.9277L151.644 14.2779L150.296 9.67274C150.351 10.624 150.394 11.4153 150.423 12.0468C150.451 12.67 150.467 13.1375 150.469 13.4492ZM182.427 20.9331L182.446 23.7385L168.309 23.8354L168.19 6.49847L181.823 6.40504L181.842 9.21045L171.839 9.279L171.869 13.6348L181.122 13.5714L181.141 16.3768L171.888 16.4402L171.919 21.0051L182.427 20.9331ZM199.22 18.6277C199.232 20.3257 198.609 21.6302 197.352 22.5412C196.103 23.4439 194.26 23.9036 191.824 23.9203C187.435 23.9504 184.869 22.3807 184.126 19.2111L187.629 18.6087C187.873 19.5258 188.341 20.1912 189.033 20.6048C189.725 21.0103 190.682 21.2088 191.904 21.2004C193.175 21.1917 194.126 20.9924 194.754 20.6025C195.383 20.2127 195.695 19.6322 195.69 18.8611C195.687 18.3689 195.54 17.9639 195.251 17.6459C194.962 17.328 194.55 17.0642 194.015 16.8546C193.752 16.7497 193.366 16.6375 192.856 16.518C192.347 16.3902 191.714 16.251 190.958 16.1003C190.087 15.9012 189.405 15.7336 188.912 15.5975C188.419 15.4532 188.024 15.3165 187.728 15.1873C187.432 15.0498 187.144 14.9001 186.864 14.7379C186.246 14.373 185.763 13.8841 185.414 13.2713C185.065 12.6584 184.888 11.8926 184.881 10.9739C184.871 9.40708 185.449 8.20543 186.616 7.3689C187.792 6.5241 189.503 6.094 191.751 6.0786C193.9 6.06387 195.514 6.38914 196.594 7.05442C197.681 7.71964 198.386 8.82636 198.708 10.3746L195.192 10.8786C195.007 10.1334 194.634 9.57397 194.073 9.20045C193.521 8.82688 192.728 8.64364 191.695 8.65073C190.596 8.65826 189.772 8.83617 189.225 9.18446C188.678 9.53275 188.407 10.0514 188.411 10.7405C188.414 11.1917 188.532 11.56 188.763 11.8455C189.003 12.131 189.354 12.3747 189.814 12.5766C190.251 12.7705 191.183 13.0143 192.613 13.3081C193.442 13.4828 194.157 13.6502 194.757 13.8102C195.357 13.9619 195.838 14.1104 196.2 14.2556C196.562 14.4089 196.883 14.5708 197.163 14.7412C197.451 14.9115 197.699 15.0943 197.905 15.2898C198.326 15.6889 198.649 16.1666 198.875 16.7228C199.1 17.2709 199.215 17.9059 199.22 18.6277ZM205.503 16.1483L205.554 23.5802L201.924 23.605L201.805 6.2681L205.435 6.24322L205.483 13.146L213.037 13.0942L212.99 6.19145L216.62 6.16657L216.739 23.5035L213.109 23.5284L213.058 16.0965L205.503 16.1483Z" fill="#010D45"/>
<path d="M65.1484 37.8637C65.611 37.8606 66.0414 37.7872 66.4394 37.6436C66.8408 37.5001 67.1647 37.3067 67.4111 37.0636L67.4024 35.7862L65.2851 35.8007L65.2796 34.9961L68.282 34.9755L68.2988 37.4197C67.9259 37.8045 67.4669 38.1043 66.9218 38.3193C66.3801 38.5309 65.7907 38.6389 65.1537 38.6433C64.4161 38.6483 63.7797 38.5035 63.2446 38.2087C62.7094 37.914 62.2958 37.4927 62.0037 36.9448C61.7116 36.3935 61.5629 35.7424 61.5578 34.9914C61.5499 33.8414 61.8523 32.9491 62.4649 32.3146C63.0775 31.68 63.942 31.3589 65.0585 31.3513C65.843 31.3459 66.481 31.4739 66.9723 31.7355C67.4636 31.997 67.8437 32.4185 68.1126 33.0001L67.1991 33.2779C66.9952 32.877 66.7149 32.5855 66.3582 32.4036C66.0049 32.2216 65.5651 32.1324 65.0387 32.136C64.2206 32.1416 63.597 32.394 63.1679 32.8932C62.7388 33.389 62.5273 34.0862 62.5335 34.9847C62.5396 35.8799 62.7741 36.5858 63.237 37.1023C63.6999 37.6155 64.337 37.8693 65.1484 37.8637ZM70.6289 31.0415L70.6801 38.5048L69.7748 38.511L69.7237 31.0477L70.6289 31.0415ZM76.6512 35.7379C76.6577 36.6901 76.453 37.4007 76.0371 37.8696C75.6212 38.3385 75.0142 38.5757 74.2163 38.5811C73.4217 38.5866 72.8199 38.3493 72.4109 37.8693C72.0019 37.3859 71.7942 36.6866 71.7879 35.7713C71.7815 34.8325 71.9795 34.127 72.382 33.6548C72.7878 33.1826 73.3964 32.9438 74.2078 32.9382C75.0393 32.9325 75.6527 33.158 76.0482 33.6146C76.4436 34.0679 76.6446 34.7757 76.6512 35.7379ZM75.7006 35.7444C75.6955 34.9934 75.5794 34.4494 75.3525 34.1123C75.1289 33.7718 74.7538 33.6034 74.2275 33.607C73.6977 33.6106 73.315 33.7876 73.0794 34.1379C72.847 34.4848 72.7334 35.0271 72.7385 35.7647C72.7434 36.4822 72.8627 37.0212 73.0966 37.3818C73.3337 37.7389 73.7021 37.9158 74.2016 37.9123C74.7448 37.9086 75.1308 37.7316 75.3598 37.3813C75.5921 37.031 75.7057 36.4854 75.7006 35.7444ZM82.3843 35.6785C82.3908 36.6274 82.228 37.341 81.896 37.8194C81.5673 38.2944 81.0694 38.5342 80.4022 38.5387C79.9898 38.5416 79.6456 38.4702 79.3697 38.3245C79.0971 38.1755 78.8741 37.9356 78.7009 37.6049H78.6908C78.6913 37.672 78.6886 37.7693 78.6827 37.8967C78.6769 38.0242 78.671 38.1432 78.6651 38.2539C78.6591 38.3613 78.6528 38.4267 78.6463 38.4502L77.7712 38.4562C77.7807 38.3656 77.7864 38.2281 77.7885 38.0437C77.7939 37.8559 77.7957 37.6195 77.7937 37.3345L77.7503 30.9927L78.6555 30.9865L78.6701 33.1138C78.6708 33.2211 78.67 33.3401 78.6675 33.4709C78.665 33.5984 78.6609 33.7359 78.6552 33.8834L78.6754 33.8833C78.8406 33.5334 79.0602 33.2821 79.3341 33.1294C79.6113 32.9766 79.9545 32.8988 80.3635 32.896C81.0508 32.8913 81.557 33.1192 81.882 33.5797C82.2104 34.0401 82.3778 34.7397 82.3843 35.6785ZM81.434 35.7152C81.4288 34.9541 81.3244 34.41 81.121 34.0828C80.9176 33.7556 80.5896 33.5936 80.137 33.5967C79.6273 33.6001 79.2564 33.777 79.0241 34.1273C78.7951 34.4776 78.6832 35.0316 78.6884 35.7893C78.6933 36.5035 78.8109 37.0308 79.0413 37.3712C79.2716 37.7083 79.6432 37.875 80.1562 37.8715C80.6122 37.8684 80.9396 37.6985 81.1385 37.3618C81.3407 37.0218 81.4392 36.4729 81.434 35.7152ZM84.9234 38.5078C84.3769 38.5115 83.9652 38.3702 83.6883 38.0837C83.4114 37.7972 83.2712 37.4026 83.2678 36.8996C83.2639 36.3364 83.4453 35.9026 83.8121 35.5983C84.1822 35.294 84.7795 35.129 85.6042 35.1032L86.8261 35.0747L86.8241 34.778C86.8211 34.3354 86.725 34.0192 86.536 33.8294C86.3469 33.6396 86.0512 33.5461 85.6489 33.5488C85.2432 33.5516 84.9486 33.6224 84.7651 33.7611C84.5817 33.8998 84.4725 34.1202 84.4377 34.4222L83.4917 34.3432C83.6392 33.3631 84.3634 32.8686 85.6643 32.8597C86.3482 32.855 86.864 33.0091 87.2115 33.3218C87.5589 33.6313 87.7347 34.0827 87.7388 34.6762L87.7548 37.0198C87.7567 37.288 87.7933 37.4906 87.8646 37.6276C87.9359 37.7612 88.0705 37.8273 88.2683 37.826C88.3622 37.8253 88.461 37.8129 88.5648 37.7887L88.5687 38.352C88.4549 38.3796 88.3393 38.4005 88.2221 38.4147C88.1048 38.429 87.9875 38.4365 87.8702 38.4373C87.5349 38.4396 87.2895 38.3541 87.1341 38.1808C86.982 38.0041 86.8946 37.7281 86.8719 37.3527L86.8418 37.3529C86.6133 37.7703 86.3454 38.0672 86.0381 38.2436C85.7342 38.4167 85.3626 38.5048 84.9234 38.5078ZM86.8305 35.7084L85.8399 35.7353C85.4174 35.7416 85.0959 35.7873 84.8752 35.8727C84.6544 35.9547 84.486 36.0799 84.3698 36.2483C84.2536 36.4168 84.1964 36.6368 84.1983 36.9084C84.2003 37.2034 84.2806 37.4308 84.4393 37.5907C84.6014 37.7505 84.8299 37.8294 85.1249 37.8274C85.4602 37.8251 85.7548 37.7477 86.0085 37.595C86.2657 37.4424 86.4671 37.2348 86.6128 36.9723C86.7619 36.7064 86.8355 36.4343 86.8336 36.156L86.8305 35.7084ZM90.122 30.9079L90.1732 38.3712L89.2679 38.3774L89.2168 30.9141L90.122 30.9079ZM100.155 37.5182L100.161 38.3027L94.5787 38.341L94.5302 31.2549L99.9064 31.218L99.9117 32.0026L95.4961 32.0329L95.5117 34.3061L99.6256 34.2779L99.6309 35.0524L95.517 35.0805L95.5339 37.5499L100.155 37.5182ZM103.153 36.0492L101.695 38.2922L100.719 38.2989L102.636 35.4894L100.772 32.8567L101.773 32.8499L103.145 34.9579L104.479 32.8313L105.49 32.8244L103.662 35.4723L105.643 38.2652L104.632 38.2721L103.153 36.0492ZM107.124 35.7252C107.128 36.3489 107.261 36.8291 107.521 37.166C107.782 37.5028 108.16 37.6695 108.656 37.6661C109.048 37.6635 109.361 37.5825 109.595 37.4233C109.832 37.2641 109.991 37.0635 110.074 36.8215L110.87 37.0424C110.55 37.903 109.814 38.3372 108.661 38.3451C107.856 38.3506 107.241 38.1151 106.815 37.6385C106.393 37.162 106.178 36.4509 106.172 35.5054C106.166 34.6069 106.37 33.9165 106.786 33.4341C107.205 32.9518 107.806 32.7079 108.587 32.7026C109.388 32.6971 109.99 32.9344 110.392 33.4145C110.795 33.8945 110.999 34.6157 111.006 35.5779V35.6986L107.124 35.7252ZM110.066 35.011C110.012 34.438 109.863 34.0216 109.62 33.7617C109.377 33.4985 109.029 33.3685 108.576 33.3716C108.137 33.3746 107.789 33.5245 107.533 33.8213C107.281 34.1147 107.146 34.518 107.129 35.0311L110.066 35.011ZM114.268 38.3067C113.507 38.3119 112.924 38.0761 112.518 37.5994C112.116 37.1194 111.912 36.4183 111.905 35.4963C111.899 34.581 112.095 33.8822 112.494 33.4C112.893 32.9145 113.469 32.6691 114.22 32.664C114.776 32.6602 115.238 32.8012 115.606 33.087C115.976 33.3728 116.21 33.7685 116.308 34.2742L115.378 34.351C115.329 34.0495 115.208 33.8106 115.016 33.6342C114.823 33.4578 114.551 33.3709 114.199 33.3733C113.72 33.3766 113.374 33.5382 113.161 33.8582C112.949 34.1782 112.845 34.7153 112.851 35.4697C112.856 36.1939 112.973 36.7296 113.204 37.0767C113.434 37.4238 113.779 37.5958 114.238 37.5927C114.56 37.5905 114.828 37.5015 115.041 37.3257C115.258 37.1498 115.39 36.8807 115.438 36.5182L116.354 36.5723C116.309 36.9213 116.194 37.2255 116.008 37.485C115.825 37.7444 115.585 37.9456 115.288 38.0884C114.994 38.2313 114.654 38.304 114.268 38.3067ZM120.764 37.2311C120.559 37.608 120.319 37.8762 120.045 38.0357C119.775 38.1918 119.437 38.2712 119.031 38.274C118.434 38.2781 117.996 38.1336 117.715 37.8404C117.438 37.5439 117.297 37.0537 117.293 36.3697L117.268 32.7437L118.178 32.7374L118.202 36.1875C118.206 36.7306 118.292 37.0988 118.461 37.2922C118.633 37.4821 118.924 37.5757 119.333 37.5729C119.769 37.5699 120.111 37.4183 120.361 37.1182C120.61 36.8181 120.733 36.4031 120.729 35.8734L120.708 32.7201L121.613 32.7139L121.642 36.9937C121.645 37.3089 121.648 37.5637 121.653 37.7581C121.661 37.9526 121.67 38.0849 121.681 38.1553L120.826 38.1611C120.822 38.1444 120.815 38.0656 120.804 37.9249C120.796 37.7841 120.788 37.5528 120.779 37.231L120.764 37.2311ZM125.155 38.0912C124.861 38.1737 124.556 38.216 124.241 38.2182C123.879 38.2207 123.607 38.1203 123.424 37.917C123.242 37.7104 123.149 37.4025 123.146 36.9935L123.121 33.3624L122.493 33.3667L122.488 32.7079L123.152 32.7034L123.41 31.4845L124.014 31.4803L124.022 32.6974L125.028 32.6905L125.032 33.3493L124.027 33.3562L124.05 36.7911C124.052 37.0527 124.095 37.2368 124.18 37.3435C124.268 37.4468 124.417 37.4978 124.628 37.4963C124.742 37.4955 124.917 37.4709 125.151 37.4223L125.155 38.0912ZM126.779 30.6567L126.785 31.5217L125.88 31.5279L125.874 30.6629L126.779 30.6567ZM126.793 32.6784L126.83 38.12L125.925 38.1262L125.888 32.6846L126.793 32.6784ZM132.607 32.6386L130.612 38.0941L129.541 38.1014L127.527 32.6734L128.493 32.6668L129.714 36.1991C129.738 36.266 129.779 36.3998 129.838 36.6006C129.896 36.798 129.973 37.0607 130.069 37.3886C130.112 37.2576 130.153 37.1215 130.192 36.9804C130.235 36.8359 130.276 36.6965 130.315 36.5621C130.358 36.4277 130.397 36.3084 130.433 36.2042L131.646 32.6451L132.607 32.6386ZM134.05 35.5407C134.054 36.1643 134.187 36.6446 134.447 36.9814C134.708 37.3183 135.086 37.485 135.582 37.4816C135.975 37.4789 136.288 37.398 136.521 37.2388C136.758 37.0796 136.918 36.879 137 36.637L137.796 36.8579C137.477 37.7184 136.74 38.1526 135.587 38.1606C134.782 38.1661 134.167 37.9305 133.741 37.454C133.319 36.9774 133.105 36.2664 133.098 35.3209C133.092 34.4224 133.297 33.7319 133.713 33.2496C134.132 32.7673 134.732 32.5234 135.513 32.5181C136.314 32.5126 136.916 32.7499 137.318 33.2299C137.721 33.71 137.925 34.4311 137.932 35.3934L137.933 35.5141L134.05 35.5407ZM136.992 34.8265C136.938 34.2535 136.79 33.8371 136.546 33.5772C136.303 33.314 135.955 33.1839 135.503 33.187C135.063 33.19 134.716 33.34 134.46 33.6368C134.207 33.9302 134.072 34.3335 134.055 34.8466L136.992 34.8265ZM142.947 33.2819L142.979 38.0093L142.124 38.0152L142.076 30.9291L143.338 30.9204L145.258 35.821C145.326 36.0183 145.391 36.2308 145.453 36.4584C145.518 36.6826 145.561 36.8449 145.582 36.9453C145.602 36.8547 145.634 36.7304 145.68 36.5725C145.726 36.4112 145.772 36.2567 145.818 36.1088C145.864 35.961 145.897 35.8635 145.916 35.8165L147.733 30.8903L148.966 30.8818L149.014 37.9679L148.149 37.9739L148.117 33.2464C148.115 32.9849 148.117 32.7284 148.122 32.4769C148.13 32.2254 148.14 31.9789 148.152 31.7374C148.07 32.0364 147.993 32.3051 147.921 32.5437C147.852 32.7788 147.785 32.9805 147.719 33.1486L145.921 37.9891L145.247 37.9938L143.358 33.1785L142.901 31.7734C142.91 32.0248 142.918 32.2762 142.927 32.5276C142.938 32.779 142.945 33.0304 142.947 33.2819ZM156.172 35.9222C156.176 36.5525 155.95 37.0453 155.493 37.4005C155.036 37.7523 154.399 37.931 153.581 37.9366L150.704 37.9564L150.655 30.8703L153.23 30.8526C154.062 30.8469 154.686 30.9868 155.104 31.2723C155.522 31.5544 155.733 31.9822 155.737 32.5555C155.739 32.9746 155.625 33.3274 155.392 33.614C155.159 33.9006 154.828 34.094 154.4 34.1942C154.964 34.2574 155.399 34.4438 155.706 34.7536C156.014 35.0599 156.169 35.4495 156.172 35.9222ZM154.772 32.6778C154.769 32.2956 154.637 32.0232 154.374 31.8607C154.111 31.6982 153.732 31.6187 153.236 31.6221L151.621 31.6331L151.637 33.8761L153.251 33.8651C153.764 33.8616 154.146 33.7634 154.396 33.5706C154.649 33.3744 154.775 33.0768 154.772 32.6778ZM155.201 35.8534C155.195 35.0186 154.606 34.6052 153.432 34.6132L151.642 34.6255L151.659 37.1803L153.525 37.1675C154.112 37.1635 154.539 37.0516 154.805 36.8318C155.072 36.6121 155.204 36.2859 155.201 35.8534ZM158.545 35.8305L157.745 37.9081L156.749 37.9149L159.592 30.809L160.684 30.8015L163.579 37.8681L162.598 37.8749L161.774 35.8084L158.545 35.8305ZM160.13 31.5296C160.075 31.7177 160.007 31.9277 159.928 32.1596C159.853 32.3881 159.782 32.5898 159.716 32.7646L158.832 35.0792L161.482 35.061L160.556 32.7287C160.508 32.6116 160.445 32.4461 160.366 32.2321C160.288 32.018 160.209 31.7838 160.13 31.5296ZM167.56 33.1333L167.592 37.8406L166.737 37.8465L166.688 30.7604L167.805 30.7527L171.679 36.8017C171.634 36.1415 171.611 35.6655 171.609 35.3738L171.577 30.7269L172.442 30.7209L172.49 37.8071L171.334 37.815L167.5 31.806C167.509 32.0272 167.52 32.2484 167.535 32.4696C167.55 32.6908 167.558 32.912 167.56 33.1333ZM174.706 35.2621C174.71 35.8857 174.843 36.3659 175.103 36.7028C175.364 37.0397 175.742 37.2064 176.238 37.203C176.63 37.2003 176.943 37.1194 177.177 36.9602C177.414 36.801 177.574 36.6004 177.656 36.3584L178.452 36.5793C178.133 37.4398 177.396 37.874 176.243 37.8819C175.438 37.8874 174.823 37.6519 174.397 37.1754C173.975 36.6988 173.76 35.9878 173.754 35.0423C173.748 34.1437 173.953 33.4533 174.368 32.971C174.788 32.4886 175.388 32.2448 176.169 32.2394C176.97 32.2339 177.572 32.4712 177.974 32.9513C178.377 33.4314 178.581 34.1525 178.588 35.1148L178.589 35.2355L174.706 35.2621ZM177.648 34.5479C177.594 33.9749 177.445 33.5584 177.202 33.2986C176.959 33.0354 176.611 32.9053 176.158 32.9084C175.719 32.9114 175.372 33.0613 175.115 33.3582C174.863 33.6516 174.728 34.0549 174.711 34.568L177.648 34.5479ZM181.854 37.7026C181.56 37.7851 181.255 37.8275 180.94 37.8296C180.578 37.8321 180.306 37.7317 180.123 37.5284C179.941 37.3218 179.848 37.014 179.845 36.6049L179.82 32.9739L179.192 32.9782L179.187 32.3193L179.851 32.3148L180.109 31.0959L180.713 31.0918L180.721 32.3088L181.727 32.3019L181.731 32.9608L180.726 32.9676L180.749 36.4026C180.751 36.6641 180.794 36.8482 180.879 36.9549C180.967 37.0583 181.116 37.1092 181.327 37.1078C181.441 37.107 181.615 37.0823 181.85 37.0338L181.854 37.7026ZM185.449 33.8707L184.49 37.7248L183.444 37.732L181.883 32.3009L182.778 32.2947L183.739 36.0552C183.767 36.1623 183.8 36.2978 183.838 36.4619C183.876 36.6259 183.912 36.7983 183.947 36.9792C183.983 36.8213 184.018 36.6635 184.054 36.5057C184.093 36.3478 184.132 36.1916 184.172 36.0371L185.137 32.2786L186.107 32.2719L187.083 36.0021C187.125 36.1594 187.164 36.3184 187.202 36.4791C187.244 36.6397 187.283 36.7987 187.321 36.956C187.357 36.7948 187.393 36.627 187.429 36.4524C187.468 36.2744 187.503 36.1182 187.536 35.9839L188.476 32.2557L189.361 32.2496L187.839 37.7019L186.788 37.7091L185.811 33.8683C185.777 33.7277 185.744 33.5871 185.713 33.4465C185.685 33.3025 185.656 33.1602 185.625 33.0196C185.612 33.0934 185.587 33.2193 185.552 33.3973C185.519 33.5719 185.485 33.7297 185.449 33.8707ZM194.655 34.9292C194.662 35.8814 194.457 36.592 194.041 37.0609C193.625 37.5298 193.019 37.767 192.221 37.7724C191.426 37.7779 190.824 37.5406 190.415 37.0606C190.006 36.5772 189.798 35.8779 189.792 34.9625C189.786 34.0238 189.984 33.3183 190.386 32.8461C190.792 32.3739 191.401 32.135 192.212 32.1295C193.044 32.1238 193.657 32.3493 194.052 32.8059C194.448 33.2592 194.649 33.967 194.655 34.9292ZM193.705 34.9357C193.7 34.1847 193.584 33.6406 193.357 33.3036C193.133 32.9631 192.758 32.7947 192.232 32.7983C191.702 32.8019 191.319 32.9789 191.084 33.3292C190.851 33.6761 190.738 34.2184 190.743 34.956C190.748 35.6735 190.867 36.2125 191.101 36.573C191.338 36.9302 191.706 37.107 192.206 37.1036C192.749 37.0999 193.135 36.9229 193.364 36.5726C193.596 36.2223 193.71 35.6767 193.705 34.9357ZM196.712 34.8045L196.731 37.6409L195.826 37.6471L195.797 33.4729C195.796 33.2818 195.791 33.0807 195.783 32.8695C195.778 32.6583 195.77 32.437 195.758 32.2058L196.613 32.1999C196.621 32.3541 196.627 32.4932 196.631 32.6172C196.639 32.7412 196.645 32.8502 196.649 32.944C196.653 33.0345 196.655 33.1116 196.655 33.1753C196.659 33.2357 196.661 33.2809 196.661 33.3111L196.681 33.3109C196.78 32.9817 196.888 32.7261 197.008 32.5442C197.124 32.3758 197.257 32.2592 197.408 32.1945C197.558 32.1264 197.744 32.0916 197.965 32.0901C198.089 32.0892 198.212 32.1051 198.333 32.1378L198.339 32.9676C198.224 32.9349 198.063 32.9192 197.855 32.9207C197.48 32.9232 197.194 33.0878 196.999 33.4144C196.803 33.7376 196.707 34.201 196.712 34.8045ZM200.128 35.6813L200.141 37.6176L199.236 37.6238L199.184 30.1605L200.09 30.1543L200.122 34.8163L202.492 32.1596L203.554 32.1523L201.362 34.506L203.706 37.5931L202.645 37.6004L200.788 35.1286L200.128 35.6813Z" fill="#363E61"/>
<path d="M42.9718 25.1945L22.9624 6.35498C21.7759 5.23783 19.9145 5.27223 18.7701 6.43246L3.56927 21.8431C2.40575 23.0227 2.41877 24.9221 3.59834 26.0856L19.1178 41.3939C20.2339 42.4948 22.0093 42.5508 23.1925 41.5224L28.0544 37.297M28.0544 37.297L14.4622 23.8898M28.0544 37.297L32.403 32.8884C33.5665 31.7088 33.5535 29.8094 32.3739 28.6459L21.4209 17.842" stroke="#2BCDC0" stroke-width="5" stroke-linecap="round" stroke-linejoin="round"/>
<path d="M59.0369 34.5846L52.0371 34.6326C51.4848 34.6363 51.0402 35.0871 51.044 35.6394C51.0477 36.1917 51.4985 36.6363 52.0508 36.6325L59.0506 36.5845C59.6029 36.5807 60.0475 36.13 60.0438 35.5777C60.04 35.0254 59.5892 34.5808 59.0369 34.5846Z" fill="#2BCDC0"/>
<path d="M214.033 33.5223L207.033 33.5703C206.481 33.5741 206.036 34.0249 206.04 34.5771C206.044 35.1294 206.495 35.574 207.047 35.5702L214.047 35.5223C214.599 35.5185 215.044 35.0677 215.04 34.5154C215.036 33.9632 214.585 33.5185 214.033 33.5223Z" fill="#2BCDC0"/>
</svg>
