<svg width="86" height="86" viewBox="0 0 86 86" fill="none" xmlns="http://www.w3.org/2000/svg">
<rect width="86" height="86" rx="10" fill="#2BCDC0"/>
<path d="M51 31C51 27.6863 53.6862 25 57 25C60.3138 25 63 27.6863 63 31C63 34.3137 60.3138 37 57 37C56.676 37 56.358 36.9743 56.048 36.9249L51.9724 43.641C52.621 44.5994 53 45.7554 53 47C53 50.3138 50.3138 53 47 53C45.1944 53 43.575 52.2024 42.475 50.9402L34.9917 54.6814C34.9972 54.7868 35 54.8932 35 55C35 58.3138 32.3137 61 29 61C25.6863 61 23 58.3138 23 55C23 51.6862 25.6863 49 29 49C31.1324 49 33.005 50.1124 34.0691 51.7886L41.132 48.2576C41.0456 47.8522 41 47.4314 41 47C41 43.6862 43.6862 41 47 41C47.9642 41 48.8752 41.2274 49.6826 41.6316L53.2782 35.7065C51.8904 34.6076 51 32.9078 51 31Z" fill="white"/>
</svg>
