<svg width="86" height="86" viewBox="0 0 86 86" fill="none" xmlns="http://www.w3.org/2000/svg">
<rect width="86" height="86" rx="10" fill="#2BCDC0"/>
<path d="M59.0688 45.6H61V48H60.5875C60.3375 48.7125 59.9875 49.3625 59.5375 49.95C59.0875 50.5375 58.5563 51.0438 57.9438 51.4688C57.3313 51.8938 56.6813 52.2188 55.9938 52.4438C55.3063 52.6688 54.575 52.7875 53.8 52.8C53.05 52.8 52.3188 52.6875 51.6063 52.4625C50.8938 52.2375 50.2375 51.9125 49.6375 51.4875C49.0375 51.0625 48.5125 50.5563 48.0625 49.9688C47.6125 49.3813 47.2625 48.725 47.0125 48H46.6V45.6H48.5313L52.0375 35.1L44.2 32.4938V55.2375C46.3125 55.375 48.2938 55.8438 50.1438 56.6438C51.9938 57.4438 53.6938 58.5625 55.2438 60H58.6V62.4H27.4V60H30.7563C32.2938 58.575 33.9938 57.4625 35.8563 56.6625C37.7188 55.8625 39.7 55.3875 41.8 55.2375V31.6875L34.4125 29.2313L37.4688 38.4H39.4V40.8H38.9875C38.7375 41.5125 38.3875 42.1625 37.9375 42.75C37.4875 43.3375 36.9563 43.8438 36.3438 44.2688C35.7313 44.6938 35.0813 45.0188 34.3938 45.2438C33.7063 45.4688 32.975 45.5875 32.2 45.6C31.45 45.6 30.7188 45.4875 30.0063 45.2625C29.2938 45.0375 28.6375 44.7125 28.0375 44.2875C27.4375 43.8625 26.9125 43.3563 26.4625 42.7688C26.0125 42.1813 25.6625 41.525 25.4125 40.8H25V38.4H26.9313L30.4375 27.9L25.525 26.2688L26.2938 24L41.8 29.1563V24H44.2V29.9625L60.4563 35.3625L59.6875 37.65L55.9938 36.4125L59.0688 45.6ZM36.3625 40.8H28.0375C28.475 41.55 29.0625 42.1375 29.8 42.5625C30.5375 42.9875 31.3375 43.2 32.2 43.2C33.0625 43.2 33.8625 42.9875 34.6 42.5625C35.3375 42.1375 35.925 41.55 36.3625 40.8ZM34.9375 38.4L32.2 30.1875L29.4625 38.4H34.9375ZM43 57.6C41.525 57.6 40.0813 57.8 38.6688 58.2C37.2563 58.6 35.925 59.2 34.675 60H51.325C50.0875 59.2125 48.7563 58.6188 47.3313 58.2188C45.9063 57.8188 44.4625 57.6125 43 57.6ZM53.8 37.3875L51.0625 45.6H56.5375L53.8 37.3875ZM57.9625 48H49.6375C50.075 48.75 50.6625 49.3375 51.4 49.7625C52.1375 50.1875 52.9375 50.4 53.8 50.4C54.6625 50.4 55.4625 50.1875 56.2 49.7625C56.9375 49.3375 57.525 48.75 57.9625 48Z" fill="white"/>
</svg>
