<svg width="86" height="86" viewBox="0 0 86 86" fill="none" xmlns="http://www.w3.org/2000/svg">
<rect width="86" height="86" rx="10" fill="#2BCDC0"/>
<path d="M38 26C41.4478 26 44.7544 27.3696 47.1924 29.8076C49.6304 32.2456 51 35.5522 51 39C51 42.22 49.82 45.18 47.88 47.46L48.42 48H50L60 58L57 61L47 51V49.42L46.46 48.88C44.1011 50.8935 41.1014 51.9998 38 52C34.5522 52 31.2456 50.6304 28.8076 48.1924C26.3696 45.7544 25 42.4478 25 39C25 35.5522 26.3696 32.2456 28.8076 29.8076C31.2456 27.3696 34.5522 26 38 26ZM38 30C33 30 29 34 29 39C29 44 33 48 38 48C43 48 47 44 47 39C47 34 43 30 38 30Z" fill="white"/>
</svg>
