<svg xmlns="http://www.w3.org/2000/svg" width="404" height="94" viewBox="0 0 404 94">
  <g id="timeLineResp1" transform="translate(-908 -387)">
    <rect id="Rectangle_1" data-name="Rectangle 1" width="404" height="94" transform="translate(908 387)" fill="#fff"/>
    <circle id="Ellipse_1" data-name="Ellipse 1" cx="12" cy="12" r="12" transform="translate(990.334 410.078)" fill="#2bcdc0"/>
    <path id="Path_1" data-name="Path 1" d="M266.891,41h2.421V29.5H268.07l-3.882,1.469v1.992l2.7-1.031Z" transform="translate(734.334 386.078)" fill="#fff"/>
    <path id="Path_2" data-name="Path 2" d="M225.139,59.047h1.88v6.61a3.53,3.53,0,0,1-.493,1.921,3.12,3.12,0,0,1-1.339,1.169,4.571,4.571,0,0,1-1.928.39,4.646,4.646,0,0,1-1.948-.39,3.067,3.067,0,0,1-1.34-1.169,3.564,3.564,0,0,1-.486-1.921v-6.61h1.88v6.61A2.455,2.455,0,0,0,221.6,66.8a1.478,1.478,0,0,0,.656.649,2.488,2.488,0,0,0,2.01,0,1.444,1.444,0,0,0,.649-.649,2.524,2.524,0,0,0,.226-1.142Zm5.332,3.978v8.818h-1.812V61.6h1.675Zm4.751,2.2v.144a5.57,5.57,0,0,1-.192,1.5,3.733,3.733,0,0,1-.547,1.2,2.716,2.716,0,0,1-3.322.813,2.447,2.447,0,0,1-.854-.752,4.119,4.119,0,0,1-.561-1.13,8.438,8.438,0,0,1-.308-1.415v-.458a8.71,8.71,0,0,1,.308-1.477,4.046,4.046,0,0,1,.561-1.155,2.444,2.444,0,0,1,.847-.759,2.506,2.506,0,0,1,1.183-.267,2.731,2.731,0,0,1,1.237.267,2.488,2.488,0,0,1,.909.766,3.5,3.5,0,0,1,.554,1.189,5.955,5.955,0,0,1,.185,1.536Zm-1.812.144v-.144a4.313,4.313,0,0,0-.089-.909,2.431,2.431,0,0,0-.273-.738,1.287,1.287,0,0,0-1.19-.677,1.718,1.718,0,0,0-.717.137,1.261,1.261,0,0,0-.493.39,1.973,1.973,0,0,0-.3.6,3.661,3.661,0,0,0-.137.759v1.135a3.221,3.221,0,0,0,.239.909,1.512,1.512,0,0,0,.52.643,1.561,1.561,0,0,0,.9.239,1.311,1.311,0,0,0,.711-.185,1.429,1.429,0,0,0,.479-.506,2.5,2.5,0,0,0,.266-.752,4.721,4.721,0,0,0,.084-.9Zm5.045-6.87V69h-1.811V58.5Zm1.4,6.877v-.144a4.623,4.623,0,0,1,.233-1.5,3.453,3.453,0,0,1,.677-1.2,3.04,3.04,0,0,1,1.087-.786,3.549,3.549,0,0,1,1.462-.287,3.588,3.588,0,0,1,1.477.287,3.032,3.032,0,0,1,1.094.786,3.451,3.451,0,0,1,.676,1.2,4.624,4.624,0,0,1,.233,1.5v.144a4.663,4.663,0,0,1-.233,1.5,3.534,3.534,0,0,1-.676,1.2,3.047,3.047,0,0,1-1.087.786,4,4,0,0,1-2.94,0,3.026,3.026,0,0,1-1.093-.786,3.537,3.537,0,0,1-.677-1.2,4.663,4.663,0,0,1-.232-1.5Zm1.8-.144v.144a4.107,4.107,0,0,0,.1.909,2.433,2.433,0,0,0,.294.745,1.474,1.474,0,0,0,.512.506,1.563,1.563,0,0,0,.766.178,1.5,1.5,0,0,0,.752-.178,1.468,1.468,0,0,0,.513-.506,2.344,2.344,0,0,0,.3-.745,4.172,4.172,0,0,0,.1-.909v-.144a4.045,4.045,0,0,0-.1-.9,2.345,2.345,0,0,0-.3-.745,1.441,1.441,0,0,0-1.279-.7,1.421,1.421,0,0,0-.752.191,1.455,1.455,0,0,0-.512.513,2.434,2.434,0,0,0-.294.745,3.983,3.983,0,0,0-.094.9Zm10.521,2.194V64.017a1.51,1.51,0,0,0-.13-.649.94.94,0,0,0-.4-.424,1.361,1.361,0,0,0-.676-.15,1.535,1.535,0,0,0-.636.123.932.932,0,0,0-.41.349.9.9,0,0,0-.144.506h-1.811a1.816,1.816,0,0,1,.218-.868,2.322,2.322,0,0,1,.622-.738,3.075,3.075,0,0,1,.978-.513,4.186,4.186,0,0,1,1.285-.185,3.7,3.7,0,0,1,1.5.287,2.273,2.273,0,0,1,1.039.848A2.5,2.5,0,0,1,254,64.03v3.227a5.749,5.749,0,0,0,.068.95,2.607,2.607,0,0,0,.219.677V69h-1.839a2.764,2.764,0,0,1-.2-.711,5.518,5.518,0,0,1-.066-.861Zm.253-2.933.013,1.073H251.3a2.8,2.8,0,0,0-.745.089,1.376,1.376,0,0,0-.527.246.99.99,0,0,0-.307.383,1.154,1.154,0,0,0-.1.5.986.986,0,0,0,.123.492.945.945,0,0,0,.369.349,1.27,1.27,0,0,0,.574.123,1.734,1.734,0,0,0,.834-.191,1.64,1.64,0,0,0,.554-.479,1.034,1.034,0,0,0,.212-.533l.52.779a3.055,3.055,0,0,1-.288.6,2.648,2.648,0,0,1-.492.588,2.5,2.5,0,0,1-.724.451,2.534,2.534,0,0,1-.985.178,2.807,2.807,0,0,1-1.285-.287,2.273,2.273,0,0,1-.9-.786,2.018,2.018,0,0,1-.329-1.135,2.352,2.352,0,0,1,.219-1.039,2,2,0,0,1,.65-.759,3.012,3.012,0,0,1,1.066-.472,5.958,5.958,0,0,1,1.47-.164Zm7.628,2.933V58.5h1.819V69h-1.641Zm-4.751-2.037v-.144a5.737,5.737,0,0,1,.192-1.538,3.594,3.594,0,0,1,.574-1.2,2.641,2.641,0,0,1,.909-.772,2.671,2.671,0,0,1,1.224-.273,2.389,2.389,0,0,1,1.155.267,2.447,2.447,0,0,1,.848.759,4.037,4.037,0,0,1,.567,1.169,7.993,7.993,0,0,1,.308,1.477v.39a7.7,7.7,0,0,1-.308,1.442,4.089,4.089,0,0,1-.567,1.148,2.473,2.473,0,0,1-.848.752,2.442,2.442,0,0,1-1.169.267,2.6,2.6,0,0,1-1.217-.28,2.68,2.68,0,0,1-.909-.786,3.785,3.785,0,0,1-.567-1.189,5.5,5.5,0,0,1-.186-1.487Zm1.812-.144v.144a4.617,4.617,0,0,0,.082.9,2.412,2.412,0,0,0,.267.738,1.4,1.4,0,0,0,.471.492,1.35,1.35,0,0,0,.711.178,1.523,1.523,0,0,0,.875-.232,1.569,1.569,0,0,0,.54-.649,2.955,2.955,0,0,0,.246-.937V64.8a3.043,3.043,0,0,0-.143-.759,1.8,1.8,0,0,0-.315-.6,1.391,1.391,0,0,0-.492-.4,1.572,1.572,0,0,0-.7-.144,1.311,1.311,0,0,0-.711.185,1.371,1.371,0,0,0-.479.5,2.523,2.523,0,0,0-.273.745,4.8,4.8,0,0,0-.073.92Zm10.015-6.2h3.616a5.015,5.015,0,0,1,1.948.342,2.7,2.7,0,0,1,1.251,1.012,2.947,2.947,0,0,1,.438,1.648,3.061,3.061,0,0,1-.274,1.34,2.611,2.611,0,0,1-.772.95,3.8,3.8,0,0,1-1.162.6l-.588.3H268.4l-.013-1.483h2.385a2.025,2.025,0,0,0,.964-.205,1.351,1.351,0,0,0,.574-.567,1.686,1.686,0,0,0,.2-.827,1.815,1.815,0,0,0-.192-.861,1.293,1.293,0,0,0-.581-.567,2.164,2.164,0,0,0-.984-.2h-1.736V69h-1.88ZM272.758,69l-2.3-4.457,1.989-.007,2.331,4.368V69Zm6.467.137a3.964,3.964,0,0,1-1.511-.273,3.32,3.32,0,0,1-1.142-.759,3.5,3.5,0,0,1-.718-1.142,3.978,3.978,0,0,1-.246-1.408v-.274a4.638,4.638,0,0,1,.246-1.552,3.571,3.571,0,0,1,.7-1.21,3.074,3.074,0,0,1,1.08-.779,3.444,3.444,0,0,1,1.388-.273,3.393,3.393,0,0,1,1.387.267,2.686,2.686,0,0,1,1,.738,3.222,3.222,0,0,1,.609,1.148,4.983,4.983,0,0,1,.2,1.47v.759h-5.8V64.6h4.019v-.137a2.182,2.182,0,0,0-.164-.786,1.253,1.253,0,0,0-.465-.574,1.391,1.391,0,0,0-.813-.219,1.356,1.356,0,0,0-.7.178,1.41,1.41,0,0,0-.492.492,2.436,2.436,0,0,0-.288.752,4.6,4.6,0,0,0-.1.971v.274a2.894,2.894,0,0,0,.123.861,2.053,2.053,0,0,0,.376.69,1.829,1.829,0,0,0,.6.451,1.976,1.976,0,0,0,.807.157,2.348,2.348,0,0,0,1.025-.219,2.285,2.285,0,0,0,.807-.663l.909.943a3,3,0,0,1-.629.656,3.2,3.2,0,0,1-.943.513,3.906,3.906,0,0,1-1.27.2Zm8.278-2.16a.735.735,0,0,0-.123-.417,1.055,1.055,0,0,0-.465-.335,4.714,4.714,0,0,0-.984-.294,7.279,7.279,0,0,1-1.06-.308,3.447,3.447,0,0,1-.834-.444,2.023,2.023,0,0,1-.547-.622,1.766,1.766,0,0,1-.191-.834,1.929,1.929,0,0,1,.2-.861,2.113,2.113,0,0,1,.574-.718,2.752,2.752,0,0,1,.916-.492,3.75,3.75,0,0,1,1.217-.185,3.891,3.891,0,0,1,1.62.308,2.407,2.407,0,0,1,1.046.848,2.087,2.087,0,0,1,.362,1.2h-1.8a1.057,1.057,0,0,0-.137-.533.942.942,0,0,0-.4-.383,1.425,1.425,0,0,0-.691-.15,1.476,1.476,0,0,0-.635.123.924.924,0,0,0-.383.321.779.779,0,0,0-.13.438.746.746,0,0,0,.068.321.777.777,0,0,0,.239.253,1.773,1.773,0,0,0,.445.212,6.618,6.618,0,0,0,.7.184,6.837,6.837,0,0,1,1.442.438,2.4,2.4,0,0,1,.971.711,1.785,1.785,0,0,1,.349,1.135,1.94,1.94,0,0,1-.212.9,2.1,2.1,0,0,1-.616.7,3.113,3.113,0,0,1-.963.472,4.51,4.51,0,0,1-1.265.164,3.735,3.735,0,0,1-1.723-.362,2.751,2.751,0,0,1-1.066-.93,2.151,2.151,0,0,1-.362-1.176h1.729a1.153,1.153,0,0,0,.232.69,1.2,1.2,0,0,0,.534.376,2.166,2.166,0,0,0,.69.109,1.91,1.91,0,0,0,.691-.109.984.984,0,0,0,.423-.308.748.748,0,0,0,.136-.442Zm7.54.267V61.6h1.818V69h-1.709Zm.232-1.531.561-.014a5.453,5.453,0,0,1-.164,1.374,3.11,3.11,0,0,1-.513,1.094,2.38,2.38,0,0,1-.868.718,2.847,2.847,0,0,1-1.244.253,3.139,3.139,0,0,1-1-.15,2.024,2.024,0,0,1-.779-.485,2.262,2.262,0,0,1-.5-.854,3.957,3.957,0,0,1-.178-1.265V61.6h1.8v4.8a1.991,1.991,0,0,0,.082.615,1.131,1.131,0,0,0,.24.4.954.954,0,0,0,.362.219,1.611,1.611,0,0,0,.451.062,1.79,1.79,0,0,0,1.032-.26,1.456,1.456,0,0,0,.547-.711,2.929,2.929,0,0,0,.171-1.013Zm4.984-2.591V69h-1.8V61.6h1.7Zm-.267,1.914h-.554a5.19,5.19,0,0,1,.185-1.422,3.408,3.408,0,0,1,.561-1.128,2.541,2.541,0,0,1,.909-.752,2.85,2.85,0,0,1,1.264-.267,2.68,2.68,0,0,1,.916.15,1.778,1.778,0,0,1,.718.458,2,2,0,0,1,.472.807,3.773,3.773,0,0,1,.164,1.183V69h-1.8V64.249a1.815,1.815,0,0,0-.15-.813.814.814,0,0,0-.417-.41,1.59,1.59,0,0,0-.656-.123,1.485,1.485,0,0,0-.732.171,1.414,1.414,0,0,0-.5.458,2.235,2.235,0,0,0-.287.677,3.669,3.669,0,0,0-.088.826Zm4.5-.335-.745.137a4.615,4.615,0,0,1,.192-1.306,3.256,3.256,0,0,1,.54-1.073,2.517,2.517,0,0,1,.9-.725,2.777,2.777,0,0,1,1.244-.267,2.9,2.9,0,0,1,.985.157,1.823,1.823,0,0,1,.758.485,2.117,2.117,0,0,1,.479.854,4.2,4.2,0,0,1,.171,1.285V69H307.19V64.242a1.827,1.827,0,0,0-.15-.827.787.787,0,0,0-.417-.4,1.632,1.632,0,0,0-.643-.116,1.423,1.423,0,0,0-.656.144,1.35,1.35,0,0,0-.465.383,1.781,1.781,0,0,0-.28.574,2.618,2.618,0,0,0-.089.7Zm9.461,4.437a3.971,3.971,0,0,1-1.511-.273A3.316,3.316,0,0,1,311.3,68.1a3.494,3.494,0,0,1-.718-1.142,3.979,3.979,0,0,1-.246-1.408v-.274a4.639,4.639,0,0,1,.246-1.552,3.569,3.569,0,0,1,.7-1.21,3.075,3.075,0,0,1,1.08-.779,3.447,3.447,0,0,1,1.388-.273,3.4,3.4,0,0,1,1.388.267,2.686,2.686,0,0,1,1,.738,3.222,3.222,0,0,1,.608,1.148,4.952,4.952,0,0,1,.2,1.47v.759h-5.8V64.6h4.02v-.137a2.182,2.182,0,0,0-.164-.786,1.259,1.259,0,0,0-.465-.574,1.4,1.4,0,0,0-.814-.219,1.361,1.361,0,0,0-.7.178,1.41,1.41,0,0,0-.492.492,2.461,2.461,0,0,0-.287.752,4.536,4.536,0,0,0-.1.971v.274a2.894,2.894,0,0,0,.123.861,2.071,2.071,0,0,0,.376.69,1.832,1.832,0,0,0,.6.451,1.976,1.976,0,0,0,.807.157,2.348,2.348,0,0,0,1.025-.219,2.285,2.285,0,0,0,.807-.663l.909.943a3.025,3.025,0,0,1-.629.656,3.2,3.2,0,0,1-.944.513,3.906,3.906,0,0,1-1.272.2Z" transform="translate(734.334 386.078)" fill="#010d45"/>
    <path id="Path_5" data-name="Path 5" d="M0,0H173.449" transform="translate(1020.131 422.078)" fill="none" stroke="#e9e9e9" stroke-width="1"/>
    <circle id="Ellipse_2" data-name="Ellipse 2" cx="12" cy="12" r="12" transform="translate(1198.834 410.078)" fill="#dee1ff"/>
    <path id="Path_3" data-name="Path 3" d="M472.07,41h7.985V39.109h-4.813l2.555-2.781a16.818,16.818,0,0,0,1.43-1.8,3.473,3.473,0,0,0,.593-2.008,2.866,2.866,0,0,0-.976-2.234,4.153,4.153,0,0,0-2.883-.883,4.011,4.011,0,0,0-2.867,1.008,3.44,3.44,0,0,0-1.071,2.625v.281h2.446V33.09a2.065,2.065,0,0,1,.406-1.4,1.408,1.408,0,0,1,1.1-.461A1.29,1.29,0,0,1,477,31.62a1.429,1.429,0,0,1,.352.992,2.241,2.241,0,0,1-.375,1.226,9.713,9.713,0,0,1-1.024,1.313l-3.883,4.391Z" transform="translate(734.334 386.078)" fill="#fff"/>
    <path id="Path_4" data-name="Path 4" d="M427.753,66.416a1.4,1.4,0,0,0-.089-.513.948.948,0,0,0-.308-.417,2.439,2.439,0,0,0-.622-.369,8.637,8.637,0,0,0-1.025-.383,11.343,11.343,0,0,1-1.3-.492,5.087,5.087,0,0,1-1.059-.636,2.714,2.714,0,0,1-.7-.834,2.342,2.342,0,0,1-.252-1.107,2.42,2.42,0,0,1,.259-1.121,2.584,2.584,0,0,1,.752-.868,3.575,3.575,0,0,1,1.142-.567,5.093,5.093,0,0,1,1.463-.2,4.236,4.236,0,0,1,1.914.4,3.09,3.09,0,0,1,1.258,1.094,2.808,2.808,0,0,1,.444,1.552h-1.873a1.657,1.657,0,0,0-.2-.82,1.352,1.352,0,0,0-.588-.561,2.1,2.1,0,0,0-.985-.2,2.357,2.357,0,0,0-.957.171,1.3,1.3,0,0,0-.567.465,1.209,1.209,0,0,0-.185.656.951.951,0,0,0,.13.492,1.477,1.477,0,0,0,.39.4,3.45,3.45,0,0,0,.643.349q.389.157.9.314a9.482,9.482,0,0,1,1.435.547,4.155,4.155,0,0,1,1.033.684,2.508,2.508,0,0,1,.622.861,2.664,2.664,0,0,1,.212,1.087,2.543,2.543,0,0,1-.253,1.148,2.43,2.43,0,0,1-.725.861,3.359,3.359,0,0,1-1.135.54,5.418,5.418,0,0,1-1.469.185,5.5,5.5,0,0,1-1.435-.191,4.369,4.369,0,0,1-1.279-.588,3,3,0,0,1-.916-1,2.854,2.854,0,0,1-.342-1.422h1.887a1.965,1.965,0,0,0,.15.807,1.454,1.454,0,0,0,.438.54,1.95,1.95,0,0,0,.669.3,3.411,3.411,0,0,0,.828.1,2.424,2.424,0,0,0,.943-.157,1.227,1.227,0,0,0,.561-.451,1.16,1.16,0,0,0,.2-.651Zm4.97-7.916V69h-1.812V58.5Zm-.287,6.535H431.9a4.724,4.724,0,0,1,.2-1.422,3.539,3.539,0,0,1,.581-1.128,2.671,2.671,0,0,1,.9-.752,2.534,2.534,0,0,1,1.162-.267,2.953,2.953,0,0,1,.991.157,1.874,1.874,0,0,1,.773.485,2.2,2.2,0,0,1,.492.875,4.155,4.155,0,0,1,.178,1.3V69h-1.819V64.27a1.8,1.8,0,0,0-.15-.807.9.9,0,0,0-.431-.431,1.57,1.57,0,0,0-.676-.13,1.551,1.551,0,0,0-.752.171,1.436,1.436,0,0,0-.52.458,2.254,2.254,0,0,0-.3.677A3.4,3.4,0,0,0,432.436,65.035Zm10.411,2.392v-3.41a1.511,1.511,0,0,0-.13-.649.94.94,0,0,0-.4-.424,1.361,1.361,0,0,0-.676-.15,1.536,1.536,0,0,0-.636.123.932.932,0,0,0-.41.349.9.9,0,0,0-.144.506H438.64a1.815,1.815,0,0,1,.218-.868,2.335,2.335,0,0,1,.622-.738,3.075,3.075,0,0,1,.978-.513,4.186,4.186,0,0,1,1.285-.185,3.7,3.7,0,0,1,1.5.287,2.273,2.273,0,0,1,1.039.848,2.5,2.5,0,0,1,.383,1.429v3.227a5.742,5.742,0,0,0,.068.95,2.644,2.644,0,0,0,.219.677V69h-1.839a2.764,2.764,0,0,1-.2-.711,5.521,5.521,0,0,1-.066-.861ZM443.1,64.5l.013,1.073h-1.141a2.8,2.8,0,0,0-.745.089,1.376,1.376,0,0,0-.527.246.99.99,0,0,0-.307.383,1.155,1.155,0,0,0-.1.5.986.986,0,0,0,.123.492.945.945,0,0,0,.369.349,1.27,1.27,0,0,0,.574.123,1.734,1.734,0,0,0,.834-.191,1.64,1.64,0,0,0,.554-.479,1.034,1.034,0,0,0,.212-.533l.52.779a3.056,3.056,0,0,1-.288.6,2.646,2.646,0,0,1-.492.588,2.5,2.5,0,0,1-.724.451,2.533,2.533,0,0,1-.985.178,2.807,2.807,0,0,1-1.285-.287,2.273,2.273,0,0,1-.895-.786,2.017,2.017,0,0,1-.328-1.135A2.352,2.352,0,0,1,438.7,65.9a2,2,0,0,1,.65-.759,3.013,3.013,0,0,1,1.066-.472,5.957,5.957,0,0,1,1.47-.164Zm5-1.381V69h-1.8V61.6H448Zm2.249-1.559-.028,1.682a3.2,3.2,0,0,0-.341-.041c-.123-.009-.24-.014-.349-.014a2.112,2.112,0,0,0-.732.116,1.366,1.366,0,0,0-.526.321,1.416,1.416,0,0,0-.314.52,2.222,2.222,0,0,0-.123.684l-.39-.048a5.6,5.6,0,0,1,.144-1.306,3.617,3.617,0,0,1,.417-1.053,2.006,2.006,0,0,1,.683-.7,1.809,1.809,0,0,1,.957-.253,2.042,2.042,0,0,1,.321.027,1.134,1.134,0,0,1,.278.061Zm4.176,7.581a3.962,3.962,0,0,1-1.51-.273,3.32,3.32,0,0,1-1.142-.759,3.494,3.494,0,0,1-.718-1.142,3.979,3.979,0,0,1-.246-1.408v-.274a4.637,4.637,0,0,1,.246-1.552,3.556,3.556,0,0,1,.7-1.21,3.056,3.056,0,0,1,1.08-.779,3.442,3.442,0,0,1,1.387-.273,3.4,3.4,0,0,1,1.388.267,2.686,2.686,0,0,1,1.005.738,3.206,3.206,0,0,1,.608,1.148,4.952,4.952,0,0,1,.2,1.47v.759h-5.8V64.6h4.019v-.137a2.182,2.182,0,0,0-.164-.786,1.253,1.253,0,0,0-.465-.574,1.393,1.393,0,0,0-.813-.219,1.356,1.356,0,0,0-.7.178,1.421,1.421,0,0,0-.493.492,2.462,2.462,0,0,0-.287.752,4.6,4.6,0,0,0-.1.971v.274a2.893,2.893,0,0,0,.123.861,2.053,2.053,0,0,0,.376.69,1.828,1.828,0,0,0,.6.451,1.976,1.976,0,0,0,.807.157,2.348,2.348,0,0,0,1.025-.219,2.285,2.285,0,0,0,.807-.663l.909.943a3.025,3.025,0,0,1-.629.656,3.21,3.21,0,0,1-.943.513,3.908,3.908,0,0,1-1.278.2Zm11.649-4.573h-2.543l-.014-1.326H465.8a2.43,2.43,0,0,0,.936-.157,1.2,1.2,0,0,0,.568-.458,1.3,1.3,0,0,0,.2-.732,1.462,1.462,0,0,0-.185-.779,1.018,1.018,0,0,0-.56-.437,2.8,2.8,0,0,0-.971-.144h-1.545V69h-1.88V59.047h3.425a6.319,6.319,0,0,1,1.511.164,3.151,3.151,0,0,1,1.135.492,2.166,2.166,0,0,1,.7.841,2.726,2.726,0,0,1,.246,1.2,2.311,2.311,0,0,1-.287,1.135,2.1,2.1,0,0,1-.868.834,3.418,3.418,0,0,1-1.477.369ZM466.089,69h-3.015l.786-1.477h2.229a2.03,2.03,0,0,0,.923-.185,1.236,1.236,0,0,0,.547-.506,1.507,1.507,0,0,0,.184-.752,1.853,1.853,0,0,0-.164-.807,1.108,1.108,0,0,0-.506-.526,1.9,1.9,0,0,0-.9-.185h-1.955l.013-1.326h2.489l.43.513a2.668,2.668,0,0,1,1.4.342,2.088,2.088,0,0,1,.806.861,2.519,2.519,0,0,1,.26,1.135,2.915,2.915,0,0,1-.417,1.606,2.5,2.5,0,0,1-1.2.978,4.95,4.95,0,0,1-1.91.329Zm9.092-1.572V64.017a1.51,1.51,0,0,0-.13-.649.94.94,0,0,0-.4-.424,1.361,1.361,0,0,0-.676-.15,1.535,1.535,0,0,0-.636.123.932.932,0,0,0-.41.349.9.9,0,0,0-.144.506h-1.811a1.816,1.816,0,0,1,.218-.868,2.336,2.336,0,0,1,.622-.738,3.075,3.075,0,0,1,.978-.513,4.186,4.186,0,0,1,1.285-.185,3.7,3.7,0,0,1,1.5.287,2.273,2.273,0,0,1,1.039.848A2.5,2.5,0,0,1,477,64.03v3.227a5.749,5.749,0,0,0,.068.95,2.648,2.648,0,0,0,.219.677V69h-1.839a2.767,2.767,0,0,1-.2-.711A5.522,5.522,0,0,1,475.181,67.428Zm.253-2.933.013,1.073h-1.141a2.8,2.8,0,0,0-.745.089,1.376,1.376,0,0,0-.527.246.99.99,0,0,0-.307.383,1.154,1.154,0,0,0-.1.5.986.986,0,0,0,.123.492.945.945,0,0,0,.369.349,1.27,1.27,0,0,0,.574.123,1.734,1.734,0,0,0,.834-.191,1.64,1.64,0,0,0,.554-.479,1.034,1.034,0,0,0,.212-.533l.52.779a3.054,3.054,0,0,1-.288.6,2.649,2.649,0,0,1-.492.588,2.5,2.5,0,0,1-.724.451,2.533,2.533,0,0,1-.985.178,2.807,2.807,0,0,1-1.285-.287,2.273,2.273,0,0,1-.9-.786,2.018,2.018,0,0,1-.329-1.135,2.351,2.351,0,0,1,.219-1.039,2,2,0,0,1,.65-.759,3.012,3.012,0,0,1,1.066-.472,5.957,5.957,0,0,1,1.47-.164Zm7.259,2.481a.735.735,0,0,0-.123-.417,1.055,1.055,0,0,0-.465-.335,4.716,4.716,0,0,0-.984-.294,7.227,7.227,0,0,1-1.059-.308,3.41,3.41,0,0,1-.834-.444,2.01,2.01,0,0,1-.547-.622,1.755,1.755,0,0,1-.192-.834,1.916,1.916,0,0,1,.2-.861,2.1,2.1,0,0,1,.574-.718,2.742,2.742,0,0,1,.916-.492,3.745,3.745,0,0,1,1.217-.185,3.9,3.9,0,0,1,1.62.308,2.418,2.418,0,0,1,1.046.848,2.1,2.1,0,0,1,.362,1.2h-1.8a1.047,1.047,0,0,0-.137-.533.936.936,0,0,0-.4-.383,1.418,1.418,0,0,0-.69-.15,1.478,1.478,0,0,0-.636.123.931.931,0,0,0-.383.321.787.787,0,0,0-.13.438.732.732,0,0,0,.069.321.776.776,0,0,0,.239.253,1.748,1.748,0,0,0,.444.212,6.689,6.689,0,0,0,.7.184,6.83,6.83,0,0,1,1.443.438,2.406,2.406,0,0,1,.97.711,1.78,1.78,0,0,1,.349,1.135,1.94,1.94,0,0,1-.212.9,2.085,2.085,0,0,1-.615.7,3.119,3.119,0,0,1-.964.472,4.5,4.5,0,0,1-1.265.164,3.728,3.728,0,0,1-1.722-.362,2.755,2.755,0,0,1-1.067-.93,2.16,2.16,0,0,1-.362-1.176h1.729a1.153,1.153,0,0,0,.233.69,1.2,1.2,0,0,0,.533.376,2.172,2.172,0,0,0,.691.109,1.908,1.908,0,0,0,.69-.109.987.987,0,0,0,.424-.308.747.747,0,0,0,.138-.441Zm5.052-5.373V69h-1.811V61.6Zm-1.934-1.935a.9.9,0,0,1,.273-.67,1.045,1.045,0,0,1,.752-.267,1.022,1.022,0,0,1,.745.267.933.933,0,0,1,0,1.333,1.021,1.021,0,0,1-.745.267,1.045,1.045,0,0,1-.752-.267.889.889,0,0,1-.273-.662Zm6.692,8.046a1.513,1.513,0,0,0,.684-.15,1.215,1.215,0,0,0,.676-1.06h1.7a2.4,2.4,0,0,1-.423,1.347,2.906,2.906,0,0,1-1.094.943,3.319,3.319,0,0,1-1.518.342,3.594,3.594,0,0,1-1.49-.287,2.905,2.905,0,0,1-1.06-.8,3.533,3.533,0,0,1-.628-1.189,4.965,4.965,0,0,1-.206-1.449v-.219a4.963,4.963,0,0,1,.206-1.449,3.533,3.533,0,0,1,.628-1.189,2.906,2.906,0,0,1,1.06-.8,3.574,3.574,0,0,1,1.483-.287,3.39,3.39,0,0,1,1.573.349,2.592,2.592,0,0,1,1.066.984,2.9,2.9,0,0,1,.4,1.5h-1.7a1.644,1.644,0,0,0-.177-.711,1.315,1.315,0,0,0-.465-.506,1.338,1.338,0,0,0-.732-.191,1.422,1.422,0,0,0-.765.191,1.319,1.319,0,0,0-.472.526,2.59,2.59,0,0,0-.232.738,5.625,5.625,0,0,0-.062.848v.219a5.811,5.811,0,0,0,.062.861,2.589,2.589,0,0,0,.232.738,1.343,1.343,0,0,0,.472.513,1.449,1.449,0,0,0,.779.189Zm9.892-8.668V69h-1.88V59.047Zm3.664,4.136V69h-1.8V61.6h1.7Zm-.288,1.853h-.533a4.9,4.9,0,0,1,.219-1.463,3.453,3.453,0,0,1,.6-1.128,2.671,2.671,0,0,1,.923-.725,2.739,2.739,0,0,1,1.189-.253,2.907,2.907,0,0,1,.964.15,1.817,1.817,0,0,1,.738.479,2.128,2.128,0,0,1,.479.861,4.251,4.251,0,0,1,.171,1.3V69H508.7V64.242a1.777,1.777,0,0,0-.15-.8.839.839,0,0,0-.424-.417,1.648,1.648,0,0,0-.677-.123,1.5,1.5,0,0,0-.731.171,1.522,1.522,0,0,0-.52.458,2.274,2.274,0,0,0-.314.677,3,3,0,0,0-.113.827Zm8.7,3.965h-1.819V60.92a2.8,2.8,0,0,1,.322-1.4,2.079,2.079,0,0,1,.916-.868,3.124,3.124,0,0,1,1.4-.294,3.581,3.581,0,0,1,.506.034,4.33,4.33,0,0,1,.485.1l-.034,1.374a1.713,1.713,0,0,0-.287-.048c-.1-.009-.212-.014-.335-.014a1.394,1.394,0,0,0-.629.13.894.894,0,0,0-.4.383,1.288,1.288,0,0,0-.13.608Zm1.5-7.4v1.3h-4.43V61.6Zm.793,3.773v-.144a4.625,4.625,0,0,1,.232-1.5,3.469,3.469,0,0,1,.677-1.2,3.041,3.041,0,0,1,1.087-.786,3.9,3.9,0,0,1,2.939,0,3.033,3.033,0,0,1,1.094.786,3.47,3.47,0,0,1,.677,1.2,4.623,4.623,0,0,1,.232,1.5v.144a4.662,4.662,0,0,1-.232,1.5,3.554,3.554,0,0,1-.677,1.2,3.047,3.047,0,0,1-1.087.786,3.992,3.992,0,0,1-2.939,0,3.03,3.03,0,0,1-1.094-.786,3.554,3.554,0,0,1-.677-1.2,4.665,4.665,0,0,1-.232-1.5Zm1.8-.144v.144a4.106,4.106,0,0,0,.1.909,2.432,2.432,0,0,0,.294.745,1.468,1.468,0,0,0,.513.506,1.556,1.556,0,0,0,.765.178,1.5,1.5,0,0,0,.752-.178,1.467,1.467,0,0,0,.513-.506,2.32,2.32,0,0,0,.3-.745,4.108,4.108,0,0,0,.095-.909v-.144a3.984,3.984,0,0,0-.095-.9,2.321,2.321,0,0,0-.3-.745,1.531,1.531,0,0,0-2.03-.513,1.449,1.449,0,0,0-.513.513,2.434,2.434,0,0,0-.294.745,3.978,3.978,0,0,0-.1.9Zm10.514,1.743a.734.734,0,0,0-.123-.417,1.054,1.054,0,0,0-.465-.335,4.714,4.714,0,0,0-.984-.294,7.278,7.278,0,0,1-1.06-.308,3.444,3.444,0,0,1-.834-.444,2.022,2.022,0,0,1-.547-.622,1.765,1.765,0,0,1-.191-.834,1.929,1.929,0,0,1,.2-.861,2.112,2.112,0,0,1,.574-.718,2.752,2.752,0,0,1,.916-.492,3.751,3.751,0,0,1,1.217-.185,3.891,3.891,0,0,1,1.62.308,2.407,2.407,0,0,1,1.046.848,2.088,2.088,0,0,1,.363,1.2h-1.8a1.057,1.057,0,0,0-.137-.533.937.937,0,0,0-.4-.383,1.422,1.422,0,0,0-.691-.15,1.477,1.477,0,0,0-.635.123.924.924,0,0,0-.383.321.779.779,0,0,0-.13.438.747.747,0,0,0,.068.321.772.772,0,0,0,.24.253,1.747,1.747,0,0,0,.444.212,6.61,6.61,0,0,0,.7.184,6.836,6.836,0,0,1,1.442.438,2.4,2.4,0,0,1,.971.711,1.785,1.785,0,0,1,.349,1.135,1.94,1.94,0,0,1-.212.9,2.1,2.1,0,0,1-.615.7,3.128,3.128,0,0,1-.964.472,4.51,4.51,0,0,1-1.265.164,3.735,3.735,0,0,1-1.723-.362,2.759,2.759,0,0,1-1.066-.93,2.151,2.151,0,0,1-.362-1.176h1.729a1.147,1.147,0,0,0,.233.69,1.2,1.2,0,0,0,.533.376,2.171,2.171,0,0,0,.69.109,1.91,1.91,0,0,0,.691-.109.984.984,0,0,0,.423-.308.748.748,0,0,0,.142-.437Z" transform="translate(734.334 386.078)" fill="#dee1ff"/>
    <rect id="Rectangle_2" data-name="Rectangle 2" width="8" height="10" transform="translate(1259 446)" fill="#fff"/>
  </g>
</svg>
