<svg width="92" height="67" viewBox="0 0 92 67" fill="none" xmlns="http://www.w3.org/2000/svg">
<path d="M41.8332 66.6667H23.0832C16.7637 66.6667 11.3651 64.4792 6.88734 60.1042C2.40678 55.7292 0.166504 50.3819 0.166504 44.0625C0.166504 38.6458 1.79845 33.8194 5.06234 29.5833C8.32623 25.3472 12.5971 22.6389 17.8748 21.4583C19.6109 15.0694 23.0832 9.89583 28.2915 5.9375C33.4998 1.97917 39.4026 0 45.9998 0C54.1248 0 61.0165 2.82917 66.6748 8.4875C72.3359 14.1486 75.1665 21.0417 75.1665 29.1667C79.9582 29.7222 83.9346 31.7875 87.0957 35.3625C90.254 38.9403 91.8332 43.125 91.8332 47.9167C91.8332 53.125 90.0109 57.5528 86.3665 61.2C82.7193 64.8444 78.2915 66.6667 73.0832 66.6667H50.1665V36.875L56.8332 43.3333L62.6665 37.5L45.9998 20.8333L29.3332 37.5L35.1665 43.3333L41.8332 36.875V66.6667Z" fill="#BEBEBE"/>
</svg>
